<svg width="390" height="183" viewBox="0 0 390 183" fill="none" xmlns="http://www.w3.org/2000/svg">
<path d="M0 0H390V183H0V0Z" fill="#E0B967"/>
<path d="M32.1592 161.439C34.5356 161.439 36.8667 160.818 38.7285 159.713C40.5903 158.608 41.8013 156.777 41.8013 154.643C41.8013 153.114 41.2109 151.933 40.0151 151.101C38.8193 150.283 37.2148 149.875 35.2017 149.875H34.3994V149.557H35.3228C37.1089 149.557 38.5771 149.118 39.7275 148.255C40.8628 147.392 41.438 146.227 41.438 144.789C41.438 143.472 41.0142 142.367 40.1665 141.458C38.4561 139.657 35.6255 138.87 32.0078 138.87C28.9956 138.87 26.3315 139.218 24.0156 139.915V145.031C24.9238 144.592 25.9834 144.244 27.2095 143.986C28.4355 143.729 29.5859 143.608 30.6758 143.608C33.3701 143.608 36.0039 144.198 36.0039 145.803C36.0039 147.332 34.6265 147.892 31.584 147.892H27.2095V151.358H31.584C34.687 151.358 36.231 152.16 36.231 153.75C36.231 154.764 35.459 155.551 34.354 155.975C33.249 156.414 32.0078 156.625 30.7969 156.625C29.4497 156.625 28.0874 156.444 26.6797 156.065C25.272 155.702 24.0005 155.203 22.8955 154.552V159.88C25.8169 160.924 28.9048 161.439 32.1592 161.439Z" fill="#181E1E"/>
<path d="M57.6494 161C57.6797 159.819 58.0127 158.245 58.6333 156.262L61.0249 150.465C61.7666 148.391 62.5083 146.741 63.2349 145.5H56.7563C56.6201 146.847 56.3628 147.982 55.9995 148.906L53.7139 154.824C53.4414 155.626 53.2144 156.429 53.0327 157.216H52.6846C52.5786 156.747 52.3516 155.944 52.0034 154.824L49.6875 148.906C49.2939 147.771 49.0518 146.635 48.9761 145.5H42.5278C43.209 146.666 43.9204 148.331 44.6621 150.465L47.084 156.262C47.7197 158.154 48.0376 159.729 48.0376 161H57.6494Z" fill="#181E1E"/>
<path d="M72.877 161.439C75.2534 161.439 77.5845 160.818 79.4463 159.713C81.3081 158.608 82.519 156.777 82.519 154.643C82.519 153.114 81.9287 151.933 80.7329 151.101C79.5371 150.283 77.9326 149.875 75.9194 149.875H75.1172V149.557H76.0405C77.8267 149.557 79.2949 149.118 80.4453 148.255C81.5806 147.392 82.1558 146.227 82.1558 144.789C82.1558 143.472 81.7319 142.367 80.8843 141.458C79.1738 139.657 76.3433 138.87 72.7256 138.87C69.7134 138.87 67.0493 139.218 64.7334 139.915V145.031C65.6416 144.592 66.7012 144.244 67.9272 143.986C69.1533 143.729 70.3037 143.608 71.3936 143.608C74.0879 143.608 76.7217 144.198 76.7217 145.803C76.7217 147.332 75.3442 147.892 72.3018 147.892H67.9272V151.358H72.3018C75.4048 151.358 76.9487 152.16 76.9487 153.75C76.9487 154.764 76.1768 155.551 75.0718 155.975C73.9668 156.414 72.7256 156.625 71.5146 156.625C70.1675 156.625 68.8052 156.444 67.3975 156.065C65.9897 155.702 64.7183 155.203 63.6133 154.552V159.88C66.5347 160.924 69.6226 161.439 72.877 161.439Z" fill="#181E1E"/>
<path d="M86.9541 165.223C88.8462 163.846 90.0269 161.802 90.0269 159.607C90.0269 158.669 89.7695 157.927 89.27 157.382C88.7554 156.837 88.1348 156.565 87.3931 156.565C86.7573 156.565 86.2124 156.792 85.7583 157.246C85.2891 157.7 85.062 158.245 85.062 158.896C85.062 160.152 85.9399 161.03 87.0752 161.03C87.2417 161.03 87.5898 160.97 87.6353 160.97C87.5293 161.484 87.2568 162.029 86.7876 162.589C86.3184 163.149 85.834 163.588 85.3193 163.876L86.9541 165.223Z" fill="#181E1E"/>
<path d="M118.938 161L119.074 154.173C118.211 155.036 116.592 155.611 114.548 155.611H107.782L107.722 155.293L113.02 151.979C116.879 149.859 118.635 147.801 118.635 145.152C118.635 143.29 117.833 141.776 116.213 140.611C114.594 139.445 112.535 138.87 110.022 138.87C108.282 138.87 106.753 139.052 105.436 139.43C104.104 139.809 102.605 140.414 100.925 141.247V147.15C101.985 146.257 103.211 145.545 104.619 145.016C106.011 144.486 107.358 144.229 108.675 144.229C109.932 144.229 110.946 144.425 111.733 144.804C112.505 145.197 112.898 145.772 112.898 146.529C112.898 147.059 112.702 147.589 112.308 148.119C111.915 148.648 111.158 149.314 110.053 150.117L100.35 156.565V161H118.938Z" fill="#181E1E"/>
<path d="M133.681 143.82C134.635 143.82 135.376 143.562 135.937 143.033C136.497 142.518 136.769 141.867 136.769 141.065C136.769 140.263 136.497 139.597 135.937 139.067C135.376 138.537 134.635 138.28 133.681 138.28C132.758 138.28 132.016 138.537 131.456 139.067C130.896 139.597 130.608 140.263 130.608 141.065C130.608 141.852 130.896 142.503 131.456 143.033C132.016 143.562 132.758 143.82 133.681 143.82ZM137.117 161C136.724 159.486 136.527 157.322 136.527 154.491V148.664C136.527 147.347 136.603 146.302 136.739 145.5C136.073 145.969 135.089 146.196 133.772 146.196C132.455 146.196 131.426 145.969 130.669 145.5C130.805 146.136 130.881 147.195 130.881 148.664V154.491C130.881 157.322 130.684 159.486 130.291 161H137.117Z" fill="#181E1E"/>
<path d="M147.229 161C147.032 160.47 146.896 159.653 146.79 158.548C146.684 157.443 146.638 156.444 146.638 155.551V153.25C146.638 152.115 147.047 151.131 147.849 150.268C148.651 149.42 149.666 148.997 150.892 148.997C153.298 148.997 154.706 150.541 154.706 153.038V155.475C154.706 157.413 154.509 159.259 154.116 161H160.867C160.503 159.38 160.322 157.367 160.322 154.93V152.069C160.322 149.875 159.716 148.164 158.505 146.923C157.279 145.682 155.569 145.061 153.344 145.061C150.226 145.061 148.106 146.514 146.986 149.405H146.638V148.785C146.638 147.468 146.865 146.363 147.319 145.5H140.478C140.856 147.15 141.038 149.072 141.038 151.267V155.793C141.038 157.609 140.856 159.35 140.478 161H147.229Z" fill="#181E1E"/>
<path d="M170.933 161.439C172.537 161.439 173.884 161.045 174.989 160.243C176.094 159.456 176.896 158.427 177.411 157.155H177.774V157.806C177.774 158.881 177.593 159.956 177.229 161H183.98C183.587 159.259 183.39 157.08 183.39 154.491V145.803C183.39 143.214 183.587 141.035 183.98 139.294H177.229C177.593 141.156 177.774 143.32 177.774 145.803V149.405H177.441C176.942 148.088 176.14 147.029 175.004 146.242C173.869 145.455 172.492 145.061 170.872 145.061C168.556 145.061 166.619 145.969 165.423 147.453C164.212 148.936 163.546 150.964 163.546 153.25C163.546 154.779 163.818 156.156 164.378 157.382C164.923 158.608 165.756 159.577 166.891 160.319C168.026 161.076 169.374 161.439 170.933 161.439ZM173.309 157.625C171.962 157.625 170.872 157.216 170.04 156.398C169.207 155.581 168.783 154.537 168.783 153.25C168.783 151.994 169.207 150.949 170.04 150.132C170.872 149.314 171.962 148.906 173.309 148.906C174.596 148.906 175.64 149.314 176.458 150.147C177.275 150.979 177.684 152.009 177.684 153.25C177.684 154.416 177.275 155.43 176.442 156.308C175.61 157.186 174.565 157.625 173.309 157.625Z" fill="#181E1E"/>
<path d="M200.661 160.788C203.128 159.94 204.688 158.427 205.535 156.444C205.944 155.46 206.156 154.385 206.156 153.25C206.156 152.115 205.944 151.04 205.535 150.056C204.688 148.088 203.144 146.56 200.661 145.697C199.42 145.273 198.027 145.061 196.483 145.061C194.939 145.061 193.547 145.273 192.306 145.697C189.823 146.56 188.279 148.088 187.447 150.056C187.023 151.04 186.811 152.115 186.811 153.25C186.811 154.385 187.023 155.445 187.447 156.429C188.279 158.396 189.823 159.94 192.306 160.788C193.547 161.227 194.939 161.439 196.483 161.439C198.027 161.439 199.42 161.227 200.661 160.788ZM193.29 156.429C192.457 155.596 192.048 154.537 192.048 153.25C192.048 151.963 192.457 150.889 193.29 150.056C194.122 149.224 195.182 148.815 196.483 148.815C197.785 148.815 198.845 149.224 199.677 150.056C200.495 150.889 200.903 151.963 200.903 153.25C200.903 154.537 200.495 155.596 199.677 156.429C198.845 157.261 197.785 157.685 196.483 157.685C195.182 157.685 194.122 157.261 193.29 156.429Z" fill="#181E1E"/>
<path d="M222.337 160.788C224.804 159.94 226.363 158.427 227.211 156.444C227.62 155.46 227.832 154.385 227.832 153.25C227.832 152.115 227.62 151.04 227.211 150.056C226.363 148.088 224.819 146.56 222.337 145.697C221.096 145.273 219.703 145.061 218.159 145.061C216.615 145.061 215.223 145.273 213.981 145.697C211.499 146.56 209.955 148.088 209.123 150.056C208.699 151.04 208.487 152.115 208.487 153.25C208.487 154.385 208.699 155.445 209.123 156.429C209.955 158.396 211.499 159.94 213.981 160.788C215.223 161.227 216.615 161.439 218.159 161.439C219.703 161.439 221.096 161.227 222.337 160.788ZM214.965 156.429C214.133 155.596 213.724 154.537 213.724 153.25C213.724 151.963 214.133 150.889 214.965 150.056C215.798 149.224 216.857 148.815 218.159 148.815C219.461 148.815 220.521 149.224 221.353 150.056C222.17 150.889 222.579 151.963 222.579 153.25C222.579 154.537 222.17 155.596 221.353 156.429C220.521 157.261 219.461 157.685 218.159 157.685C216.857 157.685 215.798 157.261 214.965 156.429Z" fill="#181E1E"/>
<path d="M237.443 161C237.05 160.016 236.853 158.639 236.853 156.883V154.4C236.853 153.008 237.353 151.827 238.336 150.874C239.32 149.92 240.486 149.436 241.818 149.436C242.469 149.436 243.12 149.557 243.74 149.784C244.361 150.011 244.845 150.298 245.193 150.616V145.5C244.406 145.212 243.604 145.061 242.787 145.061C239.926 145.061 237.882 147.044 237.201 150.495H236.853V149.345C236.853 148.679 236.929 147.982 237.095 147.241C237.262 146.514 237.474 145.939 237.731 145.5H230.692C231.041 147.089 231.222 149.012 231.222 151.267V155.793C231.222 157.7 231.041 159.441 230.692 161H237.443Z" fill="#181E1E"/>
<path d="M265.098 161.439C266.143 161.439 267.323 161.348 268.625 161.151C269.927 160.939 270.926 160.712 271.607 160.44V156.065C270.911 156.504 270.063 156.868 269.079 157.14C268.08 157.428 267.126 157.564 266.203 157.564C264.311 157.564 262.812 157.17 261.723 156.398C260.618 155.626 260.073 154.567 260.073 153.25C260.073 151.933 260.603 150.889 261.662 150.117C262.722 149.345 264.129 148.966 265.87 148.966C266.793 148.966 267.702 149.087 268.61 149.33C269.518 149.587 270.229 149.89 270.759 150.238L271.017 146.06C270.396 145.772 269.473 145.545 268.247 145.349C267.021 145.152 265.991 145.061 265.159 145.061C261.692 145.061 258.938 145.954 257.272 147.453C255.607 148.966 254.745 150.949 254.745 153.25C254.745 155.551 255.592 157.534 257.242 159.032C258.877 160.546 261.632 161.439 265.098 161.439Z" fill="#181E1E"/>
<path d="M287.364 160.788C289.832 159.94 291.391 158.427 292.238 156.444C292.647 155.46 292.859 154.385 292.859 153.25C292.859 152.115 292.647 151.04 292.238 150.056C291.391 148.088 289.847 146.56 287.364 145.697C286.123 145.273 284.73 145.061 283.187 145.061C281.643 145.061 280.25 145.273 279.009 145.697C276.526 146.56 274.982 148.088 274.15 150.056C273.726 151.04 273.514 152.115 273.514 153.25C273.514 154.385 273.726 155.445 274.15 156.429C274.982 158.396 276.526 159.94 279.009 160.788C280.25 161.227 281.643 161.439 283.187 161.439C284.73 161.439 286.123 161.227 287.364 160.788ZM279.993 156.429C279.16 155.596 278.751 154.537 278.751 153.25C278.751 151.963 279.16 150.889 279.993 150.056C280.825 149.224 281.885 148.815 283.187 148.815C284.488 148.815 285.548 149.224 286.38 150.056C287.198 150.889 287.606 151.963 287.606 153.25C287.606 154.537 287.198 155.596 286.38 156.429C285.548 157.261 284.488 157.685 283.187 157.685C281.885 157.685 280.825 157.261 279.993 156.429Z" fill="#181E1E"/>
<path d="M303.243 161.439C306.346 161.439 308.45 160.001 309.57 157.125H309.918V157.746C309.918 159.062 309.706 160.137 309.267 161H316.109C315.73 159.29 315.534 157.367 315.534 155.233V150.707C315.534 148.936 315.73 147.21 316.109 145.5H309.358C309.54 146.03 309.676 146.847 309.782 147.967C309.873 149.087 309.918 150.086 309.918 150.949V153.25C309.918 154.385 309.524 155.369 308.722 156.217C307.92 157.08 306.906 157.503 305.695 157.503C303.273 157.503 301.88 155.99 301.88 153.492V151.025C301.88 148.951 302.077 147.104 302.471 145.5H295.72C296.068 147.059 296.25 149.087 296.25 151.57V154.461C296.25 156.656 296.855 158.366 298.081 159.592C299.292 160.818 301.018 161.439 303.243 161.439Z" fill="#181E1E"/>
<path d="M326.508 161C326.114 160.016 325.917 158.639 325.917 156.883V154.4C325.917 153.008 326.417 151.827 327.401 150.874C328.385 149.92 329.55 149.436 330.882 149.436C331.533 149.436 332.184 149.557 332.805 149.784C333.425 150.011 333.91 150.298 334.258 150.616V145.5C333.471 145.212 332.668 145.061 331.851 145.061C328.99 145.061 326.947 147.044 326.266 150.495H325.917V149.345C325.917 148.679 325.993 147.982 326.16 147.241C326.326 146.514 326.538 145.939 326.795 145.5H319.757C320.105 147.089 320.287 149.012 320.287 151.267V155.793C320.287 157.7 320.105 159.441 319.757 161H326.508Z" fill="#181E1E"/>
<path d="M345.55 161.439C346.867 161.439 348.335 161.076 349.198 160.591V156.202C348.698 156.61 347.729 156.913 346.746 156.913C344.763 156.913 343.567 155.854 343.567 153.719V147.892H349.046V145.5H343.567V139.294L338.314 140.702V145.5H335.196V147.892H338.314V155.672C338.314 160.046 341.539 161.439 345.55 161.439Z" fill="#181E1E"/>
<path d="M358.794 161.439C361.368 161.439 363.381 160.985 364.819 160.077C366.257 159.168 366.983 157.942 366.983 156.383C366.983 150.556 355.812 153.038 355.812 150.556C355.812 149.708 357.039 149.163 359.037 149.163C360.248 149.163 361.458 149.314 362.654 149.632C363.85 149.95 364.804 150.298 365.545 150.677V146.393C363.351 145.5 361.05 145.061 358.643 145.061C356.176 145.061 354.269 145.515 352.891 146.423C351.514 147.332 350.833 148.467 350.833 149.844C350.833 152.811 353.618 153.628 356.418 154.037C359.203 154.446 361.988 154.446 361.988 155.793C361.988 156.762 360.792 157.246 358.416 157.246C357.281 157.246 355.964 157.064 354.45 156.686C352.921 156.308 351.635 155.854 350.575 155.324V160.001C351.544 160.379 352.861 160.712 354.526 161.015C356.191 161.303 357.614 161.439 358.794 161.439Z" fill="#181E1E"/>
<path d="M45.1562 121.977C50.5859 121.977 55.625 120.219 59.4141 117.211C63.1641 114.242 65.5469 109.555 65.5469 104.125C65.5469 100.18 64.2578 97.0156 61.6797 94.6328C59.0625 92.25 55.5859 91.0781 51.25 91.0781H49.8047V90.375H51.5625C55.4297 90.375 58.5938 89.2812 61.0547 87.0547C63.5156 84.8281 64.7656 81.9766 64.7656 78.4219C64.7656 75.2188 63.9062 72.5234 62.1875 70.2969C58.7109 65.9219 52.9297 64.0469 45.3125 64.0469C39.5703 64.0469 34.4531 64.7109 29.9609 66.0391V78.0312C33.75 76.1953 37.9297 75.2578 42.5 75.2578C45.2734 75.2578 47.5391 75.7656 49.375 76.7422C51.2109 77.7188 52.1094 79.2422 52.1094 81.2344C52.1094 85.5703 48.8672 87.4062 42.5 87.4062H35.7031V94.2031H42.4219C48.6719 94.2031 52.4219 96.8984 52.4219 101.547C52.4219 104.242 51.4062 106.391 49.3359 107.953C47.2656 109.516 44.9219 110.297 42.2656 110.297C37.5 110.297 32.7734 109.047 28.125 106.586V119.242C33.3203 121.078 39.0234 121.977 45.1562 121.977Z" fill="#F4F1E1"/>
<path d="M105.156 121L106.25 105.57C103.906 107.328 100.273 108.188 95.3906 108.188H85.3125L85.1562 107.562L95.3125 95.0625C102.227 89.4375 105.312 84.6328 105.312 78.6953C105.312 74.2031 103.633 70.6484 100.312 67.9922C96.9922 65.375 92.6562 64.0469 87.3828 64.0469C84.2188 64.0469 81.3672 64.3984 78.7891 65.0625C76.1719 65.7266 73.2812 66.8203 70.1172 68.3438V82.1328C72.1875 80.4922 74.5312 79.2031 77.0703 78.2656C79.6094 77.3281 82.0312 76.8594 84.2578 76.8594C88.8281 76.8594 91.9531 78.8125 91.9531 82.1328C91.9531 83.4609 91.5625 84.8672 90.8203 86.3516C90.0781 87.875 88.75 89.8281 86.8359 92.2109L69.0625 110.844V121H105.156Z" fill="#F4F1E1"/>
<path d="M154.805 121C153.594 115.648 152.969 108.891 152.969 100.766V78.1875H157.109C160.82 78.1875 163.789 78.8125 166.055 80.1016L163.906 64.9844H128.633L126.484 80.1016C128.867 78.8125 131.836 78.1875 135.43 78.1875H139.844V100.766C139.844 108.891 139.219 115.648 138.008 121H154.805Z" fill="#F4F1E1"/>
<path d="M205.859 121L208.203 105.883C207.148 106.547 205.703 107.055 203.867 107.406C202.031 107.758 199.297 107.953 195.625 107.953H185.547V96.0391H194.023C197.461 96.0391 200.273 96.1562 202.5 96.4297V87.875C200.273 88.1484 197.461 88.2656 194.023 88.2656H185.547V78.0312H196.367C201.719 78.0312 205.117 78.5781 206.602 79.7109L204.57 64.9844H170.508C171.094 67.4453 171.562 70.5703 171.914 74.3203C172.266 78.1094 172.422 81.7422 172.422 85.2578V100.766C172.422 104.281 172.266 107.914 171.914 111.664C171.562 115.414 171.094 118.539 170.508 121H205.859Z" fill="#F4F1E1"/>
<path d="M226.055 121C225.977 117.367 226.445 112.758 227.461 107.172L228.047 105.141H240.039L240.508 107.172C241.602 112.68 242.109 117.289 242.031 121H258.828C256.445 115.492 254.336 108.773 252.5 100.766L248.203 85.2578C247.461 81.8594 246.875 78.2266 246.445 74.4375C245.977 70.6484 245.742 67.5234 245.781 64.9844H222.344C222.344 67.5625 222.109 70.7266 221.68 74.4766C221.211 78.2656 220.586 81.8594 219.805 85.2578L215.547 100.766C214.727 104.281 213.75 107.914 212.578 111.664C211.406 115.414 210.273 118.539 209.219 121H226.055ZM231.953 89.7891C232.383 88.0312 232.734 85.8828 232.93 84.5547C233.086 83.4219 233.438 80.375 233.633 79.2422H234.453C235.117 84.2812 235.664 87.7969 236.133 89.7891L238.516 97.7969H229.57L231.953 89.7891Z" fill="#F4F1E1"/>
<path d="M278.008 121C276.797 115.648 276.172 108.891 276.172 100.766V86.9375H276.797L287.305 114.203H291.055L301.523 86.9375H302.266V100.766C302.266 108.891 301.641 115.648 300.43 121H317.227C316.016 115.648 315.391 108.891 315.391 100.766V85.2578C315.391 77.0938 316.016 70.3359 317.227 64.9844H299.531L292.578 82.6016C291.133 86.6641 290.156 89.9844 289.688 92.6016H288.984C288.32 89.125 287.305 85.7656 286.016 82.6016L279.062 64.9844H261.211C262.422 70.3359 263.047 77.0938 263.047 85.2578V100.766C263.047 108.891 262.422 115.648 261.211 121H278.008Z" fill="#F4F1E1"/>
<path d="M341.133 121.977C345.078 121.977 348.633 121.43 351.719 120.258C357.93 117.992 361.953 113.109 361.953 106.508C361.953 102.328 360.352 98.7344 357.891 96.4688C355.43 94.2031 352.188 92.1719 348.945 90.8828C342.461 88.0703 335.898 86.3516 335.938 82.0547C335.938 80.5703 336.68 79.3984 338.203 78.5C339.727 77.6016 341.641 77.1719 343.945 77.1719C346.641 77.1719 349.297 77.6016 351.914 78.5C354.531 79.3984 356.68 80.6094 358.438 82.1328V67.3281C356.562 66.4297 354.219 65.6484 351.445 64.9844C348.672 64.3594 345.82 64.0469 342.969 64.0469C336.992 64.0469 332.07 65.4531 328.281 68.2266C324.492 71.0391 322.578 74.9062 322.578 79.7891C322.578 83.8906 324.219 87.4062 326.641 89.6719C329.062 91.9375 332.227 93.9688 335.469 95.2188C341.914 98.1094 348.359 99.8281 348.359 104.047C348.359 105.648 347.578 106.859 346.055 107.758C344.531 108.656 342.578 109.086 340.273 109.086C337.227 109.086 334.102 108.5 330.859 107.367C327.617 106.234 324.883 104.633 322.656 102.523L322.266 117.719C324.688 118.93 327.695 119.945 331.289 120.766C334.883 121.586 338.164 121.977 341.133 121.977Z" fill="#F4F1E1"/>
<path d="M35.9531 45C36.0234 43.8574 36.4102 42.2578 37.0957 40.1836L37.5703 39.0586H46.957L47.3965 40.1836C48.1172 42.3105 48.5039 43.9277 48.5566 45H56.502C55.6406 43.3477 54.6211 40.834 53.4434 37.4414L49.418 27.3516C48.6797 25.1543 48.2402 22.6406 48.082 19.793H36.4453C36.2871 22.5527 35.8125 25.084 35.0566 27.3516L31.0488 37.4414C30.0293 40.4473 29.0098 42.9609 27.9902 45H35.9531ZM40.9102 29.8477C41.1211 29.2676 41.5078 27.8789 42.0703 25.6641H42.4219C42.8965 27.6855 43.2832 29.0742 43.5469 29.8125L45.8145 35.209H38.6777L40.9102 29.8477Z" fill="#181E1E"/>
<path d="M65.8184 52.207C65.3613 49.8691 65.1328 47.3555 65.1328 44.6484V40.5H65.5723C66.1523 42.0293 67.084 43.2422 68.3848 44.1387C69.668 45.0527 71.25 45.5098 73.1309 45.5098C75.873 45.5098 78.123 44.4551 79.5293 42.7324C80.9355 41.0098 81.6914 38.6719 81.6914 36C81.6914 33.3457 80.9355 30.9902 79.5293 29.2676C78.123 27.5449 75.873 26.4902 73.1309 26.4902C71.2676 26.4902 69.6855 26.9473 68.4023 27.8789C67.1191 28.8105 66.1875 30.0234 65.6074 31.5H65.1328V30.7441C65.1328 29.6016 65.3613 28.3535 65.8184 27H57.9785C58.418 28.916 58.6289 31.4473 58.6289 34.5586V44.6484C58.6289 47.7598 58.418 50.291 57.9785 52.207H65.8184ZM70.3535 41.0801C68.877 41.0801 67.6641 40.5703 66.6973 39.5508C65.7305 38.5312 65.2559 37.3535 65.2559 36C65.2559 34.5586 65.7305 33.3633 66.6797 32.3965C67.6113 31.4297 68.8418 30.9551 70.3535 30.9551C71.9004 30.9551 73.166 31.4297 74.1328 32.3613C75.0996 33.3105 75.5742 34.5234 75.5742 36C75.5742 37.4941 75.0996 38.707 74.1328 39.6562C73.166 40.6055 71.918 41.0801 70.3535 41.0801Z" fill="#181E1E"/>
<path d="M92.5723 45C92.1152 43.8574 91.8867 42.2578 91.8867 40.2188V37.3359C91.8867 35.7188 92.4668 34.3477 93.6094 33.2402C94.752 32.1328 96.1055 31.5703 97.6523 31.5703C98.4082 31.5703 99.1641 31.7109 99.8848 31.9746C100.605 32.2383 101.168 32.5723 101.572 32.9414V27C100.658 26.666 99.7266 26.4902 98.7773 26.4902C95.4551 26.4902 93.082 28.793 92.291 32.8008H91.8867V31.4648C91.8867 30.6914 91.9746 29.8828 92.168 29.0215C92.3613 28.1777 92.6074 27.5098 92.9062 27H84.7324C85.1367 28.8457 85.3477 31.0781 85.3477 33.6973V38.9531C85.3477 41.168 85.1367 43.1895 84.7324 45H92.5723Z" fill="#181E1E"/>
<path d="M107.953 25.0488C109.061 25.0488 109.922 24.75 110.572 24.1348C111.223 23.5371 111.539 22.7812 111.539 21.8496C111.539 20.918 111.223 20.1445 110.572 19.5293C109.922 18.9141 109.061 18.6152 107.953 18.6152C106.881 18.6152 106.02 18.9141 105.369 19.5293C104.719 20.1445 104.385 20.918 104.385 21.8496C104.385 22.7637 104.719 23.5195 105.369 24.1348C106.02 24.75 106.881 25.0488 107.953 25.0488ZM111.943 45C111.486 43.2422 111.258 40.7285 111.258 37.4414V30.6738C111.258 29.1445 111.346 27.9316 111.504 27C110.73 27.5449 109.588 27.8086 108.059 27.8086C106.529 27.8086 105.334 27.5449 104.455 27C104.613 27.7383 104.701 28.9688 104.701 30.6738V37.4414C104.701 40.7285 104.473 43.2422 104.016 45H111.943Z" fill="#181E1E"/>
<path d="M123.686 45C123.229 42.9785 123 40.4473 123 37.4414V27.3516C123 24.3457 123.229 21.8145 123.686 19.793H115.846C116.285 21.709 116.496 24.2402 116.496 27.3516V37.4414C116.496 40.5527 116.285 43.084 115.846 45H123.686Z" fill="#181E1E"/>
<path d="M148.049 45.5098C154.816 45.5801 159.826 42.3633 159.721 38.1973C159.721 37.1426 159.352 36.1758 158.631 35.2793C157.154 33.5039 154.764 32.4316 151.951 32.0098V31.6758C153.217 31.5 154.342 31.1836 155.344 30.7266C157.33 29.8125 158.719 28.125 158.719 26.0332C158.719 24.0469 157.787 22.4297 155.906 21.1816C154.025 19.9336 151.406 19.3008 148.049 19.3008C144.691 19.3008 142.072 19.916 140.191 21.1641C138.311 22.4121 137.361 24.0469 137.361 26.0332C137.361 27.0703 137.678 28.002 138.311 28.8105C139.559 30.4453 141.598 31.3242 144.129 31.6758V32.0098C142.723 32.2207 141.439 32.5898 140.297 33.1348C139.137 33.6797 138.188 34.3828 137.467 35.2793C136.729 36.1758 136.359 37.1426 136.359 38.1973C136.359 40.3242 137.449 42.0645 139.629 43.4355C141.809 44.8242 144.621 45.5098 148.049 45.5098ZM144.709 29.7422C143.812 29.1973 143.373 28.5117 143.373 27.6855C143.373 26.8945 143.812 26.2266 144.691 25.7168C145.553 25.207 146.678 24.9434 148.049 24.9434C149.402 24.9434 150.527 25.207 151.424 25.7168C152.303 26.2441 152.742 26.8945 152.742 27.6855C152.742 28.5117 152.303 29.1973 151.406 29.7422C150.51 30.2871 149.402 30.5684 148.049 30.5684C146.695 30.5684 145.588 30.2871 144.709 29.7422ZM148.049 39.6738C146.432 39.6738 145.148 39.3926 144.217 38.8125C143.268 38.25 142.793 37.5293 142.793 36.6504C142.793 35.7539 143.285 34.9805 144.27 34.3652C145.236 33.75 146.502 33.4512 148.049 33.4512C149.596 33.4512 150.861 33.75 151.828 34.3652C152.795 34.9805 153.27 35.7539 153.27 36.6504C153.27 37.5293 152.795 38.25 151.863 38.8125C150.932 39.3926 149.648 39.6738 148.049 39.6738Z" fill="#181E1E"/>
<path d="M170.795 38.127V34.4531H162.146V38.127H170.795Z" fill="#181E1E"/>
<path d="M182.379 45.5098C186.475 45.5098 189.885 43.998 192.012 41.502C194.139 39.0059 195.334 35.5781 195.334 31.6406C195.334 27.791 194.35 24.7676 192.363 22.5703C190.377 20.3906 187.512 19.3008 183.785 19.3008C180.674 19.3008 178.125 20.127 176.104 21.7969C174.082 23.4668 173.062 25.6113 173.062 28.2305C173.062 29.7598 173.467 31.0957 174.293 32.2383C175.91 34.5059 178.635 35.5957 181.869 35.5957C183.311 35.5957 184.664 35.2441 185.912 34.5234C187.16 33.8027 188.109 32.9062 188.76 31.8164H189.041C189.059 34.1543 188.32 36.123 186.826 37.7051C185.332 39.3047 183.486 40.0957 181.307 40.0957C180.234 40.0957 179.004 39.8848 177.65 39.4453C176.297 39.0059 175.295 38.4609 174.645 37.793L175.295 44.3145C177.527 45.1055 179.883 45.5098 182.379 45.5098ZM184.102 32.0449C182.643 32.0449 181.482 31.6934 180.604 30.9902C179.725 30.2871 179.285 29.4082 179.285 28.3359C179.285 27.3164 179.725 26.4375 180.621 25.6816C181.518 24.9258 182.643 24.5566 183.996 24.5566C185.367 24.5566 186.51 24.9258 187.441 25.6816C188.373 26.4375 188.83 27.334 188.83 28.3711C188.83 29.373 188.373 30.2344 187.477 30.9551C186.562 31.6758 185.438 32.0449 184.102 32.0449Z" fill="#181E1E"/>
<path d="M209.115 45.5098C210.645 45.5098 212.35 45.0879 213.352 44.5254V39.4277C212.771 39.9023 211.646 40.2539 210.504 40.2539C208.201 40.2539 206.812 39.0234 206.812 36.5449V29.7773H213.176V27H206.812V19.793L200.713 21.4277V27H197.092V29.7773H200.713V38.8125C200.713 43.8926 204.457 45.5098 209.115 45.5098Z" fill="#181E1E"/>
<path d="M224.021 45C223.775 44.3848 223.6 43.4531 223.494 42.1875C223.389 40.9395 223.336 39.7617 223.336 38.6719L223.301 36C223.301 34.6816 223.775 33.5215 224.725 32.5371C225.656 31.5527 226.852 31.0605 228.275 31.0605C231.035 31.0605 232.67 32.8535 232.67 35.7539V38.584C232.67 40.834 232.441 42.9785 231.984 45H239.824C239.402 43.1191 239.191 40.7812 239.191 37.9512V34.6289C239.191 32.0801 238.488 30.0938 237.082 28.6523C235.676 27.2109 233.672 26.4902 231.088 26.4902C227.449 26.4902 225.006 28.1777 223.74 31.5352H223.336V27.3516C223.336 24.1699 223.564 21.6562 224.021 19.793H216.146C216.586 21.5684 216.797 24.082 216.797 27.3516V37.4414C216.797 40.7109 216.586 43.2246 216.146 45H224.021Z" fill="#181E1E"/>
<path d="M245.854 49.9043C248.051 48.3047 249.422 45.9316 249.422 43.3828C249.422 42.293 249.123 41.4316 248.543 40.7988C247.945 40.166 247.225 39.8496 246.363 39.8496C245.625 39.8496 244.992 40.1133 244.465 40.6406C243.92 41.168 243.656 41.8008 243.656 42.5566C243.656 44.0156 244.676 45.0352 245.994 45.0352C246.188 45.0352 246.592 44.9648 246.645 44.9648C246.521 45.5625 246.205 46.1953 245.66 46.8457C245.115 47.4961 244.553 48.0059 243.955 48.3398L245.854 49.9043Z" fill="#181E1E"/>
<path d="M282.996 45L283.154 37.0723C282.152 38.0742 280.271 38.7422 277.898 38.7422H270.041L269.971 38.373L276.123 34.5234C280.605 32.0625 282.645 29.6719 282.645 26.5957C282.645 24.4336 281.713 22.6758 279.832 21.3223C277.951 19.9688 275.561 19.3008 272.643 19.3008C270.621 19.3008 268.846 19.5117 267.316 19.9512C265.77 20.3906 264.029 21.0938 262.078 22.0605V28.916C263.309 27.8789 264.732 27.0527 266.367 26.4375C267.984 25.8223 269.549 25.5234 271.078 25.5234C272.537 25.5234 273.715 25.752 274.629 26.1914C275.525 26.6484 275.982 27.3164 275.982 28.1953C275.982 28.8105 275.754 29.4258 275.297 30.041C274.84 30.6562 273.961 31.4297 272.678 32.3613L261.41 39.8496V45H282.996Z" fill="#181E1E"/>
<path d="M298.781 45.5098C302.244 45.5098 305.285 44.3145 307.535 42.1348C309.785 39.9727 311.139 36.5449 311.139 32.3965C311.139 28.248 309.785 24.8027 307.535 22.6406C305.285 20.4785 302.244 19.3008 298.781 19.3008C295.336 19.3008 292.312 20.4785 290.08 22.6406C287.83 24.8027 286.477 28.248 286.477 32.3965C286.477 36.5449 287.83 39.9727 290.08 42.1348C292.312 44.3145 295.336 45.5098 298.781 45.5098ZM298.781 39.2695C296.479 39.2695 294.615 38.6719 293.174 37.4941C291.732 36.3164 291.012 34.6113 291.012 32.3965C291.012 30.1992 291.732 28.4941 293.174 27.3164C294.615 26.1387 296.479 25.5586 298.781 25.5586C301.102 25.5586 302.982 26.1387 304.441 27.3164C305.883 28.4941 306.604 30.1992 306.604 32.3965C306.604 34.6113 305.883 36.3164 304.441 37.4941C302.982 38.6719 301.102 39.2695 298.781 39.2695Z" fill="#181E1E"/>
<path d="M335.238 45L335.396 37.0723C334.395 38.0742 332.514 38.7422 330.141 38.7422H322.283L322.213 38.373L328.365 34.5234C332.848 32.0625 334.887 29.6719 334.887 26.5957C334.887 24.4336 333.955 22.6758 332.074 21.3223C330.193 19.9688 327.803 19.3008 324.885 19.3008C322.863 19.3008 321.088 19.5117 319.559 19.9512C318.012 20.3906 316.271 21.0938 314.32 22.0605V28.916C315.551 27.8789 316.975 27.0527 318.609 26.4375C320.227 25.8223 321.791 25.5234 323.32 25.5234C324.779 25.5234 325.957 25.752 326.871 26.1914C327.768 26.6484 328.225 27.3164 328.225 28.1953C328.225 28.8105 327.996 29.4258 327.539 30.041C327.082 30.6562 326.203 31.4297 324.92 32.3613L313.652 39.8496V45H335.238Z" fill="#181E1E"/>
<path d="M348.967 45.5098C351.727 45.5098 354.434 44.7891 356.596 43.5059C358.758 42.2227 360.164 40.0957 360.164 37.6172C360.164 35.8418 359.479 34.4707 358.09 33.5039C356.701 32.5547 354.838 32.0801 352.5 32.0801H351.568V31.7109H352.641C354.715 31.7109 356.42 31.2012 357.756 30.1992C359.074 29.1973 359.742 27.8438 359.742 26.1738C359.742 24.6445 359.25 23.3613 358.266 22.3066C356.279 20.2148 352.992 19.3008 348.791 19.3008C345.293 19.3008 342.199 19.7051 339.51 20.5137V26.4551C340.564 25.9453 341.795 25.541 343.219 25.2422C344.643 24.9434 345.979 24.8027 347.244 24.8027C350.373 24.8027 353.432 25.4883 353.432 27.3516C353.432 29.127 351.832 29.7773 348.299 29.7773H343.219V33.8027H348.299C351.902 33.8027 353.695 34.7344 353.695 36.5801C353.695 37.7578 352.799 38.6719 351.516 39.1641C350.232 39.6738 348.791 39.9199 347.385 39.9199C345.82 39.9199 344.238 39.709 342.604 39.2695C340.969 38.8477 339.492 38.2676 338.209 37.5117V43.6992C341.602 44.9121 345.188 45.5098 348.967 45.5098Z" fill="#181E1E"/>
</svg>
