<svg width="225" height="16" viewBox="0 0 225 16" fill="none" xmlns="http://www.w3.org/2000/svg">
<path d="M3.32031 12C3.32031 11.3984 3.4375 10.5938 3.67188 9.60156L3.83594 8.99219H6.9375L7.10938 9.58594C7.32812 10.5156 7.44531 11.3203 7.46094 12H10.2031C9.78906 11.0938 9.41406 9.97656 9.0625 8.64062L7.73438 4.15625C7.44531 3.0625 7.29688 1.94531 7.27344 0.796875H3.51562C3.49219 1.89062 3.33594 3.00781 3.03125 4.15625L1.70312 8.64062C1.35156 9.97656 0.976562 11.0938 0.570312 12H3.32031ZM4.9375 5.17188C5.03125 4.83594 5.11719 4.4375 5.15625 4.21094C5.17188 4.10156 5.19531 3.9375 5.23438 3.71094C5.27344 3.48438 5.29688 3.32031 5.32031 3.21875H5.44531C5.60938 4.14844 5.74219 4.80469 5.83594 5.17188L6.57031 7.48438H4.20312L4.9375 5.17188Z" fill="#E0B968"/>
<path d="M13.5078 12C13.4141 11.7109 13.3438 11.2969 13.2969 10.7578C13.2422 10.2188 13.2188 9.71094 13.2188 9.23438V7.74219C13.2188 7.14062 13.375 6.625 13.6953 6.19531C14.0156 5.76562 14.4141 5.55469 14.8984 5.55469C15.8438 5.55469 16.3594 6.27344 16.3594 7.55469V9.21875C16.3594 10.3047 16.2656 11.2266 16.0703 12H18.7422C18.5469 11.2891 18.4531 10.3125 18.4531 9.07031V7.08594C18.4531 4.92969 17.4844 3.80469 15.7969 3.80469C14.5625 3.80469 13.75 4.46875 13.3516 5.80469H13.2188V5.60156C13.2188 4.95312 13.3125 4.42188 13.5078 4H10.8516C11.0469 4.77344 11.1406 5.71875 11.1406 6.85156V9.29688C11.1406 10.3281 11.0469 11.2266 10.8516 12H13.5078Z" fill="#E0B968"/>
<path d="M24.8516 2.70312C25.5703 2.70312 26.0703 2.21094 26.0703 1.55469C26.0703 1.22656 25.9609 0.953125 25.7344 0.726562C25.5078 0.507812 25.2109 0.398438 24.8516 0.398438C24.5 0.398438 24.2109 0.507812 23.9922 0.726562C23.7656 0.953125 23.6562 1.22656 23.6562 1.55469C23.6562 2.21094 24.1406 2.70312 24.8516 2.70312ZM26.1953 12C26 11.2891 25.9062 10.2812 25.9062 8.96094V6.17969C25.9062 5.07812 25.9375 4.35156 26.0078 4C25.7188 4.13281 25.3438 4.20312 24.8828 4.20312C24.4219 4.20312 24.0312 4.13281 23.7188 4C23.7812 4.25781 23.8125 4.98438 23.8125 6.17969V8.96094C23.8125 10.2812 23.7188 11.2891 23.5234 12H26.1953Z" fill="#E0B968"/>
<path d="M30.3047 12C30.2109 11.7109 30.1406 11.2969 30.0938 10.7578C30.0391 10.2188 30.0156 9.71094 30.0156 9.23438V7.74219C30.0156 7.14062 30.1719 6.625 30.4922 6.19531C30.8125 5.76562 31.2109 5.55469 31.6953 5.55469C32.6406 5.55469 33.1562 6.27344 33.1562 7.55469V9.21875C33.1562 10.3047 33.0625 11.2266 32.8672 12H35.5391C35.3438 11.2891 35.25 10.3125 35.25 9.07031V7.08594C35.25 4.92969 34.2812 3.80469 32.5938 3.80469C31.3594 3.80469 30.5469 4.46875 30.1484 5.80469H30.0156V5.60156C30.0156 4.95312 30.1094 4.42188 30.3047 4H27.6484C27.8438 4.77344 27.9375 5.71875 27.9375 6.85156V9.29688C27.9375 10.3281 27.8438 11.2266 27.6484 12H30.3047Z" fill="#E0B968"/>
<path d="M39.5078 12.1953C40.6953 12.1953 41.5391 11.4062 41.9375 10.125H42.0859V10.3828C42.0859 10.9844 42 11.5234 41.8281 12H44.4531C44.2578 11.1484 44.1641 10.0312 44.1641 8.65625V4.14062C44.1641 2.76562 44.2578 1.64844 44.4531 0.796875H41.7969C41.9922 1.64844 42.0859 2.76562 42.0859 4.14062V5.84375H41.9375C41.5625 4.5625 40.6797 3.80469 39.4922 3.80469C38.6094 3.80469 37.9141 4.17969 37.4062 4.9375C36.8984 5.69531 36.6406 6.71875 36.6406 8C36.6406 9.28125 36.8984 10.2969 37.4062 11.0547C37.9141 11.8125 38.6172 12.1953 39.5078 12.1953ZM40.3672 10.4766C39.8359 10.4766 39.4141 10.25 39.1016 9.78906C38.7812 9.33594 38.625 8.74219 38.625 8C38.625 7.25781 38.7812 6.65625 39.1016 6.20312C39.4141 5.75 39.8359 5.52344 40.3672 5.52344C40.8906 5.52344 41.2969 5.75781 41.5938 6.21875C41.8828 6.6875 42.0312 7.28125 42.0312 8C42.0312 8.67969 41.8828 9.26562 41.5781 9.75C41.2734 10.2344 40.875 10.4766 40.3672 10.4766Z" fill="#E0B968"/>
<path d="M51.9375 11.0703C52.5859 10.3203 52.9062 9.29688 52.9062 8C52.9062 6.71094 52.5859 5.6875 51.9375 4.92969C51.2891 4.17969 50.3906 3.80469 49.2578 3.80469C48.125 3.80469 47.2344 4.17969 46.5859 4.9375C45.9375 5.69531 45.6094 6.71094 45.6094 8C45.6094 9.29688 45.9297 10.3203 46.5781 11.0703C47.2266 11.8203 48.1172 12.1953 49.2578 12.1953C50.3984 12.1953 51.2891 11.8203 51.9375 11.0703ZM48.0469 9.90625C47.7422 9.42969 47.5938 8.79688 47.5938 8C47.5938 7.19531 47.7422 6.55469 48.0469 6.07812C48.3516 5.60938 48.75 5.375 49.2578 5.375C49.7656 5.375 50.1719 5.60938 50.4766 6.08594C50.7812 6.5625 50.9375 7.19531 50.9375 8C50.9375 8.79688 50.7812 9.42969 50.4766 9.90625C50.1719 10.3828 49.7656 10.625 49.2578 10.625C48.75 10.625 48.3516 10.3828 48.0469 9.90625Z" fill="#E0B968"/>
<path d="M60.25 11.0703C60.8984 10.3203 61.2188 9.29688 61.2188 8C61.2188 6.71094 60.8984 5.6875 60.25 4.92969C59.6016 4.17969 58.7031 3.80469 57.5703 3.80469C56.4375 3.80469 55.5469 4.17969 54.8984 4.9375C54.25 5.69531 53.9219 6.71094 53.9219 8C53.9219 9.29688 54.2422 10.3203 54.8906 11.0703C55.5391 11.8203 56.4297 12.1953 57.5703 12.1953C58.7109 12.1953 59.6016 11.8203 60.25 11.0703ZM56.3594 9.90625C56.0547 9.42969 55.9062 8.79688 55.9062 8C55.9062 7.19531 56.0547 6.55469 56.3594 6.07812C56.6641 5.60938 57.0625 5.375 57.5703 5.375C58.0781 5.375 58.4844 5.60938 58.7891 6.08594C59.0938 6.5625 59.25 7.19531 59.25 8C59.25 8.79688 59.0938 9.42969 58.7891 9.90625C58.4844 10.3828 58.0781 10.625 57.5703 10.625C57.0625 10.625 56.6641 10.3828 56.3594 9.90625Z" fill="#E0B968"/>
<path d="M65.0547 12C64.8594 11.4297 64.7656 10.6406 64.7656 9.63281V8.25781C64.7656 7.48438 64.9609 6.85938 65.3594 6.36719C65.75 5.875 66.2422 5.63281 66.8359 5.63281C67.3047 5.63281 67.7734 5.82812 68.0312 6.07812V3.98438C67.7656 3.86719 67.4609 3.80469 67.1172 3.80469C66.5625 3.80469 66.0859 4.02344 65.6875 4.45312C65.2812 4.88281 65.0156 5.46875 64.8984 6.21094H64.7656V5.77344C64.7656 5.01562 64.875 4.42969 65.1016 4H62.3984C62.5781 4.72656 62.6719 5.67969 62.6719 6.85156V9.29688C62.6719 10.3672 62.5781 11.2734 62.3984 12H65.0547Z" fill="#E0B968"/>
<path d="M77.3438 12.1953C78.2266 12.1953 78.9297 11.8125 79.4375 11.0547C79.9453 10.2969 80.1953 9.28125 80.1953 8C80.1953 6.71094 79.9453 5.69531 79.4453 4.9375C78.9375 4.17969 78.2422 3.80469 77.3594 3.80469C76.1719 3.80469 75.2891 4.5625 74.9141 5.84375H74.7656V4.14062C74.7656 2.76562 74.8594 1.64844 75.0547 0.796875H72.3984C72.5938 1.64844 72.6875 2.76562 72.6875 4.14062V8.65625C72.6875 10.0312 72.5938 11.1484 72.3984 12H75.0234C74.8516 11.5547 74.7656 11.0156 74.7656 10.3828V10.125H74.9141C75.3125 11.4062 76.1562 12.1953 77.3438 12.1953ZM76.5 10.4766C75.9844 10.4766 75.5781 10.2344 75.2734 9.75C74.9688 9.26562 74.8203 8.67969 74.8203 8C74.8203 7.27344 74.9688 6.67969 75.2656 6.21875C75.5547 5.75781 75.9688 5.52344 76.5 5.52344C77.0234 5.52344 77.4453 5.75 77.7578 6.20312C78.0703 6.65625 78.2266 7.25781 78.2266 8C78.2266 8.74219 78.0703 9.33594 77.7578 9.78906C77.4453 10.25 77.0234 10.4766 76.5 10.4766Z" fill="#E0B968"/>
<path d="M82.6328 2.70312C83.3516 2.70312 83.8516 2.21094 83.8516 1.55469C83.8516 1.22656 83.7422 0.953125 83.5156 0.726562C83.2891 0.507812 82.9922 0.398438 82.6328 0.398438C82.2812 0.398438 81.9922 0.507812 81.7734 0.726562C81.5469 0.953125 81.4375 1.22656 81.4375 1.55469C81.4375 2.21094 81.9219 2.70312 82.6328 2.70312ZM83.9766 12C83.7812 11.2891 83.6875 10.2812 83.6875 8.96094V6.17969C83.6875 5.07812 83.7188 4.35156 83.7891 4C83.5 4.13281 83.125 4.20312 82.6641 4.20312C82.2031 4.20312 81.8125 4.13281 81.5 4C81.5625 4.25781 81.5938 4.98438 81.5938 6.17969V8.96094C81.5938 10.2812 81.5 11.2891 81.3047 12H83.9766Z" fill="#E0B968"/>
<path d="M92.1016 12.2266C92.6641 12.2266 93.1875 11.9688 93.4297 11.5703L93.3828 9.39062C93.1719 9.88281 92.8281 10.125 92.3594 10.125C91.2812 10.125 91.6953 7.84375 89.8672 7.84375V7.69531H89.9453C90.8281 7.73438 91.5312 7.57812 92.0547 7.21875C92.5781 6.86719 92.8359 6.35938 92.8359 5.71094C92.8359 4.5 92.0625 3.80469 90.6172 3.80469C89.125 3.80469 88.2031 4.66406 87.8828 6H87.7969V4.14062C87.7969 2.83594 87.8906 1.72656 88.0703 0.796875H85.4297C85.625 1.64844 85.7188 2.76562 85.7188 4.14062V8.65625C85.7188 10.0312 85.625 11.1484 85.4297 12H88.0703C87.8906 11.1094 87.7969 10.1562 87.7969 9.13281V8.33594C87.9375 8.28125 88.1484 8.25781 88.4219 8.25781C89.3594 8.25781 89.6953 8.99219 89.9531 9.82031C90.1328 10.3828 90.3125 10.9688 90.5938 11.4375C90.8672 11.9062 91.3828 12.2266 92.1016 12.2266ZM87.8281 7.25C87.8516 6.72656 88.0391 6.29688 88.3984 5.94531C88.75 5.59375 89.1641 5.42188 89.625 5.42188C90.2578 5.42188 90.6484 5.72656 90.6484 6.25781C90.6484 6.89062 90.0859 7.25 89.3047 7.25H87.8281Z" fill="#E0B968"/>
<path d="M97.8438 12.1953C98.9297 12.1953 99.9688 11.9609 100.594 11.5234L100.516 9.78906C99.9922 10.3438 99.2422 10.625 98.2734 10.625C97.5938 10.625 97.0234 10.4141 96.5469 9.98438C96.0703 9.55469 95.8203 9 95.7812 8.32031L95.8594 8.28906C96.5 8.79688 97.2812 9.05469 98.1953 9.05469C98.9922 9.05469 99.625 8.83594 100.094 8.40625C100.555 7.97656 100.789 7.39062 100.789 6.65625C100.789 4.86719 99.6875 3.80469 97.5391 3.80469C96.4375 3.80469 95.5547 4.1875 94.8828 4.94531C94.2109 5.70312 93.875 6.71094 93.875 7.96875C93.875 9.27344 94.2422 10.3047 94.9688 11.0625C95.6953 11.8203 96.6562 12.1953 97.8438 12.1953ZM97.4609 8.0625C96.7734 8.0625 96.1641 7.78906 95.8125 7.3125C95.875 6.6875 96.0625 6.19531 96.3672 5.83594C96.6719 5.47656 97.0312 5.29688 97.4297 5.29688C98.3125 5.29688 98.8672 5.82031 98.8672 6.71875C98.8594 7.11719 98.7188 7.44531 98.4453 7.6875C98.1641 7.9375 97.8359 8.0625 97.4609 8.0625Z" fill="#E0B968"/>
<path d="M107.961 15.2031C107.766 14.3516 107.672 13.2344 107.672 11.8594V10.1562H107.82C108.195 11.4375 109.062 12.1953 110.25 12.1953C111.148 12.1953 111.852 11.8203 112.359 11.0625C112.867 10.3047 113.117 9.28906 113.117 8C113.117 6.71875 112.859 5.69531 112.352 4.9375C111.844 4.17969 111.141 3.80469 110.25 3.80469C109.062 3.80469 108.219 4.59375 107.82 5.875H107.672V5.61719C107.672 5.01562 107.758 4.47656 107.93 4H105.305C105.5 4.85156 105.594 5.96875 105.594 7.34375V11.8594C105.594 13.2344 105.5 14.3516 105.305 15.2031H107.961ZM109.406 10.4766C108.891 10.4766 108.484 10.2344 108.18 9.75C107.875 9.27344 107.727 8.6875 107.727 8C107.727 7.28125 107.875 6.6875 108.172 6.21875C108.461 5.75781 108.875 5.52344 109.406 5.52344C109.93 5.52344 110.352 5.75 110.664 6.20312C110.977 6.65625 111.133 7.25781 111.133 8C111.133 8.74219 110.977 9.34375 110.664 9.79688C110.352 10.25 109.93 10.4766 109.406 10.4766Z" fill="#E0B968"/>
<path d="M120.406 11.0703C121.055 10.3203 121.375 9.29688 121.375 8C121.375 6.71094 121.055 5.6875 120.406 4.92969C119.758 4.17969 118.859 3.80469 117.727 3.80469C116.594 3.80469 115.703 4.17969 115.055 4.9375C114.406 5.69531 114.078 6.71094 114.078 8C114.078 9.29688 114.398 10.3203 115.047 11.0703C115.695 11.8203 116.586 12.1953 117.727 12.1953C118.867 12.1953 119.758 11.8203 120.406 11.0703ZM116.516 9.90625C116.211 9.42969 116.062 8.79688 116.062 8C116.062 7.19531 116.211 6.55469 116.516 6.07812C116.82 5.60938 117.219 5.375 117.727 5.375C118.234 5.375 118.641 5.60938 118.945 6.08594C119.25 6.5625 119.406 7.19531 119.406 8C119.406 8.79688 119.25 9.42969 118.945 9.90625C118.641 10.3828 118.234 10.625 117.727 10.625C117.219 10.625 116.82 10.3828 116.516 9.90625Z" fill="#E0B968"/>
<path d="M125.227 12C125.031 11.1484 124.938 10.0312 124.938 8.65625V4.14062C124.938 2.76562 125.031 1.64844 125.227 0.796875H122.57C122.766 1.64844 122.859 2.76562 122.859 4.14062V8.65625C122.859 10.0312 122.766 11.1484 122.57 12H125.227Z" fill="#E0B968"/>
<path d="M132.75 11.0703C133.398 10.3203 133.719 9.29688 133.719 8C133.719 6.71094 133.398 5.6875 132.75 4.92969C132.102 4.17969 131.203 3.80469 130.07 3.80469C128.938 3.80469 128.047 4.17969 127.398 4.9375C126.75 5.69531 126.422 6.71094 126.422 8C126.422 9.29688 126.742 10.3203 127.391 11.0703C128.039 11.8203 128.93 12.1953 130.07 12.1953C131.211 12.1953 132.102 11.8203 132.75 11.0703ZM128.859 9.90625C128.555 9.42969 128.406 8.79688 128.406 8C128.406 7.19531 128.555 6.55469 128.859 6.07812C129.164 5.60938 129.562 5.375 130.07 5.375C130.578 5.375 130.984 5.60938 131.289 6.08594C131.594 6.5625 131.75 7.19531 131.75 8C131.75 8.79688 131.594 9.42969 131.289 9.90625C130.984 10.3828 130.578 10.625 130.07 10.625C129.562 10.625 129.164 10.3828 128.859 9.90625Z" fill="#E0B968"/>
<path d="M141.617 12.1953C142.094 12.1953 142.523 12.1094 142.898 11.9375V10.1953C142.688 10.3438 142.406 10.4141 142.055 10.4141C141.305 10.4141 140.852 9.97656 140.852 9.10156V5.13281H142.836V4H140.852V0.898438L138.883 1.61719V4H137.688V5.13281H138.883V9.71094C138.883 10.5703 139.125 11.1953 139.617 11.5938C140.109 11.9922 140.773 12.1953 141.617 12.1953Z" fill="#E0B968"/>
<path d="M149.922 11.0703C150.57 10.3203 150.891 9.29688 150.891 8C150.891 6.71094 150.57 5.6875 149.922 4.92969C149.273 4.17969 148.375 3.80469 147.242 3.80469C146.109 3.80469 145.219 4.17969 144.57 4.9375C143.922 5.69531 143.594 6.71094 143.594 8C143.594 9.29688 143.914 10.3203 144.562 11.0703C145.211 11.8203 146.102 12.1953 147.242 12.1953C148.383 12.1953 149.273 11.8203 149.922 11.0703ZM146.031 9.90625C145.727 9.42969 145.578 8.79688 145.578 8C145.578 7.19531 145.727 6.55469 146.031 6.07812C146.336 5.60938 146.734 5.375 147.242 5.375C147.75 5.375 148.156 5.60938 148.461 6.08594C148.766 6.5625 148.922 7.19531 148.922 8C148.922 8.79688 148.766 9.42969 148.461 9.90625C148.156 10.3828 147.75 10.625 147.242 10.625C146.734 10.625 146.336 10.3828 146.031 9.90625Z" fill="#E0B968"/>
<path d="M154.984 12.1953C156.195 12.1953 157.031 11.4844 157.414 10.1953H157.547V10.3984C157.547 11.0469 157.453 11.5781 157.258 12H159.93C159.727 11.25 159.625 10.2969 159.625 9.14844V6.70312C159.625 5.64844 159.727 4.75 159.93 4H157.258C157.344 4.28906 157.414 4.70312 157.469 5.24219C157.523 5.78125 157.547 6.28906 157.547 6.76562V8.25781C157.547 8.85938 157.391 9.375 157.07 9.80469C156.75 10.2344 156.352 10.4453 155.867 10.4453C154.93 10.4453 154.406 9.73438 154.406 8.46094V6.78125C154.406 5.69531 154.5 4.77344 154.695 4H152.039C152.219 4.72656 152.312 5.70312 152.312 6.92969V8.92969C152.312 11.0859 153.273 12.1953 154.984 12.1953Z" fill="#E0B968"/>
<path d="M164.07 12C163.875 11.4297 163.781 10.6406 163.781 9.63281V8.25781C163.781 7.48438 163.977 6.85938 164.375 6.36719C164.766 5.875 165.258 5.63281 165.852 5.63281C166.32 5.63281 166.789 5.82812 167.047 6.07812V3.98438C166.781 3.86719 166.477 3.80469 166.133 3.80469C165.578 3.80469 165.102 4.02344 164.703 4.45312C164.297 4.88281 164.031 5.46875 163.914 6.21094H163.781V5.77344C163.781 5.01562 163.891 4.42969 164.117 4H161.414C161.594 4.72656 161.688 5.67969 161.688 6.85156V9.29688C161.688 10.3672 161.594 11.2734 161.414 12H164.07Z" fill="#E0B968"/>
<path d="M170.711 12C170.617 11.7109 170.547 11.2969 170.5 10.7578C170.445 10.2188 170.422 9.71094 170.422 9.23438V7.74219C170.422 7.14062 170.578 6.625 170.898 6.19531C171.219 5.76562 171.617 5.55469 172.102 5.55469C173.047 5.55469 173.562 6.27344 173.562 7.55469V9.21875C173.562 10.3047 173.469 11.2266 173.273 12H175.945C175.75 11.2891 175.656 10.3125 175.656 9.07031V7.08594C175.656 4.92969 174.688 3.80469 173 3.80469C171.766 3.80469 170.953 4.46875 170.555 5.80469H170.422V5.60156C170.422 4.95312 170.516 4.42188 170.711 4H168.055C168.25 4.77344 168.344 5.71875 168.344 6.85156V9.29688C168.344 10.3281 168.25 11.2266 168.055 12H170.711Z" fill="#E0B968"/>
<path d="M179.562 12.1953C180.688 12.1953 181.516 11.625 181.836 10.6875H181.961V10.7969C181.961 11.2891 181.891 11.6953 181.75 12H184.266C184.062 11.3672 183.961 10.3906 183.961 9.05469V6.625C183.961 5.61719 183.578 4.85938 182.922 4.42969C182.266 4 181.453 3.80469 180.453 3.80469C179.992 3.80469 179.516 3.85156 179.023 3.9375C178.531 4.03125 178.141 4.14062 177.867 4.27344V5.89062C178.078 5.71094 178.383 5.5625 178.781 5.4375C179.18 5.3125 179.594 5.25 180.039 5.25C181.227 5.25 181.961 5.82812 181.961 6.96094V8.07812H181.797C181.484 7.17188 180.68 6.59375 179.562 6.59375C178.781 6.59375 178.164 6.85156 177.711 7.35938C177.258 7.86719 177.031 8.55469 177.031 9.40625C177.031 10.2578 177.258 10.9297 177.711 11.4375C178.156 11.9453 178.773 12.1953 179.562 12.1953ZM180.453 10.7656C179.57 10.7656 179.016 10.2109 179.016 9.34375C179.016 8.5 179.57 7.9375 180.453 7.9375C180.898 7.9375 181.258 8.07031 181.531 8.34375C181.797 8.61719 181.93 8.94531 181.93 9.34375C181.93 10.2109 181.383 10.7656 180.453 10.7656Z" fill="#E0B968"/>
<path d="M188.305 12C188.203 11.7109 188.133 11.2969 188.078 10.7656C188.023 10.2344 188 9.72656 188 9.23438V7.72656C188 7.13281 188.141 6.625 188.43 6.19531C188.711 5.76562 189.094 5.55469 189.586 5.55469C190.484 5.55469 190.93 6.21875 190.93 7.55469V9.21875C190.93 10.3828 190.852 11.3047 190.703 12H193.297C193.102 11.2266 193.008 10.2891 193.008 9.17188V7.69531C193.016 7.09375 193.172 6.58594 193.461 6.17188C193.75 5.75781 194.125 5.55469 194.594 5.55469C195.492 5.55469 195.938 6.21875 195.938 7.55469V9.21875C195.938 10.3047 195.844 11.2266 195.648 12H198.305C198.109 11.2266 198.016 10.25 198.016 9.07031V7.08594C198.016 4.89844 197.188 3.80469 195.523 3.80469C194.273 3.80469 193.375 4.51562 192.992 5.80469H192.867C192.562 4.46875 191.781 3.80469 190.516 3.80469C189.305 3.80469 188.508 4.46875 188.133 5.80469H188V5.60156C188 4.94531 188.102 4.41406 188.305 4H185.633C185.828 4.77344 185.922 5.71875 185.922 6.85156V9.29688C185.922 10.3281 185.828 11.2266 185.633 12H188.305Z" fill="#E0B968"/>
<path d="M203.406 12.1953C204.492 12.1953 205.531 11.9609 206.156 11.5234L206.078 9.78906C205.555 10.3438 204.805 10.625 203.836 10.625C203.156 10.625 202.586 10.4141 202.109 9.98438C201.633 9.55469 201.383 9 201.344 8.32031L201.422 8.28906C202.062 8.79688 202.844 9.05469 203.758 9.05469C204.555 9.05469 205.188 8.83594 205.656 8.40625C206.117 7.97656 206.352 7.39062 206.352 6.65625C206.352 4.86719 205.25 3.80469 203.102 3.80469C202 3.80469 201.117 4.1875 200.445 4.94531C199.773 5.70312 199.438 6.71094 199.438 7.96875C199.438 9.27344 199.805 10.3047 200.531 11.0625C201.258 11.8203 202.219 12.1953 203.406 12.1953ZM203.023 8.0625C202.336 8.0625 201.727 7.78906 201.375 7.3125C201.438 6.6875 201.625 6.19531 201.93 5.83594C202.234 5.47656 202.594 5.29688 202.992 5.29688C203.875 5.29688 204.43 5.82031 204.43 6.71875C204.422 7.11719 204.281 7.44531 204.008 7.6875C203.727 7.9375 203.398 8.0625 203.023 8.0625Z" fill="#E0B968"/>
<path d="M210.164 12C210.07 11.7109 210 11.2969 209.953 10.7578C209.898 10.2188 209.875 9.71094 209.875 9.23438V7.74219C209.875 7.14062 210.031 6.625 210.352 6.19531C210.672 5.76562 211.07 5.55469 211.555 5.55469C212.5 5.55469 213.016 6.27344 213.016 7.55469V9.21875C213.016 10.3047 212.922 11.2266 212.727 12H215.398C215.203 11.2891 215.109 10.3125 215.109 9.07031V7.08594C215.109 4.92969 214.141 3.80469 212.453 3.80469C211.219 3.80469 210.406 4.46875 210.008 5.80469H209.875V5.60156C209.875 4.95312 209.969 4.42188 210.164 4H207.508C207.703 4.77344 207.797 5.71875 207.797 6.85156V9.29688C207.797 10.3281 207.703 11.2266 207.508 12H210.164Z" fill="#E0B968"/>
<path d="M219.977 12.1953C220.453 12.1953 220.883 12.1094 221.258 11.9375V10.1953C221.047 10.3438 220.766 10.4141 220.414 10.4141C219.664 10.4141 219.211 9.97656 219.211 9.10156V5.13281H221.195V4H219.211V0.898438L217.242 1.61719V4H216.047V5.13281H217.242V9.71094C217.242 10.5703 217.484 11.1953 217.977 11.5938C218.469 11.9922 219.133 12.1953 219.977 12.1953Z" fill="#E0B968"/>
<path d="M223.43 12.1797C223.734 12.1797 223.992 12.0703 224.211 11.8438C224.422 11.625 224.531 11.3594 224.531 11.0547C224.531 10.7578 224.422 10.5 224.211 10.2812C223.992 10.0625 223.734 9.95312 223.43 9.95312C223.133 9.95312 222.875 10.0625 222.656 10.2812C222.43 10.5 222.32 10.7578 222.32 11.0547C222.32 11.3594 222.43 11.6172 222.656 11.8438C222.875 12.0703 223.133 12.1797 223.43 12.1797Z" fill="#E0B968"/>
</svg>
