<svg width="329" height="78" viewBox="0 0 329 78" fill="none" xmlns="http://www.w3.org/2000/svg">
<path d="M6.77344 74.2266C7.35938 74.2266 8.01562 74.1328 8.74219 73.9375L8.86719 72.3359C8.35938 72.5391 7.52344 72.6406 6.35156 72.6406H1.78125V64.7969C1.78125 64 1.82812 63.3359 1.92188 62.7969H0.132812C0.25 63.2656 0.304688 63.9297 0.304688 64.7969V71.9844C0.304688 72.9922 0.25 73.7422 0.132812 74.2266C0.445312 74.125 0.875 74.0469 1.42969 73.9844C1.97656 73.9219 2.52344 73.8906 3.0625 73.8906C3.52344 73.8906 4.14844 73.9453 4.94531 74.0625C5.73438 74.1719 6.34375 74.2266 6.77344 74.2266Z" fill="#181E1E"/>
<path d="M14.3828 74.2109C15.6953 74.2109 16.7656 73.8125 17.6016 73.0234C18.4297 72.2344 18.8438 71.2266 18.8438 70C18.8438 68.7734 18.4297 67.7656 17.6094 66.9766C16.7812 66.1875 15.7109 65.7891 14.3984 65.7891C13.0703 65.7891 11.9922 66.1875 11.1641 66.9766C10.3281 67.7656 9.91406 68.7734 9.91406 70C9.91406 71.2266 10.3281 72.2344 11.1641 73.0234C11.9922 73.8125 13.0625 74.2109 14.3828 74.2109ZM12.1719 72.2422C11.5781 71.6562 11.2812 70.9141 11.2812 70C11.2812 69.0859 11.5781 68.3438 12.1719 67.7578C12.7656 67.1719 13.5 66.8828 14.3828 66.8828C15.2656 66.8828 16 67.1719 16.5938 67.7578C17.1875 68.3438 17.4844 69.0859 17.4844 70C17.4844 70.9141 17.1875 71.6562 16.5938 72.2422C16 72.8281 15.2656 73.1172 14.3828 73.1172C13.5 73.1172 12.7656 72.8281 12.1719 72.2422Z" fill="#181E1E"/>
<path d="M24.8047 74.2109C25.4453 74.2109 26.0078 74.1016 26.4844 73.8906V72.6875C26.0703 72.8906 25.5859 72.9922 25.0391 72.9922C23.75 72.9922 23.1562 72.3906 23.1562 70.9609V67.0391H26.4453V66H23.1562V62.7969L21.7969 63.1719V66H19.8125V67.0391H21.7969V71.3438C21.7969 73.2578 22.7969 74.2109 24.8047 74.2109Z" fill="#181E1E"/>
<path d="M31.2734 74.2109C31.9141 74.2109 32.4766 74.1016 32.9531 73.8906V72.6875C32.5391 72.8906 32.0547 72.9922 31.5078 72.9922C30.2188 72.9922 29.625 72.3906 29.625 70.9609V67.0391H32.9141V66H29.625V62.7969L28.2656 63.1719V66H26.2812V67.0391H28.2656V71.3438C28.2656 73.2578 29.2656 74.2109 31.2734 74.2109Z" fill="#181E1E"/>
<path d="M38.9062 74.2109C39.5938 74.2109 40.2812 74.1328 40.9609 73.9766C41.6406 73.8281 42.1641 73.6328 42.5234 73.4062L42.5078 72.1797C42.2031 72.4609 41.7422 72.6875 41.125 72.8594C40.5 73.0312 39.8438 73.1172 39.1484 73.1172C38.1016 73.1172 37.2109 72.8281 36.4688 72.2578C35.7266 71.6875 35.3516 70.9453 35.3359 70.0312L35.4219 69.9844C36.4609 70.6016 37.6562 70.9141 39 70.9141C41.5859 70.9141 42.75 70.2422 42.75 68.625C42.75 67.8125 42.375 67.1328 41.625 66.5938C40.875 66.0547 39.8594 65.7891 38.5703 65.7891C37.2578 65.7891 36.1719 66.1875 35.3047 66.9844C34.4375 67.7812 34.0078 68.7891 34.0078 70C34.0078 71.2422 34.4609 72.25 35.375 73.0312C36.2812 73.8203 37.4609 74.2109 38.9062 74.2109ZM38.6016 70.0938C38.0156 70.0938 37.4297 70.0234 36.8594 69.8828C36.2891 69.7422 35.7891 69.5547 35.375 69.3125C35.4844 68.5547 35.8438 67.9453 36.4531 67.5C37.0625 67.0547 37.75 66.8281 38.5234 66.8281C39.3281 66.8281 40.0078 67 40.5625 67.3516C41.1172 67.7031 41.3906 68.125 41.3906 68.6094C41.3906 69.6016 40.4609 70.0938 38.6016 70.0938Z" fill="#181E1E"/>
<path d="M46.5469 74C46.4375 73.6641 46.3828 73.1406 46.3828 72.4141V70.0469C46.3828 69.2188 46.6719 68.5 47.25 67.8906C47.8281 67.2812 48.4922 66.9766 49.2344 66.9766C49.7422 66.9766 50.3047 67.1328 50.5625 67.3281V65.9844C50.2344 65.8516 49.8516 65.7891 49.4141 65.7891C48 65.7891 46.9453 66.7266 46.5 68.3516H46.3828V67.5391C46.3828 66.9375 46.4609 66.4219 46.6094 66H44.8047C44.8984 66.4609 44.9453 67.0859 44.9453 67.875V72.2266C44.9453 72.9609 44.8984 73.5547 44.8047 74H46.5469Z" fill="#181E1E"/>
<path d="M55.9219 77.7266C58.6406 77.7266 61.0312 76.5312 61.0312 73.5703C61.0312 73.0312 60.8672 72.4766 60.5469 71.9062V67.7734C60.5469 67.0781 60.6094 66.4922 60.7266 66H58.9609C59.0703 66.3359 59.125 66.9375 59.125 67.8203V70.0938C59.125 70.5625 59 71.0156 58.75 71.4531C58.5 71.8984 58.1484 72.2656 57.6875 72.5547C57.2266 72.8438 56.7188 72.9922 56.1797 72.9922C54.5625 72.9922 53.6328 72.125 53.6328 70.4453V67.8203C53.6328 67.0547 53.6875 66.4453 53.7969 66H52.0547C52.1562 66.4922 52.2109 67.1328 52.2109 67.9219V70.6875C52.2109 71.8281 52.5156 72.7031 53.125 73.3047C53.7344 73.9062 54.5859 74.2109 55.6719 74.2109C57.2891 74.2109 58.5391 73.4141 59.0781 71.9531H59.1875C59.4922 72.4531 59.6484 72.9453 59.6484 73.4375C59.6484 75.8203 57.8906 76.6562 55.7656 76.6562C54.2891 76.6562 53.0234 76.2812 51.9688 75.5391V76.8516C53.0938 77.4375 54.4141 77.7266 55.9219 77.7266Z" fill="#181E1E"/>
<path d="M70.6641 74L72.8359 67.8203H72.9531L75.1562 74H77.0781C77.0781 73.5312 77.1875 72.9141 77.4141 72.1562L78.8516 67.7266C79.0469 67.0625 79.2656 66.4922 79.5078 66H77.7812C77.7422 66.3828 77.6406 66.875 77.4766 67.4688L76.2109 71.375L75.875 72.4609H75.75L73.4922 66H72.3281L70.0547 72.4922H69.9609C69.9062 72.3047 69.7891 71.9375 69.6094 71.3906L68.3438 67.4688C68.1562 66.8516 68.0547 66.3672 68.0391 66H66.2969C66.4766 66.3359 66.6953 66.9141 66.9531 67.7266L68.4219 72.1953C68.6328 72.8984 68.7422 73.5 68.7422 74H70.6641Z" fill="#181E1E"/>
<path d="M82.4297 64C82.6016 63.8281 82.6875 63.6172 82.6875 63.375C82.6875 62.875 82.3125 62.4922 81.7578 62.4922C81.2031 62.4922 80.8125 62.875 80.8125 63.375C80.8125 63.6172 80.8984 63.8281 81.0781 64C81.2578 64.1719 81.4844 64.2578 81.7578 64.2578C82.0312 64.2578 82.2578 64.1719 82.4297 64ZM82.6406 74C82.5312 73.5391 82.4766 72.8672 82.4766 71.9844V67.4219C82.4766 66.7891 82.5078 66.3125 82.5781 66C82.4297 66.1016 82.1641 66.1484 81.7812 66.1484C81.3984 66.1484 81.125 66.1016 80.9453 66C81.0156 66.2734 81.0547 66.7422 81.0547 67.4219V71.9844C81.0547 72.8203 80.9922 73.4922 80.875 74H82.6406Z" fill="#181E1E"/>
<path d="M86.75 74C86.6406 73.4766 86.5859 72.8047 86.5859 71.9844V64.7969C86.5859 63.9844 86.6406 63.3203 86.75 62.7969H85.0078C85.1094 63.2891 85.1641 63.9609 85.1641 64.7969V71.9844C85.1641 72.8359 85.1094 73.5078 85.0078 74H86.75Z" fill="#181E1E"/>
<path d="M90.9531 74C90.8438 73.4766 90.7891 72.8047 90.7891 71.9844V64.7969C90.7891 63.9844 90.8438 63.3203 90.9531 62.7969H89.2109C89.3125 63.2891 89.3672 63.9609 89.3672 64.7969V71.9844C89.3672 72.8359 89.3125 73.5078 89.2109 74H90.9531Z" fill="#181E1E"/>
<path d="M99.3125 74C99.2031 73.6641 99.1484 73.0625 99.1484 72.1797L99.1328 69.8906C99.1328 69.4219 99.2578 68.9688 99.5078 68.5234C99.7578 68.0859 100.117 67.7188 100.578 67.4297C101.039 67.1406 101.547 66.9922 102.094 66.9922C103.695 66.9922 104.641 67.875 104.641 69.5547V72.1562C104.641 72.8672 104.586 73.4766 104.477 74H106.227C106.117 73.4766 106.062 72.8359 106.062 72.0625V69.2969C106.062 67.0234 104.789 65.7891 102.609 65.7891C101.008 65.7891 99.8125 66.5859 99.2812 68.0312H99.1484V64.7969C99.1484 63.9141 99.2031 63.2422 99.3125 62.7969H97.5547C97.6562 63.2188 97.7109 63.8828 97.7109 64.7969V71.9844C97.7109 72.9062 97.6562 73.5781 97.5547 74H99.3125Z" fill="#181E1E"/>
<path d="M111.672 74.2109C112.461 74.2109 113.125 74.0625 113.672 73.7578C114.211 73.4609 114.578 73.0859 114.773 72.625H114.898V72.75C114.898 73.2812 114.844 73.6953 114.742 74H116.438C116.328 73.6328 116.273 72.9844 116.273 72.0469V68.8125C116.273 66.7969 114.969 65.7891 112.359 65.7891C111.812 65.7891 111.234 65.8516 110.625 65.9688C110.016 66.0859 109.555 66.2109 109.234 66.3359V67.4219C109.438 67.2891 109.828 67.1484 110.406 67C110.977 66.8516 111.555 66.7812 112.133 66.7812C113.977 66.7812 114.898 67.5156 114.898 68.9922V70.3203H114.742C114.547 69.8828 114.18 69.5 113.641 69.1797C113.094 68.8594 112.445 68.7031 111.688 68.7031C110.633 68.7031 109.805 68.9531 109.203 69.4609C108.602 69.9688 108.297 70.6328 108.297 71.4531C108.297 72.2656 108.602 72.9297 109.203 73.4375C109.805 73.9531 110.625 74.2109 111.672 74.2109ZM112.211 73.2188C111.422 73.2188 110.797 73.0547 110.352 72.7266C109.898 72.3984 109.672 71.9688 109.672 71.4375C109.672 70.8984 109.898 70.4688 110.344 70.1406C110.789 69.8125 111.414 69.6484 112.211 69.6484C112.977 69.6484 113.617 69.8359 114.125 70.2109C114.633 70.5859 114.883 70.9922 114.883 71.4375C114.883 72.0078 114.641 72.4453 114.164 72.75C113.688 73.0625 113.031 73.2188 112.211 73.2188Z" fill="#181E1E"/>
<path d="M120.594 77.2031C120.477 76.6328 120.414 75.9688 120.414 75.2031V71.9688H120.578C120.82 72.6328 121.234 73.1719 121.828 73.5859C122.422 74.0078 123.125 74.2109 123.938 74.2109C125.094 74.2109 126.031 73.8125 126.742 73.0234C127.453 72.2344 127.812 71.2266 127.812 70C127.812 68.7734 127.453 67.7578 126.742 66.9688C126.031 66.1797 125.094 65.7891 123.938 65.7891C123.133 65.7891 122.43 66.0078 121.844 66.4375C121.25 66.875 120.828 67.4062 120.578 68.0312H120.414V67.4062C120.414 66.9297 120.469 66.4609 120.578 66H118.852C118.945 66.4453 118.992 67.1172 118.992 68V75.2031C118.992 76.0938 118.945 76.7578 118.852 77.2031H120.594ZM123.375 73.0391C122.547 73.0391 121.852 72.7422 121.281 72.1406C120.711 71.5391 120.43 70.8281 120.43 70C120.43 69.4844 120.555 68.9922 120.812 68.5234C121.062 68.0625 121.414 67.6797 121.875 67.3906C122.336 67.1016 122.836 66.9609 123.375 66.9609C124.258 66.9609 124.992 67.2422 125.57 67.8125C126.141 68.3828 126.43 69.1094 126.43 70C126.43 70.8906 126.141 71.6172 125.57 72.1875C124.992 72.7578 124.258 73.0391 123.375 73.0391Z" fill="#181E1E"/>
<path d="M131.516 77.2031C131.398 76.6328 131.336 75.9688 131.336 75.2031V71.9688H131.5C131.742 72.6328 132.156 73.1719 132.75 73.5859C133.344 74.0078 134.047 74.2109 134.859 74.2109C136.016 74.2109 136.953 73.8125 137.664 73.0234C138.375 72.2344 138.734 71.2266 138.734 70C138.734 68.7734 138.375 67.7578 137.664 66.9688C136.953 66.1797 136.016 65.7891 134.859 65.7891C134.055 65.7891 133.352 66.0078 132.766 66.4375C132.172 66.875 131.75 67.4062 131.5 68.0312H131.336V67.4062C131.336 66.9297 131.391 66.4609 131.5 66H129.773C129.867 66.4453 129.914 67.1172 129.914 68V75.2031C129.914 76.0938 129.867 76.7578 129.773 77.2031H131.516ZM134.297 73.0391C133.469 73.0391 132.773 72.7422 132.203 72.1406C131.633 71.5391 131.352 70.8281 131.352 70C131.352 69.4844 131.477 68.9922 131.734 68.5234C131.984 68.0625 132.336 67.6797 132.797 67.3906C133.258 67.1016 133.758 66.9609 134.297 66.9609C135.18 66.9609 135.914 67.2422 136.492 67.8125C137.062 68.3828 137.352 69.1094 137.352 70C137.352 70.8906 137.062 71.6172 136.492 72.1875C135.914 72.7578 135.18 73.0391 134.297 73.0391Z" fill="#181E1E"/>
<path d="M145.203 74.2109C145.891 74.2109 146.578 74.1328 147.258 73.9766C147.938 73.8281 148.461 73.6328 148.82 73.4062L148.805 72.1797C148.5 72.4609 148.039 72.6875 147.422 72.8594C146.797 73.0312 146.141 73.1172 145.445 73.1172C144.398 73.1172 143.508 72.8281 142.766 72.2578C142.023 71.6875 141.648 70.9453 141.633 70.0312L141.719 69.9844C142.758 70.6016 143.953 70.9141 145.297 70.9141C147.883 70.9141 149.047 70.2422 149.047 68.625C149.047 67.8125 148.672 67.1328 147.922 66.5938C147.172 66.0547 146.156 65.7891 144.867 65.7891C143.555 65.7891 142.469 66.1875 141.602 66.9844C140.734 67.7812 140.305 68.7891 140.305 70C140.305 71.2422 140.758 72.25 141.672 73.0312C142.578 73.8203 143.758 74.2109 145.203 74.2109ZM144.898 70.0938C144.312 70.0938 143.727 70.0234 143.156 69.8828C142.586 69.7422 142.086 69.5547 141.672 69.3125C141.781 68.5547 142.141 67.9453 142.75 67.5C143.359 67.0547 144.047 66.8281 144.82 66.8281C145.625 66.8281 146.305 67 146.859 67.3516C147.414 67.7031 147.688 68.125 147.688 68.6094C147.688 69.6016 146.758 70.0938 144.898 70.0938Z" fill="#181E1E"/>
<path d="M152.859 74C152.742 73.6328 152.68 73.0312 152.68 72.1797V69.8906C152.68 69.4219 152.805 68.9688 153.055 68.5234C153.305 68.0859 153.664 67.7188 154.125 67.4297C154.586 67.1406 155.094 66.9922 155.641 66.9922C157.242 66.9922 158.188 67.875 158.188 69.5547V72.1562C158.188 72.8672 158.133 73.4766 158.023 74H159.773C159.664 73.4766 159.609 72.8359 159.609 72.0625V69.2969C159.609 68.1641 159.305 67.2891 158.695 66.6875C158.078 66.0859 157.234 65.7891 156.156 65.7891C154.555 65.7891 153.359 66.5859 152.828 68.0312H152.68V67.4375C152.68 66.8281 152.742 66.3516 152.875 66H151.102C151.203 66.4219 151.258 67.0469 151.258 67.875V72.2109C151.258 72.9844 151.203 73.5781 151.102 74H152.859Z" fill="#181E1E"/>
<path d="M170.414 74.2109C171.727 74.2109 172.797 73.8125 173.633 73.0234C174.461 72.2344 174.875 71.2266 174.875 70C174.875 68.7734 174.461 67.7656 173.641 66.9766C172.812 66.1875 171.742 65.7891 170.43 65.7891C169.102 65.7891 168.023 66.1875 167.195 66.9766C166.359 67.7656 165.945 68.7734 165.945 70C165.945 71.2266 166.359 72.2344 167.195 73.0234C168.023 73.8125 169.094 74.2109 170.414 74.2109ZM168.203 72.2422C167.609 71.6562 167.312 70.9141 167.312 70C167.312 69.0859 167.609 68.3438 168.203 67.7578C168.797 67.1719 169.531 66.8828 170.414 66.8828C171.297 66.8828 172.031 67.1719 172.625 67.7578C173.219 68.3438 173.516 69.0859 173.516 70C173.516 70.9141 173.219 71.6562 172.625 72.2422C172.031 72.8281 171.297 73.1172 170.414 73.1172C169.531 73.1172 168.797 72.8281 168.203 72.2422Z" fill="#181E1E"/>
<path d="M178.688 74C178.57 73.6328 178.508 73.0312 178.508 72.1797V69.8906C178.508 69.4219 178.633 68.9688 178.883 68.5234C179.133 68.0859 179.492 67.7188 179.953 67.4297C180.414 67.1406 180.922 66.9922 181.469 66.9922C183.07 66.9922 184.016 67.875 184.016 69.5547V72.1562C184.016 72.8672 183.961 73.4766 183.852 74H185.602C185.492 73.4766 185.438 72.8359 185.438 72.0625V69.2969C185.438 68.1641 185.133 67.2891 184.523 66.6875C183.906 66.0859 183.062 65.7891 181.984 65.7891C180.383 65.7891 179.188 66.5859 178.656 68.0312H178.508V67.4375C178.508 66.8281 178.57 66.3516 178.703 66H176.93C177.031 66.4219 177.086 67.0469 177.086 67.875V72.2109C177.086 72.9844 177.031 73.5781 176.93 74H178.688Z" fill="#181E1E"/>
<path d="M196.977 74C198.562 74 199.969 73.4297 200.969 72.4688C201.961 71.5078 202.562 70.0547 202.562 68.3984C202.562 66.7422 201.961 65.2891 200.969 64.3281C199.969 63.3672 198.562 62.7969 196.977 62.7969H192.227C192.344 63.2656 192.398 63.9297 192.398 64.7969V71.9844C192.398 72.8594 192.344 73.5312 192.227 74H196.977ZM193.875 64.2109H197.008C198.125 64.2109 199.148 64.6562 199.875 65.375C200.594 66.1016 201.039 67.1875 201.039 68.3984C201.07 70.8047 199.234 72.625 197.008 72.5781H193.875V64.2109Z" fill="#181E1E"/>
<path d="M209.141 74.2109C209.828 74.2109 210.516 74.1328 211.195 73.9766C211.875 73.8281 212.398 73.6328 212.758 73.4062L212.742 72.1797C212.438 72.4609 211.977 72.6875 211.359 72.8594C210.734 73.0312 210.078 73.1172 209.383 73.1172C208.336 73.1172 207.445 72.8281 206.703 72.2578C205.961 71.6875 205.586 70.9453 205.57 70.0312L205.656 69.9844C206.695 70.6016 207.891 70.9141 209.234 70.9141C211.82 70.9141 212.984 70.2422 212.984 68.625C212.984 67.8125 212.609 67.1328 211.859 66.5938C211.109 66.0547 210.094 65.7891 208.805 65.7891C207.492 65.7891 206.406 66.1875 205.539 66.9844C204.672 67.7812 204.242 68.7891 204.242 70C204.242 71.2422 204.695 72.25 205.609 73.0312C206.516 73.8203 207.695 74.2109 209.141 74.2109ZM208.836 70.0938C208.25 70.0938 207.664 70.0234 207.094 69.8828C206.523 69.7422 206.023 69.5547 205.609 69.3125C205.719 68.5547 206.078 67.9453 206.688 67.5C207.297 67.0547 207.984 66.8281 208.758 66.8281C209.562 66.8281 210.242 67 210.797 67.3516C211.352 67.7031 211.625 68.125 211.625 68.6094C211.625 69.6016 210.695 70.0938 208.836 70.0938Z" fill="#181E1E"/>
<path d="M219.422 74.2109C219.906 74.2109 220.406 74.1562 220.914 74.0391C221.422 73.9219 221.852 73.7734 222.203 73.5859V72.3516C221.477 72.8438 220.609 73.0859 219.609 73.0859C218.57 73.0859 217.703 72.7969 217.023 72.2266C216.344 71.6562 216 70.9141 216 70C216 69.0859 216.344 68.3359 217.023 67.7578C217.703 67.1875 218.555 66.8984 219.578 66.8984C220.398 66.8984 221.281 67.1172 221.867 67.4531L221.898 66.2578C221.594 66.1094 221.211 66 220.742 65.9141C220.266 65.8281 219.836 65.7891 219.453 65.7891C218.008 65.7891 216.844 66.1797 215.953 66.9688C215.062 67.7578 214.617 68.7734 214.617 70C214.617 71.2266 215.055 72.2344 215.938 73.0234C216.82 73.8125 217.977 74.2109 219.422 74.2109Z" fill="#181E1E"/>
<path d="M228.484 74.2109C229.172 74.2109 229.859 74.1328 230.539 73.9766C231.219 73.8281 231.742 73.6328 232.102 73.4062L232.086 72.1797C231.781 72.4609 231.32 72.6875 230.703 72.8594C230.078 73.0312 229.422 73.1172 228.727 73.1172C227.68 73.1172 226.789 72.8281 226.047 72.2578C225.305 71.6875 224.93 70.9453 224.914 70.0312L225 69.9844C226.039 70.6016 227.234 70.9141 228.578 70.9141C231.164 70.9141 232.328 70.2422 232.328 68.625C232.328 67.8125 231.953 67.1328 231.203 66.5938C230.453 66.0547 229.438 65.7891 228.148 65.7891C226.836 65.7891 225.75 66.1875 224.883 66.9844C224.016 67.7812 223.586 68.7891 223.586 70C223.586 71.2422 224.039 72.25 224.953 73.0312C225.859 73.8203 227.039 74.2109 228.484 74.2109ZM228.18 70.0938C227.594 70.0938 227.008 70.0234 226.438 69.8828C225.867 69.7422 225.367 69.5547 224.953 69.3125C225.062 68.5547 225.422 67.9453 226.031 67.5C226.641 67.0547 227.328 66.8281 228.102 66.8281C228.906 66.8281 229.586 67 230.141 67.3516C230.695 67.7031 230.969 68.125 230.969 68.6094C230.969 69.6016 230.039 70.0938 228.18 70.0938Z" fill="#181E1E"/>
<path d="M236.141 74C236.023 73.6328 235.961 73.0312 235.961 72.1797V69.8906C235.961 69.4219 236.078 68.9688 236.312 68.5234C236.539 68.0859 236.883 67.7188 237.328 67.4297C237.773 67.1406 238.266 66.9922 238.812 66.9922C240.352 66.9922 241.133 67.9219 241.133 69.5547V72.1562C241.133 72.9922 241.094 73.6016 241.008 74H242.719C242.609 73.4766 242.555 72.8516 242.555 72.125V69.7891C242.57 69.3359 242.695 68.8984 242.938 68.4688C243.18 68.0469 243.516 67.6953 243.961 67.4141C244.398 67.1328 244.883 66.9922 245.406 66.9922C246.945 66.9922 247.727 67.9219 247.727 69.5547V72.1562C247.727 72.8672 247.672 73.4766 247.562 74H249.305C249.203 73.5078 249.148 72.8594 249.148 72.0625V69.2969C249.148 67.0781 248.016 65.7891 245.898 65.7891C244.281 65.7891 243.062 66.5859 242.523 68.0312H242.398C242.023 66.5859 240.984 65.7891 239.328 65.7891C237.727 65.7891 236.656 66.5391 236.109 68.0312H235.961V67.4375C235.961 66.8281 236.023 66.3516 236.156 66H234.383C234.484 66.4219 234.539 67.0469 234.539 67.875V72.2109C234.539 72.9844 234.484 73.5781 234.383 74H236.141Z" fill="#181E1E"/>
<path d="M256.797 74.2109C257.953 74.2109 258.883 73.8125 259.594 73.0234C260.305 72.2344 260.656 71.2266 260.656 70C260.656 68.7734 260.305 67.7578 259.594 66.9688C258.883 66.1797 257.953 65.7891 256.797 65.7891C255.992 65.7891 255.281 65.9922 254.68 66.4062C254.078 66.8203 253.648 67.3516 253.406 68.0156H253.258V64.7969C253.258 64.0312 253.32 63.3672 253.438 62.7969H251.695C251.789 63.2422 251.836 63.9141 251.836 64.7969V71.9844C251.836 72.8828 251.789 73.5547 251.695 74H253.422C253.312 73.5156 253.258 73.0391 253.258 72.5781V71.9531H253.422C253.672 72.5781 254.094 73.1094 254.695 73.5469C255.297 73.9922 255.992 74.2109 256.797 74.2109ZM256.219 73.0391C255.68 73.0391 255.188 72.8828 254.727 72.5781C253.805 71.9609 253.273 70.9688 253.273 70C253.273 69.1328 253.555 68.4062 254.117 67.8281C254.68 67.25 255.383 66.9609 256.219 66.9609C257.102 66.9609 257.836 67.2422 258.414 67.8125C258.984 68.3828 259.273 69.1094 259.273 70C259.273 70.8906 258.984 71.6172 258.414 72.1875C257.836 72.7578 257.102 73.0391 256.219 73.0391Z" fill="#181E1E"/>
<path d="M267.188 74.2109C267.875 74.2109 268.562 74.1328 269.242 73.9766C269.922 73.8281 270.445 73.6328 270.805 73.4062L270.789 72.1797C270.484 72.4609 270.023 72.6875 269.406 72.8594C268.781 73.0312 268.125 73.1172 267.43 73.1172C266.383 73.1172 265.492 72.8281 264.75 72.2578C264.008 71.6875 263.633 70.9453 263.617 70.0312L263.703 69.9844C264.742 70.6016 265.938 70.9141 267.281 70.9141C269.867 70.9141 271.031 70.2422 271.031 68.625C271.031 67.8125 270.656 67.1328 269.906 66.5938C269.156 66.0547 268.141 65.7891 266.852 65.7891C265.539 65.7891 264.453 66.1875 263.586 66.9844C262.719 67.7812 262.289 68.7891 262.289 70C262.289 71.2422 262.742 72.25 263.656 73.0312C264.562 73.8203 265.742 74.2109 267.188 74.2109ZM266.883 70.0938C266.297 70.0938 265.711 70.0234 265.141 69.8828C264.57 69.7422 264.07 69.5547 263.656 69.3125C263.766 68.5547 264.125 67.9453 264.734 67.5C265.344 67.0547 266.031 66.8281 266.805 66.8281C267.609 66.8281 268.289 67 268.844 67.3516C269.398 67.7031 269.672 68.125 269.672 68.6094C269.672 69.6016 268.742 70.0938 266.883 70.0938Z" fill="#181E1E"/>
<path d="M274.828 74C274.719 73.6641 274.664 73.1406 274.664 72.4141V70.0469C274.664 69.2188 274.953 68.5 275.531 67.8906C276.109 67.2812 276.773 66.9766 277.516 66.9766C278.023 66.9766 278.586 67.1328 278.844 67.3281V65.9844C278.516 65.8516 278.133 65.7891 277.695 65.7891C276.281 65.7891 275.227 66.7266 274.781 68.3516H274.664V67.5391C274.664 66.9375 274.742 66.4219 274.891 66H273.086C273.18 66.4609 273.227 67.0859 273.227 67.875V72.2266C273.227 72.9609 273.18 73.5547 273.086 74H274.828Z" fill="#181E1E"/>
<path d="M279.227 75.9844C279.57 75.7422 279.859 75.4141 280.086 75.0078C280.312 74.6016 280.43 74.1719 280.43 73.7266C280.43 73.0469 280.039 72.6406 279.547 72.6406C279.141 72.6406 278.812 72.9688 278.812 73.375C278.812 73.7891 279.102 74.1094 279.5 74.1094C279.539 74.1094 279.648 74.0781 279.68 74.0781C279.664 74.3359 279.562 74.6016 279.383 74.8828C279.203 75.1641 278.977 75.3906 278.719 75.5703L279.227 75.9844Z" fill="#181E1E"/>
<path d="M294.625 74L294.758 72.2734C294.383 72.5078 293.797 72.625 293 72.625H288.547L288.484 72.4609L292.023 69.4062C292.938 68.6172 293.57 67.9531 293.93 67.4062C294.289 66.8594 294.469 66.2969 294.469 65.7109C294.469 64.8125 294.117 64.0703 293.406 63.4844C292.695 62.8984 291.781 62.6094 290.664 62.6094C289.844 62.6094 289.141 62.7031 288.555 62.8828C287.969 63.0703 287.391 63.3359 286.805 63.6797V65.2188C287.891 64.3828 289.102 63.9688 290.422 63.9688C291.148 63.9688 291.758 64.1484 292.25 64.5078C292.734 64.875 292.977 65.3281 292.977 65.875C292.977 66.2734 292.852 66.6797 292.602 67.1016C292.352 67.5234 291.867 68.0391 291.156 68.6406L286.305 72.75V74H294.625Z" fill="#181E1E"/>
<path d="M301.703 74.2109C303.055 74.2109 304.242 73.6719 305.094 72.7031C305.938 71.7344 306.453 70.2109 306.453 68.3984C306.453 66.5859 305.938 65.0703 305.094 64.1016C304.242 63.1328 303.055 62.5938 301.703 62.5938C300.359 62.5938 299.18 63.1328 298.336 64.1016C297.492 65.0703 296.984 66.5859 296.984 68.3984C296.984 70.2109 297.492 71.7344 298.336 72.7031C299.18 73.6719 300.359 74.2109 301.703 74.2109ZM301.703 72.7969C300.641 72.7969 299.781 72.4141 299.133 71.6562C298.477 70.8984 298.148 69.8125 298.148 68.3984C298.148 66.9844 298.477 65.8984 299.133 65.1406C299.781 64.3828 300.641 64 301.703 64C302.773 64 303.633 64.3828 304.297 65.1406C304.961 65.8984 305.289 66.9844 305.289 68.3984C305.289 69.8125 304.961 70.8984 304.297 71.6562C303.633 72.4141 302.773 72.7969 301.703 72.7969Z" fill="#181E1E"/>
<path d="M312.523 74.2109C313.164 74.2109 313.727 74.1016 314.203 73.8906V72.6875C313.789 72.8906 313.305 72.9922 312.758 72.9922C311.469 72.9922 310.875 72.3906 310.875 70.9609V67.0391H314.164V66H310.875V62.7969L309.516 63.1719V66H307.531V67.0391H309.516V71.3438C309.516 73.2578 310.516 74.2109 312.523 74.2109Z" fill="#181E1E"/>
<path d="M317.438 74C317.328 73.6641 317.273 73.0625 317.273 72.1797L317.258 69.8906C317.258 69.4219 317.383 68.9688 317.633 68.5234C317.883 68.0859 318.242 67.7188 318.703 67.4297C319.164 67.1406 319.672 66.9922 320.219 66.9922C321.82 66.9922 322.766 67.875 322.766 69.5547V72.1562C322.766 72.8672 322.711 73.4766 322.602 74H324.352C324.242 73.4766 324.188 72.8359 324.188 72.0625V69.2969C324.188 67.0234 322.914 65.7891 320.734 65.7891C319.133 65.7891 317.938 66.5859 317.406 68.0312H317.273V64.7969C317.273 63.9141 317.328 63.2422 317.438 62.7969H315.68C315.781 63.2188 315.836 63.8828 315.836 64.7969V71.9844C315.836 72.9062 315.781 73.5781 315.68 74H317.438Z" fill="#181E1E"/>
<path d="M327.898 73.9297C328.195 73.625 328.195 73.1484 327.898 72.8594C327.602 72.5703 327.125 72.5703 326.82 72.8594C326.516 73.1484 326.516 73.625 326.82 73.9297C327.125 74.2344 327.602 74.2344 327.898 73.9297Z" fill="#181E1E"/>
<path d="M16.1387 43C16.0801 40.2754 16.4316 36.8184 17.1934 32.6289L17.6328 31.1055H26.627L26.9785 32.6289C27.7988 36.7598 28.1797 40.2168 28.1211 43H40.7188C38.9316 38.8691 37.3496 33.8301 35.9727 27.8242L32.75 16.1934C32.1934 13.6445 31.7539 10.9199 31.4316 8.07812C31.0801 5.23633 30.9043 2.89258 30.9336 0.988281H13.3555C13.3555 2.92188 13.1797 5.29492 12.8574 8.10742C12.5059 10.9492 12.0371 13.6445 11.4512 16.1934L8.25781 27.8242C7.64258 30.4609 6.91016 33.1855 6.03125 35.998C5.15234 38.8105 4.30273 41.1543 3.51172 43H16.1387ZM20.5625 19.5918C20.8848 18.2734 21.1484 16.6621 21.2949 15.666C21.4121 14.8164 21.6758 12.5312 21.8223 11.6816H22.4375C22.9355 15.4609 23.3457 18.0977 23.6973 19.5918L25.4844 25.5977H18.7754L20.5625 19.5918Z" fill="#E0B967"/>
<path d="M70.0449 43.9082C72.418 43.9082 74.6152 42.6191 75.5527 40.9492L75.4355 28.5859C74.3223 31.0176 72.6523 32.248 70.4551 32.248C66.1484 32.248 68.3457 22.4336 60.5527 22.4336H60.1426V21.9941H60.4355C64.2734 21.9941 67.3496 21.1152 69.6934 19.3574C72.0078 17.5996 73.1797 15.0508 73.1797 11.6816C73.1797 8.19531 71.8906 5.55859 69.2832 3.71289C66.6758 1.89648 63.248 0.988281 58.9414 0.988281H42.3887C43.0625 4.12305 43.4141 9.25 43.4141 16.3691V27.6484C43.4141 33.9766 43.0625 39.1035 42.3887 43H54.459C53.6973 39.543 53.3164 34.709 53.3164 28.5273V24.8945C53.668 24.7188 54.3125 24.6309 55.2207 24.6309C58.9707 24.6309 60.0547 28.2051 60.9043 32.2188C61.4609 34.9434 62.1348 37.8145 63.2773 40.0703C64.4199 42.3262 66.7344 43.9082 70.0449 43.9082ZM53.3164 10.4219H57.6816C60.875 10.4219 63.0723 12.0332 63.0723 14.9336C63.0723 18.127 60.9336 19.7676 57.5059 19.7676H53.3164V10.4219Z" fill="#E0B967"/>
<path d="M105.465 43L107.223 31.6621C106.432 32.1602 105.348 32.541 103.971 32.8047C102.594 33.0684 100.543 33.2148 97.7891 33.2148H90.2305V24.2793H96.5879C99.166 24.2793 101.275 24.3672 102.945 24.5723V18.1562C101.275 18.3613 99.166 18.4492 96.5879 18.4492H90.2305V10.7734H98.3457C102.359 10.7734 104.908 11.1836 106.021 12.0332L104.498 0.988281H78.9512C79.3906 2.83398 79.7422 5.17773 80.0059 7.99023C80.2695 10.832 80.3867 13.5566 80.3867 16.1934V27.8242C80.3867 30.4609 80.2695 33.1855 80.0059 35.998C79.7422 38.8105 79.3906 41.1543 78.9512 43H105.465Z" fill="#E0B967"/>
<path d="M145.25 43C144.4 39.4258 143.99 35.5879 143.99 31.4863V28.293L149.586 16.1934C150.787 13.4102 152.105 10.627 153.541 7.84375C154.947 5.06055 156.236 2.80469 157.379 1.04688H144.488C143.932 4.12305 142.906 7.81445 141.354 12.1504L139.244 16.1055H138.658L136.607 12.209C135.113 7.90234 134.059 4.18164 133.502 1.04688H120.582C123.072 4.82617 125.68 9.86523 128.404 16.1934L133.971 28.293V31.4863C133.971 35.4121 133.531 39.25 132.652 43H145.25Z" fill="#E0B967"/>
<path d="M179.205 42.4141C181.227 41.4473 182.984 40.0703 184.479 38.2832C187.496 34.6797 189.283 28.9375 189.283 21.9941C189.283 14.9922 187.496 9.25 184.479 5.67578C181.432 2.10156 177.359 0.167969 172.584 0.167969C167.809 0.167969 163.736 2.10156 160.719 5.67578C157.701 9.25 155.914 14.9922 155.914 21.9941C155.914 28.9375 157.701 34.6797 160.719 38.2832C162.213 40.0703 163.971 41.4473 165.992 42.4141C168.014 43.3809 170.211 43.8496 172.584 43.8496C174.957 43.8496 177.184 43.3809 179.205 42.4141ZM172.584 35.5C168.746 35.5 166.227 30.8125 166.227 21.9941C166.227 13.0879 168.746 8.42969 172.584 8.42969C176.363 8.42969 178.941 13.1172 178.941 21.9941C178.941 30.8125 176.363 35.5 172.584 35.5Z" fill="#E0B967"/>
<path d="M209.527 43.7324C214.361 43.7324 218.141 42.4141 220.865 39.748C223.561 37.082 224.908 33.2441 224.908 28.1758V16.1934C224.908 10.0703 225.377 5.00195 226.285 0.988281H213.688C214.596 5.00195 215.064 10.0703 215.064 16.1934V26.5645C215.064 31.252 213.072 33.8887 209.586 33.8887C206.07 33.8887 204.137 31.2812 204.137 26.5645V16.1934C204.137 10.1875 204.576 5.11914 205.455 0.988281H192.857C193.297 2.80469 193.648 5.11914 193.912 7.90234C194.176 10.7148 194.293 13.4688 194.293 16.1934V28.1758C194.293 33.4492 195.875 37.5508 198.629 40.0117C201.383 42.502 205.045 43.7324 209.527 43.7324Z" fill="#E0B967"/>
<path d="M256.549 43C255.641 38.9863 255.172 33.918 255.172 27.8242V16.1934C255.172 10.0703 255.641 5.00195 256.549 0.988281H243.951C244.859 5.00195 245.328 10.0703 245.328 16.1934V27.8242C245.328 33.918 244.859 38.9863 243.951 43H256.549Z" fill="#E0B967"/>
<path d="M274.361 43C273.98 41.3008 273.658 38.9277 273.395 35.9102C273.131 32.8926 272.984 30.0215 272.984 27.3262V19.9141H273.6L285.348 43H294.518V16.1934C294.518 10.0703 294.986 5.00195 295.895 0.988281H283.297C284.088 4.29883 284.527 8.86914 284.615 14.7285V23.4883H284.029L272.691 1.04688L261.705 0.988281C262.145 2.80469 262.496 5.11914 262.76 7.90234C263.023 10.7148 263.141 13.4688 263.141 16.1934V27.8242C263.141 34.0059 262.672 39.0742 261.705 43H274.361Z" fill="#E0B967"/>
<path d="M311.891 29.2012L312.535 23.2539C319.303 21.291 322.672 17.4531 322.672 11.7402C322.672 8.42969 321.412 5.64648 318.922 3.41992C316.402 1.22266 313.15 0.109375 309.195 0.109375C305.533 0.109375 302.398 0.724609 299.82 1.95508V10.0117C302.516 8.51758 305.24 7.78516 307.994 7.78516C309.518 7.78516 310.777 8.25391 311.744 9.19141C312.711 10.1289 313.209 11.3008 313.209 12.707C313.209 14.377 312.447 15.8125 310.895 17.0137C309.342 18.2148 307.203 18.8887 304.508 19.0645L305.533 29.2012H311.891ZM312.828 42.3848C313.795 41.418 314.293 40.2461 314.293 38.8105C314.293 37.4043 313.795 36.2031 312.799 35.2363C311.803 34.2695 310.514 33.7715 308.932 33.7715C307.35 33.7715 306.061 34.2695 305.094 35.2363C304.098 36.2031 303.6 37.4043 303.6 38.8105C303.6 40.2461 304.098 41.4473 305.064 42.4141C306.031 43.3809 307.32 43.8496 308.932 43.8496C310.543 43.8496 311.832 43.3809 312.828 42.3848Z" fill="#E0B967"/>
</svg>
