<svg width="78" height="78" viewBox="0 0 78 78" fill="none" xmlns="http://www.w3.org/2000/svg">
<path d="M35.8777 2.91603C37.6355 1.27432 40.3645 1.27432 42.1223 2.91603C43.487 4.19053 45.4893 4.50767 47.181 3.71725C49.3602 2.6991 51.9556 3.54239 53.1201 5.64695C54.0241 7.28079 55.8304 8.20116 57.6836 7.9722C60.0707 7.67727 62.2785 9.28131 62.7356 11.6427C63.0905 13.4759 64.5241 14.9095 66.3573 15.2644C68.7187 15.7215 70.3227 17.9293 70.0278 20.3164C69.7988 22.1696 70.7192 23.9759 72.353 24.8799C74.4576 26.0444 75.3009 28.6398 74.2827 30.8189C73.4923 32.5107 73.8095 34.513 75.084 35.8777C76.7257 37.6355 76.7257 40.3645 75.084 42.1223C73.8095 43.487 73.4923 45.4893 74.2827 47.1811C75.3009 49.3602 74.4576 51.9556 72.353 53.1201C70.7192 54.0241 69.7988 55.8304 70.0278 57.6836C70.3227 60.0707 68.7187 62.2785 66.3573 62.7356C64.5241 63.0905 63.0905 64.5241 62.7356 66.3573C62.2785 68.7187 60.0707 70.3227 57.6836 70.0278C55.8304 69.7988 54.0241 70.7192 53.1201 72.353C51.9556 74.4576 49.3602 75.3009 47.1811 74.2827C45.4893 73.4923 43.487 73.8095 42.1223 75.084C40.3645 76.7257 37.6355 76.7257 35.8777 75.084C34.513 73.8095 32.5107 73.4923 30.8189 74.2827C28.6398 75.3009 26.0444 74.4576 24.8799 72.353C23.9759 70.7192 22.1696 69.7988 20.3164 70.0278C17.9293 70.3227 15.7215 68.7187 15.2644 66.3573C14.9095 64.5241 13.4759 63.0905 11.6427 62.7356C9.28131 62.2785 7.67727 60.0707 7.9722 57.6836C8.20116 55.8304 7.28079 54.0241 5.64695 53.1201C3.54239 51.9556 2.6991 49.3602 3.71725 47.1811C4.50767 45.4893 4.19053 43.487 2.91603 42.1223C1.27432 40.3645 1.27432 37.6355 2.91603 35.8777C4.19053 34.513 4.50767 32.5107 3.71725 30.8189C2.6991 28.6398 3.54239 26.0444 5.64695 24.8799C7.28079 23.9759 8.20116 22.1696 7.9722 20.3164C7.67727 17.9293 9.2813 15.7215 11.6427 15.2644C13.4759 14.9094 14.9095 13.4759 15.2644 11.6427C15.7215 9.2813 17.9293 7.67727 20.3164 7.9722C22.1696 8.20116 23.9759 7.28079 24.8799 5.64695C26.0444 3.54239 28.6398 2.6991 30.8189 3.71725C32.5107 4.50767 34.513 4.19053 35.8777 2.91603Z" fill="#F4F1E1"/>
<path d="M21.5206 35.9619C22.7127 36.131 23.7219 35.9634 24.5479 35.4592C25.3641 34.9625 25.8493 34.1702 26.0024 33.0912C26.1246 32.2297 26.0157 31.4952 25.6733 30.9052C25.3222 30.3139 24.8111 29.975 24.1323 29.8787L24.0627 29.8689L24.0824 29.7296L24.1521 29.7395C24.7786 29.8284 25.3303 29.6315 25.7972 29.1562C26.2641 28.6809 26.563 28.0132 26.6852 27.1517C26.8432 26.0378 26.5117 25.1208 25.8213 24.5435C25.1308 23.9662 24.2741 23.6228 23.2038 23.4709L20.9761 23.1549C21.0327 23.8198 21.0384 24.6551 20.9947 25.652C20.9497 26.6576 20.8599 27.6036 20.7339 28.4912L20.4562 30.4491C20.3303 31.3367 20.1534 32.2703 19.9182 33.2401C19.683 34.2098 19.4451 35.0105 19.2059 35.6335L21.5206 35.9619ZM23.2219 25.533L23.2742 25.5404C24.1879 25.67 24.6956 26.2835 24.5487 27.3191C24.4006 28.3633 23.7038 28.8947 22.7988 28.7663L22.764 28.7614L23.2219 25.533ZM22.5343 30.38L22.5518 30.3824C23.5351 30.5219 24.1151 31.3144 23.9608 32.4021C23.883 32.9503 23.6634 33.3719 23.3119 33.6594C22.9517 33.9456 22.528 34.0542 22.0407 33.985L22.0233 33.9826L22.5343 30.38Z" fill="#181E1E"/>
<path d="M29.0704 37.3081C30.0537 37.4476 30.9184 36.9843 31.6743 35.9109C32.429 34.8462 32.952 33.287 33.2421 31.2421C33.5334 29.1884 33.4634 27.554 33.0334 26.3301C32.6022 25.1149 31.8992 24.4382 30.9159 24.2987C29.9239 24.1579 29.0518 24.6112 28.3083 25.6598C27.5548 26.7158 27.033 28.2663 26.7417 30.3199C26.4504 32.3736 26.5191 34.0167 26.9479 35.2493C27.3767 36.4819 28.0871 37.1686 29.0704 37.3081ZM29.3593 35.2718C28.637 35.1694 28.4925 33.622 28.9172 30.6285C29.3406 27.6438 29.9085 26.2064 30.6308 26.3088C31.353 26.4113 31.5074 27.9512 31.084 30.9359C30.6593 33.9294 30.0815 35.3743 29.3593 35.2718Z" fill="#181E1E"/>
<path d="M36.5328 38.269C37.4465 38.3987 38.2232 38.1804 38.8627 37.6142C39.5023 37.048 39.9079 36.1291 40.0869 34.8673L40.5918 31.3082C40.7189 30.4119 40.8957 29.4783 41.131 28.5085C41.3575 27.5376 41.5941 26.7456 41.8346 26.1139L38.8237 25.6868C38.8816 26.343 38.8811 27.1596 38.8286 28.1553C38.7762 29.151 38.6851 30.1057 38.5555 31.0194L38.0173 34.8134C37.8642 35.8924 37.4035 36.3242 36.8205 36.2415C36.2374 36.1588 35.8901 35.6035 36.0419 34.5332L36.5802 30.7391C36.7061 29.8515 36.8829 28.9179 37.1194 27.9395C37.3459 26.9685 37.575 26.1666 37.8056 25.5424L34.7948 25.1152C34.8526 25.7715 34.8584 26.6067 34.8146 27.6036C34.7609 28.608 34.6711 29.554 34.5439 30.4503L34.039 34.0094C33.8588 35.2798 34.0015 36.2766 34.4683 36.9908C34.9251 37.7125 35.6191 38.1394 36.5328 38.269Z" fill="#181E1E"/>
<path d="M43.9716 39.1468C43.9237 38.4831 43.9266 37.649 43.9791 36.6534C44.0229 35.6565 44.1127 34.7105 44.2386 33.8229L44.3349 33.1442L44.4567 33.1614L45.6162 39.3801L47.4872 39.6455L48.5105 32.4316C48.6364 31.544 48.8133 30.6104 49.0497 29.6319C49.2762 28.6609 49.5054 27.859 49.736 27.2348L46.7251 26.8077C46.8331 27.9238 46.7885 29.3644 46.6013 31.1221L46.3593 32.8277L46.2375 32.8104L45.0891 26.5756L42.7309 26.2411C42.7875 26.906 42.7933 27.7413 42.7495 28.7382C42.7045 29.7438 42.6147 30.6897 42.4888 31.5773L42.211 33.5353C42.0851 34.4229 41.9083 35.3565 41.6731 36.3262C41.4378 37.296 41.2 38.0967 40.9607 38.7196L43.9716 39.1468Z" fill="#181E1E"/>
<path d="M52.1354 40.4824C52.7706 40.5726 53.361 40.4788 53.8902 40.1899L54.2334 37.7707C53.7564 38.1292 53.3923 38.1929 52.905 38.1238C51.7899 37.9745 51.3538 36.9184 51.766 33.8876C51.9882 32.3213 52.2979 31.2645 52.684 30.7334C53.07 30.2022 53.4577 30.0353 53.9711 30.1081C54.3975 30.1686 54.8055 30.4839 55.0123 30.966L55.3863 28.3293C55.1075 27.9791 54.6773 27.7582 54.1116 27.678C53.285 27.5607 52.5282 27.7641 51.824 28.3477C50.782 29.1852 49.9496 30.9225 49.5707 33.594C49.267 35.7346 49.3618 37.3815 49.8465 38.5332C50.3311 39.685 51.0912 40.3343 52.1354 40.4824Z" fill="#181E1E"/>
<path d="M58.7301 41.2404C58.6132 39.9367 58.6517 38.6017 58.8479 37.2181L58.8776 37.0092L60.0705 34.107C60.4239 33.2428 60.8369 32.3338 61.3157 31.3986C61.7859 30.4622 62.2152 29.6887 62.6012 29.0954L59.747 28.6905C59.5417 29.8243 59.1404 31.2143 58.5267 32.8494L58.4325 33.0757L58.2932 33.0559L58.2744 32.8136C58.1347 31.045 58.127 29.5969 58.2502 28.4782L55.4047 28.0745C55.6105 28.7517 55.8102 29.5967 56.0013 30.6269C56.1838 31.6559 56.3277 32.644 56.433 33.591L56.7692 36.7279L56.7396 36.9367C56.5495 38.2768 56.2065 39.5686 55.7192 40.8133L58.7301 41.2404Z" fill="#181E1E"/>
<path d="M19.4038 51.8218C20.596 51.9909 21.6051 51.8233 22.4312 51.3191C23.2473 50.8224 23.7326 50.0302 23.8856 48.9511C24.0078 48.0896 23.899 47.3551 23.5566 46.7651C23.2055 46.1738 22.6943 45.8349 22.0156 45.7386L21.9459 45.7288L21.9657 45.5895L22.0353 45.5994C22.6619 45.6883 23.2135 45.4914 23.6804 45.0161C24.1473 44.5408 24.4462 43.8731 24.5684 43.0116C24.7264 41.8977 24.3949 40.9807 23.7045 40.4034C23.0141 39.8261 22.1574 39.4827 21.087 39.3308L18.8593 39.0148C18.9159 39.6797 18.9217 40.515 18.8779 41.5119C18.8329 42.5175 18.7431 43.4635 18.6172 44.3511L18.3394 46.309C18.2135 47.1966 18.0367 48.1303 17.8015 49.1C17.5663 50.0697 17.3284 50.8704 17.0891 51.4934L19.4038 51.8218ZM21.1052 41.3929L21.1574 41.4003C22.0711 41.5299 22.5788 42.1434 22.4319 43.179C22.2838 44.2232 21.587 44.7546 20.682 44.6263L20.6472 44.6213L21.1052 41.3929ZM20.4176 46.2399L20.435 46.2423C21.4183 46.3818 21.9983 47.1743 21.844 48.262C21.7662 48.8102 21.5466 49.2318 21.1952 49.5193C20.835 49.8055 20.4112 49.9141 19.9239 49.8449L19.9065 49.8425L20.4176 46.2399Z" fill="#181E1E"/>
<path d="M26.9536 53.168C27.937 53.3075 28.8016 52.8442 29.5575 51.7708C30.3122 50.7061 30.8352 49.1469 31.1253 47.102C31.4167 45.0483 31.3467 43.4139 30.9167 42.19C30.4854 40.9748 29.7825 40.2981 28.7992 40.1586C27.8072 40.0178 26.935 40.4711 26.1915 41.5197C25.4381 42.5757 24.9163 44.1262 24.625 46.1798C24.3336 48.2335 24.4024 49.8766 24.8311 51.1092C25.2599 52.3418 25.9703 53.0285 26.9536 53.168ZM27.2425 51.1317C26.5203 51.0293 26.3758 49.4819 26.8005 46.4884C27.2239 43.5037 27.7917 42.0663 28.514 42.1687C29.2363 42.2712 29.3907 43.8111 28.9672 46.7958C28.5426 49.7893 27.9648 51.2342 27.2425 51.1317Z" fill="#181E1E"/>
<path d="M33.1964 53.7784C33.2824 52.7964 33.5484 51.4848 33.9868 49.8337L34.0562 49.595L35.5181 49.8024L35.5208 50.0336C35.5174 51.6221 35.4068 52.9646 35.1891 54.0611L38.2 54.4882C38.0291 53.8159 37.8841 52.9609 37.7625 51.9406C37.6409 50.9202 37.5654 49.9508 37.5359 49.0323L37.4743 47.0262C37.4436 46.1164 37.4551 45.1593 37.5175 44.1561C37.5787 43.1617 37.6686 42.34 37.7947 41.701L34.1225 41.1801C34.066 41.8289 33.9238 42.6432 33.706 43.6154C33.487 44.5963 33.2318 45.5189 32.9493 46.3843L32.3322 48.294C32.0471 49.1768 31.705 50.087 31.3131 51.0345C30.9126 51.9808 30.5367 52.7531 30.1855 53.3513L33.1964 53.7784ZM34.7749 47.3445C34.9186 46.8944 35.1377 45.9757 35.4434 44.5721L35.5913 44.5931C35.5044 45.9567 35.468 46.9013 35.471 47.4433L35.4868 48.2711L34.5209 48.134L34.7749 47.3445Z" fill="#181E1E"/>
<path d="M43.7745 55.5542C44.2966 55.6283 44.7054 55.4998 44.991 55.1764L45.3119 52.9139C45.107 53.1067 44.9704 53.1939 44.7267 53.1593C43.5172 52.9877 45.859 49.2454 42.7437 48.8034L42.4826 48.7664L42.5024 48.6272L42.5372 48.6321C44.2341 48.8728 45.393 48.0874 45.6757 46.0946C45.9769 43.9714 44.7911 42.6935 42.5634 42.3775L40.1443 42.0343C40.1576 42.9417 39.9717 44.7528 39.5865 47.4678L39.0606 51.1749C38.9939 51.5826 38.9 52.1197 38.78 52.7773C38.6514 53.4337 38.5165 54.0094 38.3741 54.5129L40.9759 54.882C40.9289 53.8367 41.0566 52.2481 41.3615 50.0987L41.4517 49.4635C41.5163 49.446 41.6058 49.4409 41.7276 49.4582C42.4934 49.5669 42.4148 50.621 42.2892 51.8193C42.2005 52.6323 42.1666 53.4974 42.299 54.1909C42.4302 54.893 42.913 55.432 43.7745 55.5542ZM42.1726 44.3815L42.2422 44.3914C43.1472 44.5198 43.6661 45.1172 43.5217 46.1353C43.3538 47.3187 42.6905 47.8017 41.7594 47.6696L41.7072 47.6622L42.1726 44.3815Z" fill="#181E1E"/>
<path d="M48.1115 55.8943C49.4603 56.0856 50.5736 55.6843 51.4676 54.7015C52.3529 53.7174 52.9381 52.2203 53.222 50.2189C53.5059 48.2174 53.3577 46.634 52.7786 45.46C52.1995 44.286 51.2305 43.607 49.8817 43.4157L47.4887 43.0762C47.5453 43.7411 47.5511 44.5764 47.5073 45.5733C47.4623 46.5789 47.3725 47.5249 47.2466 48.4125L46.9688 50.3704C46.8429 51.258 46.6661 52.1916 46.4309 53.1614C46.1956 54.1311 45.9578 54.9318 45.7185 55.5548L48.1115 55.8943ZM49.737 45.4369L49.8067 45.4468C50.3288 45.5208 50.7219 45.8784 50.9898 46.5556C51.2478 47.2402 51.2949 48.4098 51.0813 49.9152C50.8678 51.4206 50.4947 52.5484 50.0541 53.1516C49.6047 53.7537 49.1252 54.0052 48.6031 53.9311L48.5334 53.9213L49.737 45.4369Z" fill="#181E1E"/>
<path d="M55.0397 57.0546C55.9186 57.1793 56.6915 56.9871 57.3597 56.4694C58.0279 55.9517 58.4274 55.2006 58.5669 54.2172C58.7434 52.9729 58.3917 51.7601 57.8577 50.8943C57.0759 49.6471 56.0331 48.4872 56.1665 47.5474C56.2158 47.1993 56.3697 46.9282 56.6293 46.7253C56.8789 46.5299 57.1734 46.4563 57.4954 46.502C58.0958 46.5872 58.5922 46.9683 58.9769 47.6354L59.3127 45.2684C58.8808 44.7456 58.269 44.428 57.4945 44.3181C56.6156 44.1934 55.8601 44.3881 55.2192 44.9008C54.5697 45.4123 54.1776 46.1733 54.0357 47.1741C53.8393 48.4955 54.3177 49.5665 54.8865 50.4373C55.636 51.6621 56.5928 52.6145 56.4323 53.7458C56.3237 54.5115 55.7449 54.962 55.0922 54.8695C54.7877 54.8263 54.4718 54.6749 54.1273 54.413C53.7815 54.1598 53.5152 53.8468 53.3085 53.489L52.9727 55.856C53.3549 56.4783 54.1782 56.9324 55.0397 57.0546Z" fill="#181E1E"/>
</svg>
