<svg width="92" height="92" viewBox="0 0 92 92" fill="none" xmlns="http://www.w3.org/2000/svg">
<circle cx="45.9999" cy="46" r="35" transform="rotate(-24.7885 45.9999 46)" fill="#F4F1E1" stroke="black" stroke-width="2"/>
<path d="M31.0505 45.0452C30.9099 44.4211 30.7957 43.6389 30.7078 42.6809C30.6111 41.7229 30.5671 40.8176 30.5671 39.9475V39.8948H30.6199C31.4197 39.8948 32.0261 39.9299 32.4392 39.9915V37.6799C32.0437 37.759 31.4988 37.7942 30.7869 37.7942H30.5671V34.5334H31.5779C32.281 34.5334 32.8171 34.6389 33.1951 34.8411L32.8875 32.4417H28.0095C28.1589 33.0833 28.282 33.9006 28.3699 34.8938C28.4578 35.887 28.5017 36.845 28.5017 37.759V39.7366C28.5017 40.6506 28.4578 41.5999 28.3699 42.593C28.282 43.5862 28.1589 44.4036 28.0095 45.0452H31.0505Z" fill="black"/>
<path d="M38.2048 45.2209C38.5388 45.2209 38.8289 45.1418 39.0837 44.9749V42.5051C38.7234 42.76 38.2136 42.8831 37.572 42.8831H36.3679V37.759C36.3679 36.8625 36.4119 35.9133 36.5085 34.9114C36.5964 33.9182 36.7107 33.092 36.8513 32.4417H33.8279C33.9773 33.1008 34.0916 33.927 34.1882 34.9202C34.2761 35.9221 34.3201 36.8713 34.3201 37.759V39.7366C34.3201 40.6418 34.2761 41.6174 34.1794 42.6633C34.0828 43.718 33.9685 44.5706 33.8279 45.2209C34.3113 44.9133 34.8298 44.7551 35.3748 44.7551C35.8142 44.7551 36.3064 44.8342 36.8601 44.9836C37.4138 45.1418 37.8621 45.2209 38.2048 45.2209Z" fill="black"/>
<path d="M42.239 45.0452C42.1863 44.0608 42.2654 42.7249 42.4675 41.0286L42.5027 40.7825H43.9792L44.0144 41.011C44.2341 42.5842 44.3132 43.929 44.2517 45.0452H47.2927C47.0291 44.4036 46.7654 43.5774 46.5017 42.5842C46.238 41.5911 46.0271 40.6418 45.8689 39.7366L45.5261 37.759C45.3679 36.8625 45.2449 35.9133 45.1658 34.9114C45.0867 33.9182 45.0603 33.092 45.0955 32.4417H41.3865C41.4216 33.092 41.3953 33.9182 41.3162 34.9114C41.2371 35.9133 41.114 36.8625 40.9558 37.759L40.613 39.7366C40.4548 40.6506 40.2439 41.5999 39.989 42.593C39.7253 43.5862 39.4617 44.4036 39.198 45.0452H42.239ZM42.8982 38.4534C42.9773 37.9875 43.0652 37.0471 43.1707 35.6145H43.3201C43.4255 36.9768 43.5222 37.9172 43.6013 38.4534L43.7332 39.2708H42.7576L42.8982 38.4534Z" fill="black"/>
<path d="M51.0632 45.0452C50.9226 44.3948 50.8083 43.5686 50.7205 42.5754C50.6238 41.5823 50.5798 40.6331 50.5798 39.7366V34.5334H50.8083C51.5378 34.5334 52.0828 34.6389 52.4343 34.8411L52.1443 32.4417H46.9587L46.6511 34.8411C47.0291 34.6389 47.5652 34.5334 48.2771 34.5334H48.5232V39.7366C48.5232 40.6418 48.4792 41.5911 48.3914 42.5842C48.2947 43.5774 48.1716 44.4036 48.0222 45.0452H51.0632Z" fill="black"/>
<path d="M54.2537 37.7151C55.3171 36.9768 55.9939 35.8254 55.9939 34.5862C55.9939 34.0588 55.8533 33.637 55.5808 33.3293C55.2996 33.0217 54.9568 32.8635 54.5525 32.8635C54.1921 32.8635 53.8933 32.9866 53.6384 33.2415C53.3835 33.4963 53.2605 33.804 53.2605 34.1555C53.2605 34.8586 53.7439 35.3596 54.3767 35.3596C54.491 35.3596 54.5964 35.342 54.7019 35.3069C54.6316 35.6057 54.4646 35.9221 54.2097 36.2473C53.946 36.5725 53.6648 36.8274 53.366 37.0032L54.2537 37.7151Z" fill="black"/>
<path d="M60.1951 45.0452C60.0544 44.3948 59.9402 43.5686 59.8523 42.5754C59.7556 41.5823 59.7117 40.6331 59.7117 39.7366V39.051H59.8347L61.8562 45.0452H63.7458V37.759C63.7458 36.8625 63.7898 35.9133 63.8865 34.9114C63.9744 33.9182 64.0886 33.092 64.2292 32.4417H61.1882C61.4519 33.5315 61.6101 34.9641 61.6716 36.7307V38.4534H61.5486L59.5359 32.4417H57.1541C57.3035 33.092 57.4265 33.9182 57.5232 34.9114C57.6199 35.9133 57.6638 36.8625 57.6638 37.759V39.7366C57.6638 40.6331 57.6199 41.5823 57.5232 42.5754C57.4265 43.5686 57.3035 44.3948 57.1541 45.0452H60.1951Z" fill="black"/>
<path d="M31.0505 61.2209C31.6921 61.2209 32.2634 61.0452 32.7468 60.6848V58.2415C32.325 58.6633 31.9734 58.7776 31.4812 58.7776C30.3562 58.7864 29.7761 57.802 29.7585 54.7434C29.7585 53.1614 29.9167 52.0715 30.2244 51.4915C30.532 50.9114 30.8923 50.6917 31.4109 50.6917C31.8416 50.6917 32.2898 50.9465 32.5623 51.3948V48.7317C32.2371 48.4241 31.78 48.2659 31.2087 48.2659C30.3738 48.2659 29.6531 48.5735 29.0378 49.2502C28.1238 50.2258 27.5437 52.0627 27.5437 54.761C27.5437 56.9231 27.8689 58.5403 28.5105 59.6125C29.1521 60.6848 29.9958 61.2209 31.0505 61.2209Z" fill="black"/>
<path d="M37.8621 61.2209C38.196 61.2209 38.4861 61.1418 38.741 60.9749V58.5051C38.3806 58.76 37.8708 58.8831 37.2292 58.8831H36.0251V53.759C36.0251 52.8625 36.0691 51.9133 36.1658 50.9114C36.2537 49.9182 36.3679 49.092 36.5085 48.4417H33.4851C33.6345 49.1008 33.7488 49.927 33.8455 50.9202C33.9333 51.9221 33.9773 52.8713 33.9773 53.759V55.7366C33.9773 56.6418 33.9333 57.6174 33.8367 58.6633C33.74 59.718 33.6257 60.5706 33.4851 61.2209C33.9685 60.9133 34.4871 60.7551 35.032 60.7551C35.4714 60.7551 35.9636 60.8342 36.5173 60.9836C37.071 61.1418 37.5193 61.2209 37.8621 61.2209Z" fill="black"/>
<path d="M44.3748 61.0452L44.8494 58.637C44.4539 58.8479 43.9177 58.9534 43.2234 58.9534H42.0369V55.3411H42.7751C43.4519 55.3411 44.0056 55.3674 44.4275 55.429V53.1262C44.0496 53.1965 43.5046 53.2317 42.7751 53.2317H42.0369V50.5334H43.0476C43.7947 50.5334 44.3308 50.6213 44.6648 50.8059L44.3572 48.4417H39.4792C39.6287 49.092 39.7517 49.9182 39.8484 50.9114C39.9451 51.9133 39.989 52.8625 39.989 53.759V55.7366C39.989 56.6331 39.9451 57.5823 39.8484 58.5754C39.7517 59.5686 39.6287 60.3948 39.4792 61.0452H44.3748Z" fill="black"/>
<path d="M47.9607 61.0452C47.908 60.0608 47.9871 58.7249 48.1892 57.0286L48.2244 56.7825H49.7009L49.7361 57.011C49.9558 58.5842 50.0349 59.929 49.9734 61.0452H53.0144C52.7507 60.4036 52.4871 59.5774 52.2234 58.5842C51.9597 57.5911 51.7488 56.6418 51.5906 55.7366L51.2478 53.759C51.0896 52.8625 50.9666 51.9133 50.8875 50.9114C50.8083 49.9182 50.782 49.092 50.8171 48.4417H47.1082C47.1433 49.092 47.1169 49.9182 47.0378 50.9114C46.9587 51.9133 46.8357 52.8625 46.6775 53.759L46.3347 55.7366C46.1765 56.6506 45.9656 57.5999 45.7107 58.593C45.447 59.5862 45.1833 60.4036 44.9197 61.0452H47.9607ZM48.6199 54.4534C48.699 53.9875 48.7869 53.0471 48.8923 51.6145H49.0417C49.1472 52.9768 49.2439 53.9172 49.323 54.4534L49.4548 55.2708H48.4792L48.6199 54.4534Z" fill="black"/>
<path d="M56.3542 61.0452C56.2136 60.3948 56.0994 59.5686 56.0115 58.5754C55.9148 57.5823 55.8708 56.6331 55.8708 55.7366V55.051H55.9939L58.0154 61.0452H59.905V53.759C59.905 52.8625 59.949 51.9133 60.0457 50.9114C60.1335 49.9182 60.2478 49.092 60.3884 48.4417H57.3474C57.6111 49.5315 57.7693 50.9641 57.8308 52.7307V54.4534H57.7078L55.6951 48.4417H53.3132C53.4626 49.092 53.5857 49.9182 53.6824 50.9114C53.7791 51.9133 53.823 52.8625 53.823 53.759V55.7366C53.823 56.6331 53.7791 57.5823 53.6824 58.5754C53.5857 59.5686 53.4626 60.3948 53.3132 61.0452H56.3542Z" fill="black"/>
<path d="M63.8513 60.843C64.115 60.5793 64.2468 60.2717 64.2468 59.9114C64.2468 59.551 64.115 59.2434 63.8513 58.9709C63.5789 58.7073 63.2712 58.5754 62.9109 58.5754C62.5505 58.5754 62.2429 58.7073 61.9792 58.9709C61.7156 59.2346 61.5837 59.551 61.5837 59.9114C61.5837 60.2717 61.7156 60.5881 61.9792 60.8518C62.2429 61.1155 62.5505 61.2473 62.9109 61.2473C63.2712 61.2473 63.5789 61.1155 63.8513 60.843Z" fill="black"/>
</svg>
