<svg width="350" height="60" viewBox="0 0 350 60" fill="none" xmlns="http://www.w3.org/2000/svg">
<path d="M0 0H350V60H0V0Z" fill="#181E1E"/>
<path fill-rule="evenodd" clip-rule="evenodd" d="M316.634 43.5415L330 29.7319L316.634 16C314.511 16 312.467 16 310.344 16.0772L322.924 29.7324L310.344 43.4643C312.467 43.5415 314.511 43.4642 316.634 43.5415Z" fill="#F4F1E1"/>
<path fill-rule="evenodd" clip-rule="evenodd" d="M304.368 43.5415L317.735 29.7319L304.368 16C302.246 16 300.201 16 298 16.0772L310.658 29.7324L298 43.4643C300.201 43.5415 302.246 43.4642 304.368 43.5415Z" fill="#F4F1E1"/>
<path d="M30.5625 42.3906C33.3125 42.3906 35.8906 41.5781 37.7031 40.0156V29.0156H29.7031L29.4688 32.2969C30.0469 32.125 30.8281 32.0469 31.8125 32.0469H33.4375V37.4219C32.7969 37.8906 31.9062 38.125 30.7812 38.125C29.125 38.125 27.7969 37.5 26.7812 36.25C25.7656 35 25.25 33.2031 25.25 30.8594C25.25 28.5625 25.8281 26.75 26.9844 25.4375C28.1406 24.125 29.6875 23.4688 31.6094 23.4688C33.3125 23.4688 35.1094 24 36.1875 24.9375L36.25 20.4688C34.7812 19.6406 32.9531 19.2188 30.7812 19.2188C27.9844 19.2188 25.5156 20.3438 23.7344 22.2969C21.9531 24.25 20.8594 27.2812 20.8594 30.8281C20.8594 33.75 21.5312 36.2969 22.7031 38.125C24.4688 40.8906 27.2656 42.3906 30.5625 42.3906Z" fill="#F4F1E1"/>
<path d="M54.1719 42L54.9375 37.0781C54.1719 37.5312 52.6875 37.75 50.5156 37.75H45.375V32.0469H49.6562C51.1719 32.0469 52.25 32.0938 52.8906 32.2031V28.75C52.0312 28.8594 50.9531 28.9062 49.6562 28.9062H45.375V23.8594H50.5938C52.4844 23.8594 53.7344 24.0469 54.3281 24.4062L53.6562 19.5938H40.4688C40.875 21.3906 41.0781 23.6406 41.0781 26.3125V35.2812C41.0781 37.9219 40.875 40.1719 40.4688 42H54.1719Z" fill="#F4F1E1"/>
<path d="M66.8125 42C66.4062 40.3125 66.2031 38.0781 66.2031 35.2812V23.8906H68.2656C69.6094 23.8906 70.7344 24.0938 71.625 24.5L70.875 19.5938H57.125L56.4219 24.5C57.3125 24.0938 58.4375 23.8906 59.7812 23.8906H61.9219V35.2812C61.9219 37.9219 61.7188 40.1719 61.3125 42H66.8125Z" fill="#F4F1E1"/>
<path d="M89.75 42C89.3438 40.3125 89.1406 38.0781 89.1406 35.2812V23.8906H91.2031C92.5469 23.8906 93.6719 24.0938 94.5625 24.5L93.8125 19.5938H80.0625L79.3594 24.5C80.25 24.0938 81.375 23.8906 82.7188 23.8906H84.8594V35.2812C84.8594 37.9219 84.6562 40.1719 84.25 42H89.75Z" fill="#F4F1E1"/>
<path d="M102.141 42C101.75 40.2969 101.562 38.0469 101.562 35.2812V32.2656H108.562V35.2812C108.562 38.0469 108.375 40.2969 107.984 42H113.469C113.078 40.2969 112.891 38.0469 112.891 35.2812V26.3125C112.891 23.5469 113.078 21.2969 113.469 19.5938H107.984C108.375 21.2969 108.562 23.5469 108.562 26.3125V29.1406H101.562V26.3125C101.562 23.5469 101.75 21.2969 102.141 19.5938H96.6562C97.0469 21.2969 97.2344 23.5469 97.2344 26.3125V35.2812C97.2344 38.0469 97.0469 40.2969 96.6562 42H102.141Z" fill="#F4F1E1"/>
<path d="M130.359 42L131.125 37.0781C130.359 37.5312 128.875 37.75 126.703 37.75H121.562V32.0469H125.844C127.359 32.0469 128.438 32.0938 129.078 32.2031V28.75C128.219 28.8594 127.141 28.9062 125.844 28.9062H121.562V23.8594H126.781C128.672 23.8594 129.922 24.0469 130.516 24.4062L129.844 19.5938H116.656C117.062 21.3906 117.266 23.6406 117.266 26.3125V35.2812C117.266 37.9219 117.062 40.1719 116.656 42H130.359Z" fill="#F4F1E1"/>
<path d="M144.125 42C144.125 40.7969 144.359 39.1875 144.828 37.2031L145.156 35.9844H151.359L151.703 37.1719C152.141 39.0312 152.375 40.6406 152.406 42H157.891C157.062 40.1875 156.312 37.9531 155.609 35.2812L152.953 26.3125C152.375 24.125 152.078 21.8906 152.031 19.5938H144.516C144.469 21.7812 144.156 24.0156 143.547 26.3125L140.891 35.2812C140.188 37.9531 139.438 40.1875 138.625 42H144.125ZM147.359 28.3438C147.547 27.6719 147.719 26.875 147.797 26.4219C147.828 26.2031 147.875 25.875 147.953 25.4219C148.031 24.9688 148.078 24.6406 148.125 24.4375H148.375C148.703 26.2969 148.969 27.6094 149.156 28.3438L150.625 32.9688H145.891L147.359 28.3438Z" fill="#F4F1E1"/>
<path d="M166.359 42C169.25 42 171.547 41.0156 173.281 39.0312C175 37.0625 175.859 34.3125 175.859 30.7656C175.859 27.25 175 24.5 173.281 22.5312C171.547 20.5781 169.25 19.5938 166.359 19.5938H159.281C159.688 21.3906 159.891 23.6406 159.891 26.3125V35.2812C159.891 37.9219 159.688 40.1719 159.281 42H166.359ZM164.188 23.7969H166.578C167.969 23.7969 169.109 24.4062 170.031 25.625C170.938 26.8438 171.391 28.5625 171.391 30.7656C171.391 33 170.938 34.7188 170.031 35.9531C169.125 37.1875 167.969 37.8125 166.578 37.8125H164.188V23.7969Z" fill="#F4F1E1"/>
<path d="M185.234 42C188.125 42 190.422 41.0156 192.156 39.0312C193.875 37.0625 194.734 34.3125 194.734 30.7656C194.734 27.25 193.875 24.5 192.156 22.5312C190.422 20.5781 188.125 19.5938 185.234 19.5938H178.156C178.562 21.3906 178.766 23.6406 178.766 26.3125V35.2812C178.766 37.9219 178.562 40.1719 178.156 42H185.234ZM183.062 23.7969H185.453C186.844 23.7969 187.984 24.4062 188.906 25.625C189.812 26.8438 190.266 28.5625 190.266 30.7656C190.266 33 189.812 34.7188 188.906 35.9531C188 37.1875 186.844 37.8125 185.453 37.8125H183.062V23.7969Z" fill="#F4F1E1"/>
<path d="M211.562 42.4531C212.688 42.4531 213.719 41.9375 214.219 41.1406L214.062 35.7656C213.547 36.8438 212.828 37.3906 211.891 37.3906C209.438 37.3906 210.812 30.9844 205.938 30.9844H205.734V30.7656H206C207.984 30.7656 209.578 30.2812 210.781 29.2969C211.984 28.3125 212.594 26.9688 212.594 25.2656C212.594 23.4375 211.922 22.0469 210.578 21.0625C209.219 20.0781 207.438 19.5938 205.234 19.5938H196.969C197.266 21.0781 197.422 23.3438 197.422 26.4219V35.1875C197.422 37.9531 197.266 40.2344 196.969 42H202.25C201.938 40.5625 201.781 38.4062 201.781 35.5312V32.375C202.016 32.2656 202.516 32.2031 203.281 32.2031C208.766 32.2031 205.281 42.4531 211.562 42.4531ZM201.781 23.7344H204.719C206.797 23.7344 208.172 24.7344 208.172 26.4844C208.172 28.375 206.812 29.4219 204.562 29.4219H201.781V23.7344Z" fill="#F4F1E1"/>
<path d="M229.828 42L230.594 37.0781C229.828 37.5312 228.344 37.75 226.172 37.75H221.031V32.0469H225.312C226.828 32.0469 227.906 32.0938 228.547 32.2031V28.75C227.688 28.8594 226.609 28.9062 225.312 28.9062H221.031V23.8594H226.25C228.141 23.8594 229.391 24.0469 229.984 24.4062L229.312 19.5938H216.125C216.531 21.3906 216.734 23.6406 216.734 26.3125V35.2812C216.734 37.9219 216.531 40.1719 216.125 42H229.828Z" fill="#F4F1E1"/>
<path d="M239.688 42.3906C241.984 42.3906 243.875 41.8438 245.328 40.75C246.781 39.6719 247.5 38.1719 247.5 36.2656C247.5 35.3125 247.312 34.4375 246.922 33.6562C246.156 32.1094 244.875 31.2031 243.391 30.375C240.438 28.7656 237.031 27.9531 237.031 25.7812C237.031 25.0781 237.359 24.5312 238.016 24.1094C238.656 23.7031 239.5 23.5 240.547 23.5C242.672 23.5 244.828 24.2344 246.25 25.3594V20.5312C244.453 19.6562 242.469 19.2188 240.297 19.2188C235.953 19.1562 232.562 21.625 232.625 25.3594C232.625 28.3125 234.547 30.0312 236.734 31.1719C239.656 32.7656 243.047 33.625 243.047 35.7969C243.047 36.5469 242.719 37.125 242.047 37.5312C241.375 37.9531 240.5 38.1562 239.438 38.1562C238.266 38.1562 237.062 37.9531 235.797 37.5312C234.531 37.1094 233.438 36.5156 232.516 35.7344L232.391 40.6562C233.359 41.1719 234.531 41.5781 235.906 41.9062C237.281 42.2344 238.547 42.3906 239.688 42.3906Z" fill="#F4F1E1"/>
<path d="M256.438 42.3906C258.734 42.3906 260.625 41.8438 262.078 40.75C263.531 39.6719 264.25 38.1719 264.25 36.2656C264.25 35.3125 264.062 34.4375 263.672 33.6562C262.906 32.1094 261.625 31.2031 260.141 30.375C257.188 28.7656 253.781 27.9531 253.781 25.7812C253.781 25.0781 254.109 24.5312 254.766 24.1094C255.406 23.7031 256.25 23.5 257.297 23.5C259.422 23.5 261.578 24.2344 263 25.3594V20.5312C261.203 19.6562 259.219 19.2188 257.047 19.2188C252.703 19.1562 249.312 21.625 249.375 25.3594C249.375 28.3125 251.297 30.0312 253.484 31.1719C256.406 32.7656 259.797 33.625 259.797 35.7969C259.797 36.5469 259.469 37.125 258.797 37.5312C258.125 37.9531 257.25 38.1562 256.188 38.1562C255.016 38.1562 253.812 37.9531 252.547 37.5312C251.281 37.1094 250.188 36.5156 249.266 35.7344L249.141 40.6562C250.109 41.1719 251.281 41.5781 252.656 41.9062C254.031 42.2344 255.297 42.3906 256.438 42.3906Z" fill="#F4F1E1"/>
</svg>
