<svg width="346" height="118" viewBox="0 0 346 118" fill="none" xmlns="http://www.w3.org/2000/svg">
<path d="M17.562 27.5239C18.4292 27.5239 19.5312 27.3613 20.1274 27.2349C20.4165 27.1626 20.7778 27.0723 21.2114 26.9458C21.645 26.8374 21.916 26.7651 22.0063 26.7471L22.2231 21.1826C20.832 21.833 18.7905 22.1582 16.0806 22.1582H6.57764V7.27148C6.57764 4.83252 6.74023 2.77295 7.0835 1.09277H0.940918C1.32031 2.75488 1.50098 4.83252 1.50098 7.30762V20.7852C1.50098 23.5854 1.32031 25.8257 0.940918 27.5239C1.71777 27.2529 2.74756 27 4.01221 26.7832C5.25879 26.5845 6.5415 26.4761 7.82422 26.4761C9.14307 26.4761 10.8052 26.6567 12.8286 27C14.834 27.3433 16.4238 27.5239 17.562 27.5239Z" fill="#E0B967"/>
<path d="M32.1597 27C31.8164 25.5005 31.6538 23.4409 31.6538 20.7852V7.30762C31.6538 4.65186 31.8164 2.59229 32.1597 1.09277H26.0171C26.3604 2.64648 26.541 4.72412 26.541 7.30762V20.7852C26.541 23.3687 26.3604 25.4463 26.0171 27H32.1597Z" fill="#E0B967"/>
<path d="M53.0264 27C53.1167 25.3198 53.5322 23.2603 54.3091 20.7852L60.0542 7.30762C61.0117 4.38086 61.8066 2.30322 62.457 1.09277H56.2783C56.1519 2.37549 55.8086 3.875 55.2847 5.57324L50.1719 18.0752C49.9731 18.5991 49.5215 20.0083 48.7988 22.2666H48.4736C48.311 21.7065 47.8594 20.3154 47.1006 18.0752L41.9878 5.57324C41.4458 4.01953 41.1206 2.52002 41.0303 1.09277H34.8154C35.4658 2.30322 36.2607 4.38086 37.2183 7.30762L42.9272 20.8213C43.5776 22.9893 44.0112 25.0488 44.2461 27H53.0264Z" fill="#E0B967"/>
<path d="M86.3228 27L87.1357 21.2368C86.1782 21.7607 84.2812 22.0137 81.4448 22.0137H70.7134V16.4492H79.9995C81.5713 16.4492 82.854 16.5215 83.8115 16.6841V11.6797C82.8179 11.8062 81.5532 11.8604 79.9995 11.8604H70.7134V6.09717H81.5171C83.9019 6.09717 85.4556 6.31396 86.1782 6.72949L85.3652 1.09277H65.0767C65.4561 2.75488 65.6367 4.83252 65.6367 7.30762V20.7852C65.6367 23.2603 65.4561 25.3379 65.0767 27H86.3228Z" fill="#E0B967"/>
<path d="M111.471 27.4878C114.813 27.4878 117.523 26.7651 119.601 25.3379C121.679 23.9106 122.708 21.9956 122.708 19.5928C122.708 17.479 121.877 15.7808 120.577 14.769C119.258 13.7573 117.505 12.9985 115.626 12.5649C110.965 11.3906 105.708 11.3184 105.726 8.3916C105.726 6.56689 107.984 5.57324 111.688 5.57324C113.458 5.57324 115.175 5.80811 116.819 6.25977C118.463 6.72949 119.8 7.30762 120.83 7.97607V2.39355C119.691 1.90576 118.3 1.47217 116.638 1.12891C114.976 0.785645 113.278 0.623047 111.543 0.623047C108.382 0.623047 105.762 1.36377 103.685 2.84521C101.607 4.34473 100.559 6.2417 100.559 8.53613C100.559 10.7041 101.39 12.4023 102.691 13.4502C103.992 14.498 105.744 15.2749 107.623 15.7085C112.248 16.8286 117.469 16.9731 117.469 19.7192C117.469 20.7129 116.909 21.4536 115.807 21.9414C114.687 22.4292 113.188 22.6641 111.327 22.6641C109.394 22.6641 107.388 22.375 105.311 21.7788C103.233 21.2007 101.462 20.3696 99.999 19.2676L99.8184 25.085C101.354 25.7534 103.251 26.3315 105.527 26.7832C107.786 27.2529 109.773 27.4878 111.471 27.4878Z" fill="#E0B967"/>
<path d="M139.601 27C139.239 25.5547 139.059 23.4771 139.059 20.7852V6.16943H143.9C145.508 6.16943 146.863 6.4043 147.929 6.87402L147.044 1.09277H125.888L124.985 6.87402C126.051 6.4043 127.388 6.16943 129.032 6.16943H133.982V20.7852C133.982 23.188 133.801 25.2476 133.458 27H139.601Z" fill="#E0B967"/>
<path d="M173.818 27.5601C175.246 27.5601 176.619 26.9097 177.341 25.9702L176.962 19.4482C176.33 20.9116 175.661 21.6704 174.125 21.6704C172.752 21.6704 172.03 20.4238 171.199 18.9966C170.639 18.0571 169.934 17.0454 169.067 16.2324C168.182 15.4375 166.754 14.8955 165.02 14.8955H164.912V14.6787H165.616C168.127 14.6787 170.223 14.0103 171.885 12.6733C173.547 11.3545 174.378 9.69238 174.378 7.68701C174.378 5.69971 173.529 4.10986 171.849 2.89941C170.151 1.68896 168.001 1.09277 165.381 1.09277H151.651C151.976 2.71875 152.139 4.79639 152.139 7.30762V20.7852C152.139 23.2603 151.976 25.3379 151.651 27H157.757C157.414 25.4644 157.251 23.3867 157.251 20.7852V16.7563C157.631 16.5757 158.751 16.4854 160.612 16.4854C162.617 16.4854 164.171 17.0273 165.128 17.8765C166.068 18.7437 166.772 19.8818 167.278 21.0923C168.561 24.1274 169.229 27.5601 173.818 27.5601ZM157.251 5.98877H164.568C165.905 5.98877 167.007 6.2959 167.893 6.92822C168.76 7.56055 169.193 8.3374 169.193 9.24072C169.193 11.3184 167.224 12.5649 164.099 12.5649H157.251V5.98877Z" fill="#E0B967"/>
<path d="M201.081 27L201.894 21.2368C200.936 21.7607 199.039 22.0137 196.203 22.0137H185.471V16.4492H194.757C196.329 16.4492 197.612 16.5215 198.569 16.6841V11.6797C197.576 11.8062 196.311 11.8604 194.757 11.8604H185.471V6.09717H196.275C198.66 6.09717 200.213 6.31396 200.936 6.72949L200.123 1.09277H179.834C180.214 2.75488 180.395 4.83252 180.395 7.30762V20.7852C180.395 23.2603 180.214 25.3379 179.834 27H201.081Z" fill="#E0B967"/>
<path d="M209.391 27C209.445 26.1147 209.933 24.6694 210.836 22.6641L211.505 21.1104H223.537L224.206 22.6641C225.073 24.7056 225.561 26.1509 225.651 27H231.83C231.053 25.5547 230.095 23.4771 228.939 20.7852L223.194 7.30762C222.634 5.98877 222.218 3.9292 221.911 1.09277H213.167C212.914 3.6582 212.462 5.73584 211.812 7.30762L206.103 20.7852C205.091 23.188 204.116 25.2476 203.176 27H209.391ZM216.021 9.90918C216.329 9.13232 216.762 7.77734 217.358 5.84424H217.684C218.226 7.66895 218.659 9.00586 218.984 9.87305L222.092 16.9731H212.95L216.021 9.90918Z" fill="#E0B967"/>
<path d="M240.104 27C239.761 25.5005 239.598 23.4409 239.598 20.7852V8.13867H239.851L248.396 27H250.203L258.767 8.13867H259.092V20.7852C259.092 23.188 258.911 25.2476 258.568 27H264.71C264.349 25.5547 264.168 23.4771 264.168 20.7852V7.30762C264.168 4.61572 264.349 2.53809 264.71 1.09277H257.827L252.1 13.9741C251.992 14.2451 251.811 14.6606 251.576 15.2207C251.323 15.7988 251.143 16.2324 251.016 16.5215C250.89 16.8286 250.727 17.208 250.546 17.6597C250.167 18.5991 249.86 19.4121 249.553 20.3335H249.246C248.776 19.0508 247.909 16.937 246.662 14.0103L240.953 1.09277H233.961C234.305 2.64648 234.485 4.72412 234.485 7.30762V20.7852C234.485 23.3687 234.305 25.4463 233.961 27H240.104Z" fill="#E0B967"/>
<path d="M276.02 27C275.677 25.5005 275.514 23.4409 275.514 20.7852V7.30762C275.514 4.65186 275.677 2.59229 276.02 1.09277H269.877C270.221 2.64648 270.401 4.72412 270.401 7.30762V20.7852C270.401 23.3687 270.221 25.4463 269.877 27H276.02Z" fill="#E0B967"/>
<path d="M287.366 27C287.022 25.2656 286.86 23.0977 286.86 20.4961V8.5H287.293L300.988 27H305.83V7.30762C305.83 4.72412 306.01 2.64648 306.354 1.09277H300.211C300.554 2.79102 300.735 4.85059 300.735 7.27148V19.3037H300.283L286.824 1.12891L281.223 1.09277C281.603 2.75488 281.783 4.83252 281.783 7.30762V20.7852C281.783 23.2603 281.603 25.3379 281.223 27H287.366Z" fill="#E0B967"/>
<path d="M324.835 27.4878C327.021 27.4878 329.117 27.1626 331.123 26.5122C333.128 25.8618 334.862 24.9585 336.29 23.7842V11.8965H324.131L323.896 16.7563C324.727 16.5757 325.739 16.4854 326.931 16.4854H331.231V20.6045C329.768 21.7788 327.491 22.4834 325.052 22.4834C322.252 22.4834 319.976 21.7246 318.241 20.207C316.489 18.7075 315.622 16.7021 315.622 14.2271C315.622 11.6616 316.597 9.56592 318.53 7.93994C320.463 6.31396 322.975 5.50098 326.082 5.50098C327.509 5.50098 328.955 5.68164 330.382 6.0249C331.809 6.38623 332.965 6.89209 333.851 7.54248L334.031 2.50195C331.863 1.3999 328.629 0.623047 325.016 0.623047C320.951 0.623047 317.266 2.03223 314.7 4.38086C312.135 6.72949 310.545 10.2344 310.545 14.1909C310.545 16.8286 311.159 19.1592 312.388 21.1826C313.616 23.2241 315.314 24.7778 317.482 25.8618C319.632 26.9458 322.089 27.4878 324.835 27.4878Z" fill="#E0B967"/>
<path d="M342.154 32.1953C344.244 30.6914 345.631 28.2891 345.631 25.7695C345.631 23.7188 344.4 22.4492 342.838 22.4492C341.451 22.4492 340.396 23.5234 340.396 24.8711C340.396 26.1797 341.354 27.1562 342.545 27.1562C342.721 27.1562 343.092 27.0781 343.15 27.0781C343.053 27.7227 342.76 28.4062 342.232 29.1289C341.705 29.8516 341.1 30.3984 340.436 30.8086L342.154 32.1953Z" fill="#E0B967"/>
<path d="M8.10547 70C7.62207 67.8892 7.38037 65.1016 7.38037 61.6533V59.9292H13.1167V61.6533C13.1167 65.1499 12.8589 67.9214 12.3594 70H19.2881C18.8047 67.8892 18.563 65.1016 18.563 61.6533V55.2563C18.563 51.792 18.8047 49.0044 19.2881 46.8936H12.3594C12.8589 48.9722 13.1167 51.7598 13.1167 55.2563V56.771H7.38037V55.2563C7.38037 51.792 7.62207 49.0044 8.10547 46.8936H1.17676C1.67627 48.9722 1.93408 51.7598 1.93408 55.2563V61.6533C1.93408 65.1499 1.67627 67.9214 1.17676 70H8.10547Z" fill="#181E1E"/>
<path d="M29.085 70C28.5854 67.7925 28.3276 65.0049 28.3276 61.6533V55.2563C28.3276 51.8887 28.5854 49.1011 29.085 46.8936H22.1562C22.6558 49.1011 22.9136 51.8887 22.9136 55.2563V61.6533C22.9136 65.0049 22.6558 67.7925 22.1562 70H29.085Z" fill="#181E1E"/>
<path d="M41.2344 70.4028C44.2637 70.4028 47.1641 69.5166 49.0493 67.7925V56.6099H40.4287L40.2676 59.897C40.8638 59.7197 41.6211 59.6392 42.5396 59.6392H43.6997V64.4893C43.2002 64.8438 42.459 65.021 41.4922 65.021C40.0581 65.021 38.9141 64.4731 38.0278 63.3936C37.1416 62.314 36.7065 60.6865 36.7065 58.5112C36.7065 56.4004 37.2383 54.7729 38.3018 53.5967C39.3491 52.4365 40.7993 51.8564 42.6523 51.8564C43.5063 51.8564 44.3604 51.9854 45.2144 52.2593C46.0522 52.5332 46.729 52.9038 47.2607 53.4033L47.293 47.7637C45.7461 46.9258 43.8286 46.5068 41.5244 46.5068C38.5757 46.5068 35.9976 47.6509 34.1445 49.6489C32.2754 51.6631 31.1636 54.7729 31.1636 58.4468C31.1636 62.2495 32.2593 65.3755 34.0801 67.3574C35.8848 69.3394 38.3823 70.4028 41.2344 70.4028Z" fill="#181E1E"/>
<path d="M58.3467 70C57.8633 67.8892 57.6216 65.1016 57.6216 61.6533V59.9292H63.3579V61.6533C63.3579 65.1499 63.1001 67.9214 62.6006 70H69.5293C69.0459 67.8892 68.8042 65.1016 68.8042 61.6533V55.2563C68.8042 51.792 69.0459 49.0044 69.5293 46.8936H62.6006C63.1001 48.9722 63.3579 51.7598 63.3579 55.2563V56.771H57.6216V55.2563C57.6216 51.792 57.8633 49.0044 58.3467 46.8936H51.418C51.9175 48.9722 52.1753 51.7598 52.1753 55.2563V61.6533C52.1753 65.1499 51.9175 67.9214 51.418 70H58.3467Z" fill="#181E1E"/>
<path d="M92.4585 74.7856C93.7314 74.7856 94.8755 74.2539 95.8906 73.2065L94.5693 70.8218C94.0376 71.4824 93.2803 71.8208 92.2974 71.8208C91.9912 71.8208 91.6689 71.7725 91.4111 71.7241C91.1533 71.6758 90.7505 71.5469 90.5571 71.4824C90.3477 71.418 89.8481 71.1924 89.7031 71.1279C89.6064 71.0796 88.9136 70.7573 88.833 70.7251V70.4028C91.2339 70.1128 93.1675 68.9204 94.6499 66.8418C96.1162 64.7632 96.8574 61.9756 96.8574 58.4468C96.8574 54.5957 95.8745 51.4375 94.2148 49.4717C92.5391 47.5059 90.2993 46.4424 87.6729 46.4424C85.0464 46.4424 82.8066 47.5059 81.147 49.4717C79.4873 51.4375 78.5044 54.5957 78.5044 58.4468C78.5044 61.4438 79.0522 63.9253 80.1318 65.8911C81.2114 67.873 82.6777 69.2104 84.5146 69.9033V70.2256C83.0483 70.6768 81.9365 71.708 81.3726 72.9326L83.1934 74.689C83.854 73.5771 84.6597 72.9004 86.0615 72.9004C87.1089 72.9004 88.3979 73.3838 89.2681 73.8511C90.1382 74.3022 91.4111 74.7856 92.4585 74.7856ZM87.6729 65.875C85.562 65.875 84.1763 63.2969 84.1763 58.4468C84.1763 53.5483 85.562 50.9863 87.6729 50.9863C89.7515 50.9863 91.1694 53.5645 91.1694 58.4468C91.1694 63.2969 89.7515 65.875 87.6729 65.875Z" fill="#181E1E"/>
<path d="M107.927 70.4028C110.586 70.4028 112.665 69.6777 114.163 68.2114C115.646 66.7451 116.387 64.6343 116.387 61.8467V55.2563C116.387 51.8887 116.645 49.1011 117.144 46.8936H110.215C110.715 49.1011 110.973 51.8887 110.973 55.2563V60.9604C110.973 63.5386 109.877 64.9888 107.959 64.9888C106.026 64.9888 104.962 63.5547 104.962 60.9604V55.2563C104.962 51.9531 105.204 49.1655 105.688 46.8936H98.7588C99.0005 47.8926 99.1938 49.1655 99.3389 50.6963C99.4839 52.2432 99.5483 53.7578 99.5483 55.2563V61.8467C99.5483 64.7471 100.418 67.0029 101.933 68.3564C103.448 69.7261 105.462 70.4028 107.927 70.4028Z" fill="#181E1E"/>
<path d="M124.314 70C124.282 68.5015 124.476 66.6001 124.895 64.2959L125.136 63.458H130.083L130.276 64.2959C130.728 66.5679 130.937 68.4692 130.905 70H137.833C136.851 67.728 135.98 64.9565 135.223 61.6533L133.451 55.2563C133.145 53.8545 132.903 52.356 132.726 50.793C132.532 49.23 132.436 47.9409 132.452 46.8936H122.784C122.784 47.957 122.687 49.2622 122.51 50.8091C122.316 52.3721 122.059 53.8545 121.736 55.2563L119.98 61.6533C119.642 63.1035 119.239 64.6021 118.755 66.1489C118.272 67.6958 117.805 68.9849 117.37 70H124.314ZM126.748 57.1255C126.925 56.4004 127.07 55.5142 127.15 54.9663C127.215 54.499 127.36 53.2422 127.44 52.7749H127.779C128.053 54.8535 128.278 56.3037 128.472 57.1255L129.455 60.4287H125.765L126.748 57.1255Z" fill="#181E1E"/>
<path d="M151.127 70.4351C151.771 70.4351 152.545 70.2739 152.964 70.1128C153.383 69.9355 153.85 69.71 153.866 69.71L153.931 63.6353C152.883 64.2959 151.417 64.6182 149.516 64.6182H144.988V55.1758C144.988 51.8726 145.246 49.1011 145.745 46.8936H138.816C139.316 49.1011 139.574 51.8887 139.574 55.2563V61.6533C139.574 63.1519 139.509 64.7471 139.364 66.4067C139.219 68.0825 139.042 69.4199 138.816 70.4351C140.234 69.6777 141.749 69.3071 143.376 69.3071C144.537 69.3071 145.89 69.5005 147.421 69.8711C148.952 70.2417 150.176 70.4351 151.127 70.4351Z" fill="#181E1E"/>
<path d="M162.89 70C162.39 67.7925 162.132 65.0049 162.132 61.6533V55.2563C162.132 51.8887 162.39 49.1011 162.89 46.8936H155.961C156.46 49.1011 156.718 51.8887 156.718 55.2563V61.6533C156.718 65.0049 156.46 67.7925 155.961 70H162.89Z" fill="#181E1E"/>
<path d="M176.457 70C175.958 67.7925 175.7 65.0049 175.7 61.6533V52.3398H177.408C178.938 52.3398 180.163 52.5977 181.098 53.1294L180.211 46.8936H165.661L164.775 53.1294C165.758 52.5977 166.982 52.3398 168.465 52.3398H170.286V61.6533C170.286 65.0049 170.028 67.7925 169.528 70H176.457Z" fill="#181E1E"/>
<path d="M194.713 70C194.246 68.0342 194.021 65.9233 194.021 63.6675V61.9111L197.098 55.2563C197.759 53.7256 198.484 52.1948 199.273 50.6641C200.047 49.1333 200.756 47.8926 201.384 46.9258H194.294C193.988 48.6177 193.424 50.6479 192.57 53.0327L191.41 55.208H191.088L189.96 53.0649C189.138 50.6963 188.558 48.6499 188.252 46.9258H181.146C182.516 49.0044 183.95 51.7759 185.448 55.2563L188.51 61.9111V63.6675C188.51 65.8267 188.268 67.9375 187.785 70H194.713Z" fill="#181E1E"/>
<path d="M224.442 70.4995C225.748 70.4995 226.956 69.7905 227.472 68.8721L227.407 62.0723C226.795 63.4097 225.876 64.0864 224.668 64.0864C222.299 64.0864 223.508 58.6885 219.222 58.6885H218.996V58.4468H219.157C221.268 58.4468 222.96 57.9634 224.249 56.9966C225.522 56.0298 226.167 54.6279 226.167 52.7749C226.167 50.8574 225.458 49.4072 224.023 48.3921C222.589 47.3931 220.704 46.8936 218.335 46.8936H209.231C209.602 48.6177 209.795 51.4375 209.795 55.353V61.5566C209.795 65.0371 209.602 67.8569 209.231 70H215.87C215.451 68.0986 215.242 65.4399 215.242 62.04V60.042C215.435 59.9453 215.79 59.897 216.289 59.897C218.352 59.897 218.948 61.8628 219.415 64.0703C219.721 65.5688 220.092 67.1479 220.72 68.3887C221.349 69.6294 222.622 70.4995 224.442 70.4995ZM215.242 52.082H217.643C219.399 52.082 220.607 52.9683 220.607 54.5635C220.607 56.3198 219.431 57.2222 217.546 57.2222H215.242V52.082Z" fill="#181E1E"/>
<path d="M243.923 70L244.89 63.7642C244.455 64.0381 243.859 64.2476 243.102 64.3926C242.344 64.5376 241.216 64.6182 239.702 64.6182H235.544V59.7036H239.041C240.459 59.7036 241.619 59.752 242.538 59.8647V56.3359C241.619 56.4487 240.459 56.4971 239.041 56.4971H235.544V52.2754H240.008C242.215 52.2754 243.617 52.501 244.229 52.9683L243.392 46.8936H229.341C229.583 47.9087 229.776 49.1978 229.921 50.7446C230.066 52.3076 230.13 53.8062 230.13 55.2563V61.6533C230.13 63.1035 230.066 64.6021 229.921 66.1489C229.776 67.6958 229.583 68.9849 229.341 70H243.923Z" fill="#181E1E"/>
<path d="M254.026 70C253.543 67.9214 253.301 65.1821 253.301 61.7822V59.478H253.591C253.817 60.8154 254.381 61.8628 255.299 62.5879C256.202 63.3291 257.313 63.6997 258.619 63.6997C260.278 63.6997 261.648 62.9746 262.728 61.5083C263.791 60.042 264.323 58.0117 264.323 55.3853C264.323 49.9551 260.665 46.8936 255.912 46.8936H247.098C247.339 47.8926 247.533 49.1655 247.678 50.6963C247.823 52.2432 247.887 53.7578 247.887 55.2563V61.6533C247.887 65.0532 247.629 67.8408 247.098 70H254.026ZM254.22 58.5596C253.656 57.8667 253.35 57.0127 253.301 55.9814V52.1143C254.139 51.9854 254.864 51.9209 255.477 51.9209C256.459 51.9209 257.265 52.2754 257.894 53.0005C258.506 53.7256 258.812 54.6602 258.812 55.8364C258.812 57.0127 258.57 57.9473 258.087 58.6079C257.587 59.2686 256.959 59.6069 256.202 59.6069C255.444 59.6069 254.784 59.2524 254.22 58.5596Z" fill="#181E1E"/>
<path d="M278.325 70.4351C278.97 70.4351 279.743 70.2739 280.162 70.1128C280.581 69.9355 281.048 69.71 281.064 69.71L281.129 63.6353C280.082 64.2959 278.615 64.6182 276.714 64.6182H272.186V55.1758C272.186 51.8726 272.444 49.1011 272.943 46.8936H266.015C266.514 49.1011 266.772 51.8887 266.772 55.2563V61.6533C266.772 63.1519 266.708 64.7471 266.562 66.4067C266.417 68.0825 266.24 69.4199 266.015 70.4351C267.433 69.6777 268.947 69.3071 270.575 69.3071C271.735 69.3071 273.088 69.5005 274.619 69.8711C276.15 70.2417 277.375 70.4351 278.325 70.4351Z" fill="#181E1E"/>
<path d="M288.251 70C288.219 68.5015 288.412 66.6001 288.831 64.2959L289.073 63.458H294.02L294.213 64.2959C294.664 66.5679 294.874 68.4692 294.841 70H301.77C300.787 67.728 299.917 64.9565 299.16 61.6533L297.387 55.2563C297.081 53.8545 296.839 52.356 296.662 50.793C296.469 49.23 296.372 47.9409 296.388 46.8936H286.72C286.72 47.957 286.624 49.2622 286.446 50.8091C286.253 52.3721 285.995 53.8545 285.673 55.2563L283.917 61.6533C283.578 63.1035 283.175 64.6021 282.692 66.1489C282.208 67.6958 281.741 68.9849 281.306 70H288.251ZM290.684 57.1255C290.861 56.4004 291.006 55.5142 291.087 54.9663C291.151 54.499 291.296 53.2422 291.377 52.7749H291.715C291.989 54.8535 292.215 56.3037 292.408 57.1255L293.391 60.4287H289.701L290.684 57.1255Z" fill="#181E1E"/>
<path d="M312.953 70C312.485 68.0342 312.26 65.9233 312.26 63.6675V61.9111L315.337 55.2563C315.998 53.7256 316.723 52.1948 317.513 50.6641C318.286 49.1333 318.995 47.8926 319.624 46.9258H312.534C312.228 48.6177 311.664 50.6479 310.81 53.0327L309.649 55.208H309.327L308.199 53.0649C307.377 50.6963 306.797 48.6499 306.491 46.9258H299.385C300.755 49.0044 302.189 51.7759 303.688 55.2563L306.749 61.9111V63.6675C306.749 65.8267 306.507 67.9375 306.024 70H312.953Z" fill="#181E1E"/>
<path d="M327.245 70.4028C328.873 70.4028 330.339 70.1772 331.612 69.6938C334.174 68.7593 335.833 66.7451 335.833 64.022C335.833 62.2979 335.173 60.8154 334.158 59.8809C333.143 58.9463 331.805 58.1084 330.468 57.5767C327.793 56.4165 325.086 55.7075 325.102 53.9351C325.102 53.3228 325.408 52.8394 326.037 52.4688C326.665 52.0981 327.455 51.9209 328.405 51.9209C329.517 51.9209 330.613 52.0981 331.692 52.4688C332.772 52.8394 333.658 53.3389 334.383 53.9673V47.8604C333.61 47.4897 332.643 47.1675 331.499 46.8936C330.355 46.6357 329.179 46.5068 328.002 46.5068C325.537 46.5068 323.507 47.0869 321.944 48.231C320.381 49.3911 319.591 50.9863 319.591 53.0005C319.591 54.6924 320.268 56.1426 321.267 57.0771C322.266 58.0117 323.571 58.8496 324.909 59.3652C327.567 60.5576 330.226 61.2666 330.226 63.0068C330.226 63.6675 329.904 64.167 329.275 64.5376C328.647 64.9082 327.841 65.0854 326.891 65.0854C325.634 65.0854 324.345 64.8438 323.007 64.3765C321.67 63.9092 320.542 63.2485 319.624 62.3784L319.462 68.6465C320.461 69.146 321.702 69.5649 323.185 69.9033C324.667 70.2417 326.021 70.4028 327.245 70.4028Z" fill="#181E1E"/>
<path d="M340.643 75.4883C343.162 73.6719 344.725 71.0156 344.725 68.125C344.725 66.875 344.373 65.8789 343.689 65.1367C343.006 64.4141 342.166 64.043 341.209 64.043C340.35 64.043 339.607 64.3555 339.002 64.9805C338.396 65.6055 338.084 66.3477 338.084 67.207C338.084 68.0078 338.338 68.6914 338.865 69.2188C339.373 69.7656 339.998 70.0391 340.76 70.0391C341.033 70.0391 341.287 70 341.521 69.9219C341.365 70.6055 340.975 71.3086 340.369 72.0508C339.764 72.7734 339.119 73.3398 338.436 73.7109L340.643 75.4883Z" fill="#181E1E"/>
<path d="M77.4922 92.2109C78.1328 92.2109 78.6953 92.1016 79.1719 91.8906V90.6875C78.7578 90.8906 78.2734 90.9922 77.7266 90.9922C76.4375 90.9922 75.8438 90.3906 75.8438 88.9609V85.0391H79.1328V84H75.8438V80.7969L74.4844 81.1719V84H72.5V85.0391H74.4844V89.3438C74.4844 91.2578 75.4844 92.2109 77.4922 92.2109Z" fill="#181E1E"/>
<path d="M82.4062 92C82.2969 91.6641 82.2422 91.0625 82.2422 90.1797L82.2266 87.8906C82.2266 87.4219 82.3516 86.9688 82.6016 86.5234C82.8516 86.0859 83.2109 85.7188 83.6719 85.4297C84.1328 85.1406 84.6406 84.9922 85.1875 84.9922C86.7891 84.9922 87.7344 85.875 87.7344 87.5547V90.1562C87.7344 90.8672 87.6797 91.4766 87.5703 92H89.3203C89.2109 91.4766 89.1562 90.8359 89.1562 90.0625V87.2969C89.1562 85.0234 87.8828 83.7891 85.7031 83.7891C84.1016 83.7891 82.9062 84.5859 82.375 86.0312H82.2422V82.7969C82.2422 81.9141 82.2969 81.2422 82.4062 80.7969H80.6484C80.75 81.2188 80.8047 81.8828 80.8047 82.7969V89.9844C80.8047 90.9062 80.75 91.5781 80.6484 92H82.4062Z" fill="#181E1E"/>
<path d="M93.2422 82C93.4141 81.8281 93.5 81.6172 93.5 81.375C93.5 80.875 93.125 80.4922 92.5703 80.4922C92.0156 80.4922 91.625 80.875 91.625 81.375C91.625 81.6172 91.7109 81.8281 91.8906 82C92.0703 82.1719 92.2969 82.2578 92.5703 82.2578C92.8438 82.2578 93.0703 82.1719 93.2422 82ZM93.4531 92C93.3438 91.5391 93.2891 90.8672 93.2891 89.9844V85.4219C93.2891 84.7891 93.3203 84.3125 93.3906 84C93.2422 84.1016 92.9766 84.1484 92.5938 84.1484C92.2109 84.1484 91.9375 84.1016 91.7578 84C91.8281 84.2734 91.8672 84.7422 91.8672 85.4219V89.9844C91.8672 90.8203 91.8047 91.4922 91.6875 92H93.4531Z" fill="#181E1E"/>
<path d="M98.8281 92.2109C99.8359 92.2109 100.648 91.9844 101.25 91.5312C101.852 91.0859 102.156 90.5078 102.156 89.8047C102.156 89.375 102.055 89.0156 101.859 88.7109C101.461 88.1172 100.805 87.8594 100.047 87.6562C98.5469 87.2578 96.7969 87.25 96.7969 86.125C96.7969 85.4062 97.5547 84.8984 98.7656 84.8984C99.2969 84.8984 99.8203 84.9688 100.344 85.1016C100.859 85.2422 101.281 85.3984 101.609 85.5703V84.3984C101.234 84.2266 100.781 84.0781 100.25 83.9609C99.7188 83.8438 99.2031 83.7891 98.7109 83.7891C97.7188 83.7891 96.9375 84.0078 96.3594 84.4531C95.7734 84.8984 95.4844 85.4453 95.4844 86.0938C95.4844 86.8203 95.8203 87.3672 96.3203 87.6484C96.8203 87.9375 97.4922 88.1797 98.1562 88.2812C99.4922 88.5547 100.828 88.7344 100.828 89.8047C100.828 90.6094 100.055 91.0859 98.7656 91.0859C98.1797 91.0859 97.5469 90.9922 96.875 90.7969C96.1953 90.6094 95.6406 90.375 95.1953 90.0938V91.3906C95.6406 91.6172 96.2109 91.8125 96.9141 91.9688C97.6172 92.1328 98.2578 92.2109 98.8281 92.2109Z" fill="#181E1E"/>
<path d="M112.797 92.2109C113.484 92.2109 114.172 92.1328 114.852 91.9766C115.531 91.8281 116.055 91.6328 116.414 91.4062L116.398 90.1797C116.094 90.4609 115.633 90.6875 115.016 90.8594C114.391 91.0312 113.734 91.1172 113.039 91.1172C111.992 91.1172 111.102 90.8281 110.359 90.2578C109.617 89.6875 109.242 88.9453 109.227 88.0312L109.312 87.9844C110.352 88.6016 111.547 88.9141 112.891 88.9141C115.477 88.9141 116.641 88.2422 116.641 86.625C116.641 85.8125 116.266 85.1328 115.516 84.5938C114.766 84.0547 113.75 83.7891 112.461 83.7891C111.148 83.7891 110.062 84.1875 109.195 84.9844C108.328 85.7812 107.898 86.7891 107.898 88C107.898 89.2422 108.352 90.25 109.266 91.0312C110.172 91.8203 111.352 92.2109 112.797 92.2109ZM112.492 88.0938C111.906 88.0938 111.32 88.0234 110.75 87.8828C110.18 87.7422 109.68 87.5547 109.266 87.3125C109.375 86.5547 109.734 85.9453 110.344 85.5C110.953 85.0547 111.641 84.8281 112.414 84.8281C113.219 84.8281 113.898 85 114.453 85.3516C115.008 85.7031 115.281 86.125 115.281 86.6094C115.281 87.6016 114.352 88.0938 112.492 88.0938Z" fill="#181E1E"/>
<path d="M123.172 92C123.195 91.6016 123.328 91.0859 123.57 90.4609L125.672 85.7266C126.008 84.9141 126.281 84.3359 126.484 84H124.758C124.672 84.4375 124.516 84.9297 124.289 85.4688L122.453 89.7109L122.055 90.75H121.938C121.891 90.6016 121.766 90.2656 121.555 89.7422L119.719 85.4688C119.477 84.875 119.32 84.3828 119.25 84H117.523C117.75 84.3672 118.023 84.9375 118.344 85.7266L120.453 90.4609C120.688 91.125 120.812 91.6406 120.82 92H123.172Z" fill="#181E1E"/>
<path d="M132.266 92.2109C132.953 92.2109 133.641 92.1328 134.32 91.9766C135 91.8281 135.523 91.6328 135.883 91.4062L135.867 90.1797C135.562 90.4609 135.102 90.6875 134.484 90.8594C133.859 91.0312 133.203 91.1172 132.508 91.1172C131.461 91.1172 130.57 90.8281 129.828 90.2578C129.086 89.6875 128.711 88.9453 128.695 88.0312L128.781 87.9844C129.82 88.6016 131.016 88.9141 132.359 88.9141C134.945 88.9141 136.109 88.2422 136.109 86.625C136.109 85.8125 135.734 85.1328 134.984 84.5938C134.234 84.0547 133.219 83.7891 131.93 83.7891C130.617 83.7891 129.531 84.1875 128.664 84.9844C127.797 85.7812 127.367 86.7891 127.367 88C127.367 89.2422 127.82 90.25 128.734 91.0312C129.641 91.8203 130.82 92.2109 132.266 92.2109ZM131.961 88.0938C131.375 88.0938 130.789 88.0234 130.219 87.8828C129.648 87.7422 129.148 87.5547 128.734 87.3125C128.844 86.5547 129.203 85.9453 129.812 85.5C130.422 85.0547 131.109 84.8281 131.883 84.8281C132.688 84.8281 133.367 85 133.922 85.3516C134.477 85.7031 134.75 86.125 134.75 86.6094C134.75 87.6016 133.82 88.0938 131.961 88.0938Z" fill="#181E1E"/>
<path d="M139.922 92C139.805 91.6328 139.742 91.0312 139.742 90.1797V87.8906C139.742 87.4219 139.867 86.9688 140.117 86.5234C140.367 86.0859 140.727 85.7188 141.188 85.4297C141.648 85.1406 142.156 84.9922 142.703 84.9922C144.305 84.9922 145.25 85.875 145.25 87.5547V90.1562C145.25 90.8672 145.195 91.4766 145.086 92H146.836C146.727 91.4766 146.672 90.8359 146.672 90.0625V87.2969C146.672 86.1641 146.367 85.2891 145.758 84.6875C145.141 84.0859 144.297 83.7891 143.219 83.7891C141.617 83.7891 140.422 84.5859 139.891 86.0312H139.742V85.4375C139.742 84.8281 139.805 84.3516 139.938 84H138.164C138.266 84.4219 138.32 85.0469 138.32 85.875V90.2109C138.32 90.9844 138.266 91.5781 138.164 92H139.922Z" fill="#181E1E"/>
<path d="M153.086 92.2109C153.727 92.2109 154.289 92.1016 154.766 91.8906V90.6875C154.352 90.8906 153.867 90.9922 153.32 90.9922C152.031 90.9922 151.438 90.3906 151.438 88.9609V85.0391H154.727V84H151.438V80.7969L150.078 81.1719V84H148.094V85.0391H150.078V89.3438C150.078 91.2578 151.078 92.2109 153.086 92.2109Z" fill="#181E1E"/>
<path d="M161.852 82C162.023 81.8281 162.109 81.6172 162.109 81.375C162.109 80.875 161.734 80.4922 161.18 80.4922C160.625 80.4922 160.234 80.875 160.234 81.375C160.234 81.6172 160.32 81.8281 160.5 82C160.68 82.1719 160.906 82.2578 161.18 82.2578C161.453 82.2578 161.68 82.1719 161.852 82ZM162.062 92C161.953 91.5391 161.898 90.8672 161.898 89.9844V85.4219C161.898 84.7891 161.93 84.3125 162 84C161.852 84.1016 161.586 84.1484 161.203 84.1484C160.82 84.1484 160.547 84.1016 160.367 84C160.438 84.2734 160.477 84.7422 160.477 85.4219V89.9844C160.477 90.8203 160.414 91.4922 160.297 92H162.062Z" fill="#181E1E"/>
<path d="M167.438 92.2109C168.445 92.2109 169.258 91.9844 169.859 91.5312C170.461 91.0859 170.766 90.5078 170.766 89.8047C170.766 89.375 170.664 89.0156 170.469 88.7109C170.07 88.1172 169.414 87.8594 168.656 87.6562C167.156 87.2578 165.406 87.25 165.406 86.125C165.406 85.4062 166.164 84.8984 167.375 84.8984C167.906 84.8984 168.43 84.9688 168.953 85.1016C169.469 85.2422 169.891 85.3984 170.219 85.5703V84.3984C169.844 84.2266 169.391 84.0781 168.859 83.9609C168.328 83.8438 167.812 83.7891 167.32 83.7891C166.328 83.7891 165.547 84.0078 164.969 84.4531C164.383 84.8984 164.094 85.4453 164.094 86.0938C164.094 86.8203 164.43 87.3672 164.93 87.6484C165.43 87.9375 166.102 88.1797 166.766 88.2812C168.102 88.5547 169.438 88.7344 169.438 89.8047C169.438 90.6094 168.664 91.0859 167.375 91.0859C166.789 91.0859 166.156 90.9922 165.484 90.7969C164.805 90.6094 164.25 90.375 163.805 90.0938V91.3906C164.25 91.6172 164.82 91.8125 165.523 91.9688C166.227 92.1328 166.867 92.2109 167.438 92.2109Z" fill="#181E1E"/>
<path d="M181.312 92.2109C181.797 92.2109 182.297 92.1562 182.805 92.0391C183.312 91.9219 183.742 91.7734 184.094 91.5859V90.3516C183.367 90.8438 182.5 91.0859 181.5 91.0859C180.461 91.0859 179.594 90.7969 178.914 90.2266C178.234 89.6562 177.891 88.9141 177.891 88C177.891 87.0859 178.234 86.3359 178.914 85.7578C179.594 85.1875 180.445 84.8984 181.469 84.8984C182.289 84.8984 183.172 85.1172 183.758 85.4531L183.789 84.2578C183.484 84.1094 183.102 84 182.633 83.9141C182.156 83.8281 181.727 83.7891 181.344 83.7891C179.898 83.7891 178.734 84.1797 177.844 84.9688C176.953 85.7578 176.508 86.7734 176.508 88C176.508 89.2266 176.945 90.2344 177.828 91.0234C178.711 91.8125 179.867 92.2109 181.312 92.2109Z" fill="#181E1E"/>
<path d="M189.945 92.2109C191.258 92.2109 192.328 91.8125 193.164 91.0234C193.992 90.2344 194.406 89.2266 194.406 88C194.406 86.7734 193.992 85.7656 193.172 84.9766C192.344 84.1875 191.273 83.7891 189.961 83.7891C188.633 83.7891 187.555 84.1875 186.727 84.9766C185.891 85.7656 185.477 86.7734 185.477 88C185.477 89.2266 185.891 90.2344 186.727 91.0234C187.555 91.8125 188.625 92.2109 189.945 92.2109ZM187.734 90.2422C187.141 89.6562 186.844 88.9141 186.844 88C186.844 87.0859 187.141 86.3438 187.734 85.7578C188.328 85.1719 189.062 84.8828 189.945 84.8828C190.828 84.8828 191.562 85.1719 192.156 85.7578C192.75 86.3438 193.047 87.0859 193.047 88C193.047 88.9141 192.75 89.6562 192.156 90.2422C191.562 90.8281 190.828 91.1172 189.945 91.1172C189.062 91.1172 188.328 90.8281 187.734 90.2422Z" fill="#181E1E"/>
<path d="M200.938 92C200.961 91.6016 201.094 91.0859 201.336 90.4609L203.438 85.7266C203.773 84.9141 204.047 84.3359 204.25 84H202.523C202.438 84.4375 202.281 84.9297 202.055 85.4688L200.219 89.7109L199.82 90.75H199.703C199.656 90.6016 199.531 90.2656 199.32 89.7422L197.484 85.4688C197.242 84.875 197.086 84.3828 197.016 84H195.289C195.516 84.3672 195.789 84.9375 196.109 85.7266L198.219 90.4609C198.453 91.125 198.578 91.6406 198.586 92H200.938Z" fill="#181E1E"/>
<path d="M210.031 92.2109C210.719 92.2109 211.406 92.1328 212.086 91.9766C212.766 91.8281 213.289 91.6328 213.648 91.4062L213.633 90.1797C213.328 90.4609 212.867 90.6875 212.25 90.8594C211.625 91.0312 210.969 91.1172 210.273 91.1172C209.227 91.1172 208.336 90.8281 207.594 90.2578C206.852 89.6875 206.477 88.9453 206.461 88.0312L206.547 87.9844C207.586 88.6016 208.781 88.9141 210.125 88.9141C212.711 88.9141 213.875 88.2422 213.875 86.625C213.875 85.8125 213.5 85.1328 212.75 84.5938C212 84.0547 210.984 83.7891 209.695 83.7891C208.383 83.7891 207.297 84.1875 206.43 84.9844C205.562 85.7812 205.133 86.7891 205.133 88C205.133 89.2422 205.586 90.25 206.5 91.0312C207.406 91.8203 208.586 92.2109 210.031 92.2109ZM209.727 88.0938C209.141 88.0938 208.555 88.0234 207.984 87.8828C207.414 87.7422 206.914 87.5547 206.5 87.3125C206.609 86.5547 206.969 85.9453 207.578 85.5C208.188 85.0547 208.875 84.8281 209.648 84.8281C210.453 84.8281 211.133 85 211.688 85.3516C212.242 85.7031 212.516 86.125 212.516 86.6094C212.516 87.6016 211.586 88.0938 209.727 88.0938Z" fill="#181E1E"/>
<path d="M217.672 92C217.562 91.6641 217.508 91.1406 217.508 90.4141V88.0469C217.508 87.2188 217.797 86.5 218.375 85.8906C218.953 85.2812 219.617 84.9766 220.359 84.9766C220.867 84.9766 221.43 85.1328 221.688 85.3281V83.9844C221.359 83.8516 220.977 83.7891 220.539 83.7891C219.125 83.7891 218.07 84.7266 217.625 86.3516H217.508V85.5391C217.508 84.9375 217.586 84.4219 217.734 84H215.93C216.023 84.4609 216.07 85.0859 216.07 85.875V90.2266C216.07 90.9609 216.023 91.5547 215.93 92H217.672Z" fill="#181E1E"/>
<path d="M227.656 92.2109C228.344 92.2109 229.031 92.1328 229.711 91.9766C230.391 91.8281 230.914 91.6328 231.273 91.4062L231.258 90.1797C230.953 90.4609 230.492 90.6875 229.875 90.8594C229.25 91.0312 228.594 91.1172 227.898 91.1172C226.852 91.1172 225.961 90.8281 225.219 90.2578C224.477 89.6875 224.102 88.9453 224.086 88.0312L224.172 87.9844C225.211 88.6016 226.406 88.9141 227.75 88.9141C230.336 88.9141 231.5 88.2422 231.5 86.625C231.5 85.8125 231.125 85.1328 230.375 84.5938C229.625 84.0547 228.609 83.7891 227.32 83.7891C226.008 83.7891 224.922 84.1875 224.055 84.9844C223.188 85.7812 222.758 86.7891 222.758 88C222.758 89.2422 223.211 90.25 224.125 91.0312C225.031 91.8203 226.211 92.2109 227.656 92.2109ZM227.352 88.0938C226.766 88.0938 226.18 88.0234 225.609 87.8828C225.039 87.7422 224.539 87.5547 224.125 87.3125C224.234 86.5547 224.594 85.9453 225.203 85.5C225.812 85.0547 226.5 84.8281 227.273 84.8281C228.078 84.8281 228.758 85 229.312 85.3516C229.867 85.7031 230.141 86.125 230.141 86.6094C230.141 87.6016 229.211 88.0938 227.352 88.0938Z" fill="#181E1E"/>
<path d="M236.992 92.2109C237.797 92.2109 238.492 91.9922 239.078 91.5547C239.664 91.1172 240.094 90.5859 240.352 89.9531H240.5V90.5781C240.5 91.0859 240.453 91.5625 240.352 92H242.078C241.977 91.5078 241.922 90.8359 241.922 89.9844V82.7969C241.922 81.9609 241.977 81.2891 242.078 80.7969H240.336C240.445 81.3203 240.5 81.9844 240.5 82.7969V86.0156H240.352C240.109 85.3516 239.688 84.8203 239.086 84.4062C238.484 83.9922 237.773 83.7891 236.961 83.7891C235.812 83.7891 234.891 84.1797 234.18 84.9688C233.469 85.7578 233.117 86.7734 233.117 88C233.117 89.2266 233.477 90.2344 234.188 91.0234C234.898 91.8125 235.836 92.2109 236.992 92.2109ZM237.555 91.0391C236.672 91.0391 235.938 90.7578 235.352 90.1875C234.766 89.6172 234.477 88.8906 234.477 88C234.477 87.1094 234.766 86.3828 235.352 85.8125C235.938 85.2422 236.672 84.9609 237.555 84.9609C238.391 84.9609 239.086 85.25 239.641 85.8281C240.195 86.4062 240.477 87.1328 240.477 88C240.477 88.4844 240.352 88.9609 240.102 89.4219C239.852 89.8828 239.5 90.2734 239.039 90.5781C238.578 90.8828 238.086 91.0391 237.555 91.0391Z" fill="#181E1E"/>
<path d="M253.797 92.2109C254.953 92.2109 255.883 91.8125 256.594 91.0234C257.305 90.2344 257.656 89.2266 257.656 88C257.656 86.7734 257.305 85.7578 256.594 84.9688C255.883 84.1797 254.953 83.7891 253.797 83.7891C252.992 83.7891 252.281 83.9922 251.68 84.4062C251.078 84.8203 250.648 85.3516 250.406 86.0156H250.258V82.7969C250.258 82.0312 250.32 81.3672 250.438 80.7969H248.695C248.789 81.2422 248.836 81.9141 248.836 82.7969V89.9844C248.836 90.8828 248.789 91.5547 248.695 92H250.422C250.312 91.5156 250.258 91.0391 250.258 90.5781V89.9531H250.422C250.672 90.5781 251.094 91.1094 251.695 91.5469C252.297 91.9922 252.992 92.2109 253.797 92.2109ZM253.219 91.0391C252.68 91.0391 252.188 90.8828 251.727 90.5781C250.805 89.9609 250.273 88.9688 250.273 88C250.273 87.1328 250.555 86.4062 251.117 85.8281C251.68 85.25 252.383 84.9609 253.219 84.9609C254.102 84.9609 254.836 85.2422 255.414 85.8125C255.984 86.3828 256.273 87.1094 256.273 88C256.273 88.8906 255.984 89.6172 255.414 90.1875C254.836 90.7578 254.102 91.0391 253.219 91.0391Z" fill="#181E1E"/>
<path d="M263.531 95.7266C266.25 95.7266 268.641 94.5312 268.641 91.5703C268.641 91.0312 268.477 90.4766 268.156 89.9062V85.7734C268.156 85.0781 268.219 84.4922 268.336 84H266.57C266.68 84.3359 266.734 84.9375 266.734 85.8203V88.0938C266.734 88.5625 266.609 89.0156 266.359 89.4531C266.109 89.8984 265.758 90.2656 265.297 90.5547C264.836 90.8438 264.328 90.9922 263.789 90.9922C262.172 90.9922 261.242 90.125 261.242 88.4453V85.8203C261.242 85.0547 261.297 84.4453 261.406 84H259.664C259.766 84.4922 259.82 85.1328 259.82 85.9219V88.6875C259.82 89.8281 260.125 90.7031 260.734 91.3047C261.344 91.9062 262.195 92.2109 263.281 92.2109C264.898 92.2109 266.148 91.4141 266.688 89.9531H266.797C267.102 90.4531 267.258 90.9453 267.258 91.4375C267.258 93.8203 265.5 94.6562 263.375 94.6562C261.898 94.6562 260.633 94.2812 259.578 93.5391V94.8516C260.703 95.4375 262.023 95.7266 263.531 95.7266Z" fill="#181E1E"/>
<path d="M107 114.211C107.641 114.211 108.203 114.102 108.68 113.891V112.688C108.266 112.891 107.781 112.992 107.234 112.992C105.945 112.992 105.352 112.391 105.352 110.961V107.039H108.641V106H105.352V102.797L103.992 103.172V106H102.008V107.039H103.992V111.344C103.992 113.258 104.992 114.211 107 114.211Z" fill="#181E1E"/>
<path d="M111.914 114C111.805 113.664 111.75 113.062 111.75 112.18L111.734 109.891C111.734 109.422 111.859 108.969 112.109 108.523C112.359 108.086 112.719 107.719 113.18 107.43C113.641 107.141 114.148 106.992 114.695 106.992C116.297 106.992 117.242 107.875 117.242 109.555V112.156C117.242 112.867 117.188 113.477 117.078 114H118.828C118.719 113.477 118.664 112.836 118.664 112.062V109.297C118.664 107.023 117.391 105.789 115.211 105.789C113.609 105.789 112.414 106.586 111.883 108.031H111.75V104.797C111.75 103.914 111.805 103.242 111.914 102.797H110.156C110.258 103.219 110.312 103.883 110.312 104.797V111.984C110.312 112.906 110.258 113.578 110.156 114H111.914Z" fill="#181E1E"/>
<path d="M125.758 114.211C126.445 114.211 127.133 114.133 127.812 113.977C128.492 113.828 129.016 113.633 129.375 113.406L129.359 112.18C129.055 112.461 128.594 112.688 127.977 112.859C127.352 113.031 126.695 113.117 126 113.117C124.953 113.117 124.062 112.828 123.32 112.258C122.578 111.688 122.203 110.945 122.188 110.031L122.273 109.984C123.312 110.602 124.508 110.914 125.852 110.914C128.438 110.914 129.602 110.242 129.602 108.625C129.602 107.812 129.227 107.133 128.477 106.594C127.727 106.055 126.711 105.789 125.422 105.789C124.109 105.789 123.023 106.188 122.156 106.984C121.289 107.781 120.859 108.789 120.859 110C120.859 111.242 121.312 112.25 122.227 113.031C123.133 113.82 124.312 114.211 125.758 114.211ZM125.453 110.094C124.867 110.094 124.281 110.023 123.711 109.883C123.141 109.742 122.641 109.555 122.227 109.312C122.336 108.555 122.695 107.945 123.305 107.5C123.914 107.055 124.602 106.828 125.375 106.828C126.18 106.828 126.859 107 127.414 107.352C127.969 107.703 128.242 108.125 128.242 108.609C128.242 109.602 127.312 110.094 125.453 110.094Z" fill="#181E1E"/>
<path d="M139.844 114.211C141.156 114.211 142.227 113.812 143.062 113.023C143.891 112.234 144.305 111.227 144.305 110C144.305 108.773 143.891 107.766 143.07 106.977C142.242 106.188 141.172 105.789 139.859 105.789C138.531 105.789 137.453 106.188 136.625 106.977C135.789 107.766 135.375 108.773 135.375 110C135.375 111.227 135.789 112.234 136.625 113.023C137.453 113.812 138.523 114.211 139.844 114.211ZM137.633 112.242C137.039 111.656 136.742 110.914 136.742 110C136.742 109.086 137.039 108.344 137.633 107.758C138.227 107.172 138.961 106.883 139.844 106.883C140.727 106.883 141.461 107.172 142.055 107.758C142.648 108.344 142.945 109.086 142.945 110C142.945 110.914 142.648 111.656 142.055 112.242C141.461 112.828 140.727 113.117 139.844 113.117C138.961 113.117 138.227 112.828 137.633 112.242Z" fill="#181E1E"/>
<path d="M148.117 114C148 113.633 147.938 113.031 147.938 112.18V109.891C147.938 109.422 148.062 108.969 148.312 108.523C148.562 108.086 148.922 107.719 149.383 107.43C149.844 107.141 150.352 106.992 150.898 106.992C152.5 106.992 153.445 107.875 153.445 109.555V112.156C153.445 112.867 153.391 113.477 153.281 114H155.031C154.922 113.477 154.867 112.836 154.867 112.062V109.297C154.867 108.164 154.562 107.289 153.953 106.688C153.336 106.086 152.492 105.789 151.414 105.789C149.812 105.789 148.617 106.586 148.086 108.031H147.938V107.438C147.938 106.828 148 106.352 148.133 106H146.359C146.461 106.422 146.516 107.047 146.516 107.875V112.211C146.516 112.984 146.461 113.578 146.359 114H148.117Z" fill="#181E1E"/>
<path d="M161.961 114.211C162.648 114.211 163.336 114.133 164.016 113.977C164.695 113.828 165.219 113.633 165.578 113.406L165.562 112.18C165.258 112.461 164.797 112.688 164.18 112.859C163.555 113.031 162.898 113.117 162.203 113.117C161.156 113.117 160.266 112.828 159.523 112.258C158.781 111.688 158.406 110.945 158.391 110.031L158.477 109.984C159.516 110.602 160.711 110.914 162.055 110.914C164.641 110.914 165.805 110.242 165.805 108.625C165.805 107.812 165.43 107.133 164.68 106.594C163.93 106.055 162.914 105.789 161.625 105.789C160.312 105.789 159.227 106.188 158.359 106.984C157.492 107.781 157.062 108.789 157.062 110C157.062 111.242 157.516 112.25 158.43 113.031C159.336 113.82 160.516 114.211 161.961 114.211ZM161.656 110.094C161.07 110.094 160.484 110.023 159.914 109.883C159.344 109.742 158.844 109.555 158.43 109.312C158.539 108.555 158.898 107.945 159.508 107.5C160.117 107.055 160.805 106.828 161.578 106.828C162.383 106.828 163.062 107 163.617 107.352C164.172 107.703 164.445 108.125 164.445 108.609C164.445 109.602 163.516 110.094 161.656 110.094Z" fill="#181E1E"/>
<path d="M174.992 114.211C175.781 114.211 176.445 114.062 176.992 113.758C177.531 113.461 177.898 113.086 178.094 112.625H178.219V112.75C178.219 113.281 178.164 113.695 178.062 114H179.758C179.648 113.633 179.594 112.984 179.594 112.047V108.812C179.594 106.797 178.289 105.789 175.68 105.789C175.133 105.789 174.555 105.852 173.945 105.969C173.336 106.086 172.875 106.211 172.555 106.336V107.422C172.758 107.289 173.148 107.148 173.727 107C174.297 106.852 174.875 106.781 175.453 106.781C177.297 106.781 178.219 107.516 178.219 108.992V110.32H178.062C177.867 109.883 177.5 109.5 176.961 109.18C176.414 108.859 175.766 108.703 175.008 108.703C173.953 108.703 173.125 108.953 172.523 109.461C171.922 109.969 171.617 110.633 171.617 111.453C171.617 112.266 171.922 112.93 172.523 113.438C173.125 113.953 173.945 114.211 174.992 114.211ZM175.531 113.219C174.742 113.219 174.117 113.055 173.672 112.727C173.219 112.398 172.992 111.969 172.992 111.438C172.992 110.898 173.219 110.469 173.664 110.141C174.109 109.812 174.734 109.648 175.531 109.648C176.297 109.648 176.938 109.836 177.445 110.211C177.953 110.586 178.203 110.992 178.203 111.438C178.203 112.008 177.961 112.445 177.484 112.75C177.008 113.062 176.352 113.219 175.531 113.219Z" fill="#181E1E"/>
<path d="M183.914 114C183.797 113.633 183.734 113.031 183.734 112.18V109.891C183.734 109.422 183.859 108.969 184.109 108.523C184.359 108.086 184.719 107.719 185.18 107.43C185.641 107.141 186.148 106.992 186.695 106.992C188.297 106.992 189.242 107.875 189.242 109.555V112.156C189.242 112.867 189.188 113.477 189.078 114H190.828C190.719 113.477 190.664 112.836 190.664 112.062V109.297C190.664 108.164 190.359 107.289 189.75 106.688C189.133 106.086 188.289 105.789 187.211 105.789C185.609 105.789 184.414 106.586 183.883 108.031H183.734V107.438C183.734 106.828 183.797 106.352 183.93 106H182.156C182.258 106.422 182.312 107.047 182.312 107.875V112.211C182.312 112.984 182.258 113.578 182.156 114H183.914Z" fill="#181E1E"/>
<path d="M196.719 114.211C197.523 114.211 198.219 113.992 198.805 113.555C199.391 113.117 199.82 112.586 200.078 111.953H200.227V112.578C200.227 113.086 200.18 113.562 200.078 114H201.805C201.703 113.508 201.648 112.836 201.648 111.984V104.797C201.648 103.961 201.703 103.289 201.805 102.797H200.062C200.172 103.32 200.227 103.984 200.227 104.797V108.016H200.078C199.836 107.352 199.414 106.82 198.812 106.406C198.211 105.992 197.5 105.789 196.688 105.789C195.539 105.789 194.617 106.18 193.906 106.969C193.195 107.758 192.844 108.773 192.844 110C192.844 111.227 193.203 112.234 193.914 113.023C194.625 113.812 195.562 114.211 196.719 114.211ZM197.281 113.039C196.398 113.039 195.664 112.758 195.078 112.188C194.492 111.617 194.203 110.891 194.203 110C194.203 109.109 194.492 108.383 195.078 107.812C195.664 107.242 196.398 106.961 197.281 106.961C198.117 106.961 198.812 107.25 199.367 107.828C199.922 108.406 200.203 109.133 200.203 110C200.203 110.484 200.078 110.961 199.828 111.422C199.578 111.883 199.227 112.273 198.766 112.578C198.305 112.883 197.812 113.039 197.281 113.039Z" fill="#181E1E"/>
<path d="M212.453 114.211C213.766 114.211 214.836 113.812 215.672 113.023C216.5 112.234 216.914 111.227 216.914 110C216.914 108.773 216.5 107.766 215.68 106.977C214.852 106.188 213.781 105.789 212.469 105.789C211.141 105.789 210.062 106.188 209.234 106.977C208.398 107.766 207.984 108.773 207.984 110C207.984 111.227 208.398 112.234 209.234 113.023C210.062 113.812 211.133 114.211 212.453 114.211ZM210.242 112.242C209.648 111.656 209.352 110.914 209.352 110C209.352 109.086 209.648 108.344 210.242 107.758C210.836 107.172 211.57 106.883 212.453 106.883C213.336 106.883 214.07 107.172 214.664 107.758C215.258 108.344 215.555 109.086 215.555 110C215.555 110.914 215.258 111.656 214.664 112.242C214.07 112.828 213.336 113.117 212.453 113.117C211.57 113.117 210.836 112.828 210.242 112.242Z" fill="#181E1E"/>
<path d="M220.727 114C220.609 113.633 220.547 113.031 220.547 112.18V109.891C220.547 109.422 220.672 108.969 220.922 108.523C221.172 108.086 221.531 107.719 221.992 107.43C222.453 107.141 222.961 106.992 223.508 106.992C225.109 106.992 226.055 107.875 226.055 109.555V112.156C226.055 112.867 226 113.477 225.891 114H227.641C227.531 113.477 227.477 112.836 227.477 112.062V109.297C227.477 108.164 227.172 107.289 226.562 106.688C225.945 106.086 225.102 105.789 224.023 105.789C222.422 105.789 221.227 106.586 220.695 108.031H220.547V107.438C220.547 106.828 220.609 106.352 220.742 106H218.969C219.07 106.422 219.125 107.047 219.125 107.875V112.211C219.125 112.984 219.07 113.578 218.969 114H220.727Z" fill="#181E1E"/>
<path d="M231.836 114C231.727 113.477 231.672 112.805 231.672 111.984V104.797C231.672 103.984 231.727 103.32 231.836 102.797H230.094C230.195 103.289 230.25 103.961 230.25 104.797V111.984C230.25 112.836 230.195 113.508 230.094 114H231.836Z" fill="#181E1E"/>
<path d="M238.164 117.727C240.883 117.727 243.273 116.531 243.273 113.57C243.273 113.031 243.109 112.477 242.789 111.906V107.773C242.789 107.078 242.852 106.492 242.969 106H241.203C241.312 106.336 241.367 106.938 241.367 107.82V110.094C241.367 110.562 241.242 111.016 240.992 111.453C240.742 111.898 240.391 112.266 239.93 112.555C239.469 112.844 238.961 112.992 238.422 112.992C236.805 112.992 235.875 112.125 235.875 110.445V107.82C235.875 107.055 235.93 106.445 236.039 106H234.297C234.398 106.492 234.453 107.133 234.453 107.922V110.688C234.453 111.828 234.758 112.703 235.367 113.305C235.977 113.906 236.828 114.211 237.914 114.211C239.531 114.211 240.781 113.414 241.32 111.953H241.43C241.734 112.453 241.891 112.945 241.891 113.438C241.891 115.82 240.133 116.656 238.008 116.656C236.531 116.656 235.266 116.281 234.211 115.539V116.852C235.336 117.438 236.656 117.727 238.164 117.727Z" fill="#181E1E"/>
</svg>
