<svg width="60" height="60" viewBox="0 0 60 60" fill="none" xmlns="http://www.w3.org/2000/svg">
<g clip-path="url(#clip0_17_3)">
<path d="M29.427 59.993C23.4945 59.88 17.7288 58.0102 12.8589 54.6203C7.98909 51.2303 4.23388 46.4724 2.06819 40.9481C-0.0974957 35.4239 -0.57639 29.3815 0.692071 23.5851C1.96053 17.7887 4.91938 12.4987 9.19442 8.38391C13.4695 4.26915 18.8687 1.51453 24.7093 0.468399C30.5499 -0.577734 36.5696 0.13161 42.0071 2.50673C47.4445 4.88184 52.0556 8.81605 55.2571 13.8118C58.4585 18.8076 60.1067 24.6405 59.993 30.573C59.8278 38.5233 56.518 46.084 50.7887 51.5984C45.0594 57.1129 37.3778 60.1316 29.427 59.993ZM30.5451 1.39762C24.8764 1.28371 19.3014 2.85425 14.5257 5.91043C9.7501 8.9666 5.98859 13.371 3.71738 18.566C1.44617 23.7611 0.767385 29.5132 1.76695 35.0942C2.76652 40.6753 5.3995 45.8342 9.33257 49.9181C13.2656 54.002 18.322 56.8271 23.8615 58.0358C29.4009 59.2445 35.1745 58.7825 40.4513 56.7082C45.7281 54.634 50.2708 51.0408 53.5044 46.3834C56.738 41.7261 58.517 36.214 58.6164 30.5451C58.7493 22.9602 55.8687 15.6322 50.6064 10.1682C45.3441 4.70411 38.1296 1.55003 30.5451 1.39762Z" fill="black"/>
<path d="M44.0251 32.5507C43.7335 32.5368 43.4444 32.6103 43.1947 32.7616C42.9451 32.913 42.7463 33.1354 42.6237 33.4003C42.5011 33.6653 42.4603 33.9608 42.5066 34.2491C42.5528 34.5373 42.684 34.8052 42.8834 35.0185C43.0827 35.2318 43.3412 35.3808 43.6256 35.4465C43.9101 35.5121 44.2077 35.4914 44.4803 35.387C44.753 35.2826 44.9883 35.0992 45.1562 34.8604C45.324 34.6215 45.4169 34.338 45.4228 34.0461C45.4305 33.6639 45.2887 33.2938 45.0277 33.0145C44.7667 32.7352 44.407 32.5688 44.0251 32.5507Z" fill="#DF4828"/>
<path d="M45.2412 37.8057C45.2214 37.477 45.0749 37.1688 44.8325 36.9459C44.59 36.7231 44.2706 36.6029 43.9414 36.6108H43.8576C42.4599 36.6108 42.1105 36.1775 41.6563 34.8637L39.4061 26.5548C40.2098 26.8451 40.9295 27.3293 41.5012 27.9644C42.0729 28.5996 42.4791 29.366 42.6836 30.1957C42.6836 30.1957 42.6836 30.1957 42.6836 30.2516C42.7432 30.5689 42.9201 30.8522 43.1791 31.0451C43.438 31.238 43.76 31.3264 44.0812 31.2928C44.0812 31.2928 43.9624 30.2725 43.9205 30.0769C43.6642 28.8764 43.066 27.7757 42.198 26.9077C41.33 26.0396 40.2293 25.4414 39.0288 25.1852L37.6731 20.1677H38.1413C38.3118 20.1717 38.4813 20.1406 38.6393 20.0763C38.7972 20.0121 38.9403 19.916 39.0596 19.7941C39.1789 19.6722 39.2718 19.5271 39.3326 19.3678C39.3934 19.2084 39.4208 19.0383 39.4131 18.8679L29.2454 18.6722C29.2398 19.0028 29.3653 19.3222 29.5944 19.5605C29.8236 19.7988 30.1378 19.9367 30.4683 19.9441H30.6291L28.7772 24.1859C28.7478 24.2481 28.7013 24.3006 28.6431 24.3374C28.585 24.3742 28.5176 24.3938 28.4488 24.3938C28.3799 24.3938 28.3125 24.3742 28.2544 24.3374C28.1963 24.3006 28.1498 24.2481 28.1203 24.1859L26.4502 19.8672C26.6141 19.8709 26.7771 19.8422 26.9299 19.7826C27.0827 19.7231 27.2222 19.6339 27.3404 19.5203C27.4586 19.4066 27.5532 19.2707 27.6187 19.1204C27.6842 18.9701 27.7193 18.8083 27.722 18.6443L23.1588 18.5604C23.1531 18.891 23.2786 19.2104 23.5078 19.4487C23.7369 19.687 24.0511 19.8249 24.3817 19.8323H24.6682L23.0889 24.724C22.782 24.6692 22.4712 24.6388 22.1595 24.6331C20.8143 24.6103 19.4962 25.0119 18.3922 25.7809C17.2883 26.5499 16.4547 27.6472 16.0099 28.9168L12.9142 28.8539C12.7499 28.8512 12.5867 28.8808 12.4339 28.9411C12.281 29.0014 12.1416 29.0912 12.0235 29.2054C11.9054 29.3196 11.8109 29.456 11.7455 29.6067C11.6801 29.7575 11.6451 29.9196 11.6423 30.0838L15.7094 30.1607C15.6732 30.406 15.6545 30.6535 15.6535 30.9015C15.639 31.4835 15.7072 32.0647 15.8562 32.6275L12.8303 32.5646C12.8247 32.8952 12.9502 33.2146 13.1793 33.4529C13.4085 33.6912 13.7227 33.8291 14.0532 33.8365L16.3244 33.8784C16.7601 34.7591 17.3911 35.5287 18.1692 36.1286L15.8142 36.0797C15.8115 36.2439 15.8411 36.4071 15.9014 36.56C15.9617 36.7128 16.0515 36.8522 16.1657 36.9703C16.2799 37.0885 16.4163 37.1829 16.567 37.2483C16.7177 37.3137 16.8799 37.3488 17.0442 37.3515L21.4956 37.4354C21.6493 37.4354 21.8031 37.4354 21.9568 37.4354C22.1105 37.4354 22.2643 37.4354 22.418 37.4354H22.9002V37.3864C24.3141 37.2043 25.6264 36.5544 26.6283 35.5402C27.6301 34.526 28.2638 33.2058 28.4286 31.7898C28.5933 30.3737 28.2796 28.9433 27.5374 27.7262C26.7951 26.5091 25.6671 25.5752 24.3328 25.0734L25.6116 21.0971L27.0092 24.6471C27.1289 24.9378 27.3309 25.1872 27.5903 25.3647C27.8498 25.5422 28.1554 25.6401 28.4697 25.6464C28.7808 25.6548 29.0875 25.5719 29.352 25.408C29.6166 25.2441 29.8273 25.0063 29.9582 24.724L31.5515 21.0692L33.1238 26.9043C32.4926 27.5508 32.006 28.3241 31.6961 29.1728C31.3862 30.0215 31.2601 30.9264 31.3262 31.8276C31.3922 32.7287 31.649 33.6055 32.0793 34.4C32.5097 35.1945 33.1039 35.8885 33.8226 36.4361H32.5718C32.2405 36.4323 31.9212 36.5593 31.6831 36.7896C31.4449 37.0199 31.3073 37.3348 31.2999 37.666L36.9813 37.7708H37.2608H37.8827H38.875C39.0218 37.7756 39.1673 37.7417 39.2968 37.6726C39.4264 37.6035 39.5356 37.5016 39.6134 37.3771C39.6912 37.2526 39.735 37.1098 39.7403 36.963C39.7456 36.8163 39.7123 36.6707 39.6437 36.5409L37.3446 36.4989C36.2035 36.412 35.1239 35.9469 34.2768 35.1773C33.4297 34.4078 32.8635 33.3776 32.6678 32.25C32.4721 31.1223 32.6581 29.9617 33.1964 28.9516C33.7346 27.9416 34.5944 27.14 35.6395 26.6736L36.8485 31.2229C36.8926 31.3829 36.9982 31.5189 37.1422 31.6013C37.2862 31.6838 37.4569 31.706 37.6172 31.6632C37.6961 31.6421 37.7701 31.6056 37.835 31.5559C37.8998 31.5062 37.9542 31.4443 37.9951 31.3735C38.036 31.3028 38.0625 31.2247 38.0732 31.1437C38.0839 31.0627 38.0786 30.9804 38.0574 30.9015L35.1574 20.0629H36.3733L40.4544 35.1922V35.2341C41.1112 37.1418 41.852 37.7987 43.7597 37.8337C44.0183 37.8337 44.2978 37.8337 44.5983 37.8337H45.2272L45.2412 37.8057ZM27.1909 31.174C27.1652 32.4659 26.6542 33.7008 25.7595 34.6331C24.8647 35.5654 23.6519 36.1267 22.3621 36.2054H21.5165C20.1768 36.0968 18.933 35.4673 18.052 34.4521C17.1711 33.4368 16.7233 32.1166 16.8047 30.7749C16.8861 29.4332 17.4902 28.1769 18.4874 27.2756C19.4846 26.3742 20.7954 25.8997 22.1385 25.9539C22.3255 25.9571 22.5121 25.9711 22.6975 25.9958L21.2999 30.3075C21.2493 30.4659 21.2635 30.638 21.3395 30.786C21.4155 30.934 21.547 31.0459 21.7052 31.0971C21.7832 31.1221 21.8654 31.1314 21.947 31.1245C22.0286 31.1176 22.108 31.0947 22.1808 31.057C22.2535 31.0194 22.318 30.9677 22.3707 30.9051C22.4235 30.8424 22.4633 30.7699 22.4879 30.6918L23.8855 26.3033C24.867 26.6819 25.7094 27.3512 26.3001 28.2216C26.8908 29.092 27.2016 30.1221 27.1909 31.174ZM35.2971 25.4507C34.9057 25.6084 34.5311 25.805 34.179 26.0377L32.4949 20.014H33.8925L35.2971 25.4507Z" fill="black"/>
<path d="M15.8909 30.3075L1.00622 30.0489C0.307406 30.0489 0.558978 29.4409 0.572954 28.7072L15.9468 29.0007L15.8909 30.3075Z" fill="black"/>
<path d="M49.2662 29.6157L59.1474 29.8043C59.8462 29.8043 59.5947 30.4053 59.5807 31.146L49.2383 30.9434L49.2662 29.6157Z" fill="black"/>
<path d="M29.5249 50.7757C25.5206 50.6922 21.6308 49.4241 18.3468 47.1315C15.0627 44.8388 12.5316 41.6245 11.0731 37.8943C9.61462 34.1642 9.29412 30.0855 10.1521 26.1733C11.0101 22.2611 13.008 18.6909 15.8937 15.9135C18.7793 13.136 22.4233 11.2759 26.3654 10.568C30.3075 9.86014 34.3709 10.3362 38.0426 11.9362C41.7144 13.5361 44.8297 16.1881 46.9952 19.5574C49.1607 22.9266 50.2793 26.862 50.2097 30.8665C50.1014 36.2478 47.8626 41.3664 43.9846 45.0989C40.1067 48.8314 34.9064 50.873 29.5249 50.7757ZM30.2796 11.5583C26.5372 11.4858 22.8574 12.5246 19.7055 14.5436C16.5535 16.5625 14.0712 19.4709 12.5723 22.9007C11.0734 26.3306 10.6253 30.1279 11.2848 33.8125C11.9442 37.497 13.6815 40.9032 16.2769 43.6003C18.8724 46.2974 22.2093 48.1642 25.8658 48.9647C29.5223 49.7651 33.3341 49.4632 36.819 48.0972C40.3039 46.7311 43.3054 44.3623 45.4439 41.2902C47.5824 38.2182 48.7618 34.581 48.833 30.8386C48.9229 25.8234 47.0201 20.9772 43.5421 17.3629C40.064 13.7486 35.2945 11.6612 30.2796 11.5583Z" fill="black"/>
<path d="M9.29413 16.485L8.89581 13.6897L9.23823 13.1796L13.487 16.0727L12.7253 17.1978L10.545 15.7093L10.8036 17.5122L9.02858 17.9385L11.1809 19.427L10.4122 20.5451L6.19141 17.652L6.53382 17.1419L9.29413 16.485Z" fill="black"/>
<path d="M13.8576 9.02864C14.2653 8.72458 14.7541 8.54825 15.262 8.52195C15.7699 8.49565 16.2743 8.62056 16.7112 8.88089C17.1482 9.14122 17.4981 9.52527 17.7168 9.98448C17.9355 10.4437 18.013 10.9574 17.9398 11.4607C17.8665 11.964 17.6456 12.4343 17.305 12.8121C16.9644 13.1898 16.5195 13.4581 16.0264 13.583C15.5334 13.7079 15.0144 13.6838 14.535 13.5137C14.0557 13.3436 13.6375 13.0352 13.3335 12.6275C12.9294 12.0795 12.7577 11.3942 12.8559 10.7204C12.954 10.0466 13.3139 9.43865 13.8576 9.02864ZM14.6752 10.1118C14.5454 10.2071 14.4359 10.3271 14.3528 10.465C14.2698 10.603 14.215 10.756 14.1916 10.9153C14.1682 11.0745 14.1767 11.2369 14.2165 11.3928C14.2563 11.5488 14.3267 11.6953 14.4236 11.8239C14.5681 12.0202 14.7677 12.1692 14.997 12.2519C15.2264 12.3346 15.4751 12.3473 15.7117 12.2883C15.9482 12.2294 16.1619 12.1014 16.3256 11.9208C16.4893 11.7401 16.5956 11.5149 16.6311 11.2737C16.6665 11.0325 16.6295 10.7862 16.5247 10.5661C16.4198 10.346 16.252 10.162 16.0424 10.0375C15.8328 9.91301 15.5909 9.8536 15.3475 9.86682C15.1041 9.88005 14.8701 9.96532 14.6752 10.1118Z" fill="black"/>
<path d="M24.3465 9.51083L21.2508 8.00838L22.0474 10.3075L20.7756 10.7477L19.0845 5.85604L19.6086 5.67435L22.7043 7.16981L21.9077 4.89168L23.1865 4.44444L24.8706 9.33613L24.3465 9.51083Z" fill="black"/>
<path d="M26.5898 3.8225L30.643 3.6478L30.6989 4.98952L29.3012 5.05241L29.4689 8.85395L28.1202 8.91684L27.9525 5.10831L26.6178 5.16422L26.5898 3.8225Z" fill="black"/>
<path d="M35.7443 9.72047L35.3041 8.19706L34.4934 7.9944L34.165 9.32215L32.8442 8.99371L34.0881 4.00419L36.1846 4.5283C36.4276 4.58565 36.6568 4.69067 36.859 4.83728C37.0612 4.98389 37.2322 5.16917 37.3622 5.38238C37.4922 5.59559 37.5786 5.83249 37.6164 6.07934C37.6541 6.32619 37.6425 6.57808 37.5822 6.8204C37.5187 7.07312 37.4041 7.31016 37.2454 7.51688C37.0868 7.7236 36.8874 7.89563 36.6598 8.02236L37.2677 10.1188L35.7443 9.72047ZM34.773 6.86233L35.5836 7.06498C35.6814 7.11043 35.7879 7.13377 35.8958 7.13335C36.0036 7.13292 36.11 7.10874 36.2074 7.06252C36.3048 7.0163 36.3908 6.94919 36.4594 6.86594C36.5279 6.7827 36.5772 6.68538 36.6039 6.5809C36.6305 6.47643 36.6338 6.36737 36.6135 6.26147C36.5932 6.15558 36.5498 6.05546 36.4864 5.96824C36.423 5.88102 36.3412 5.80884 36.2468 5.75684C36.1523 5.70483 36.0476 5.67428 35.94 5.66736L35.1294 5.46471L34.773 6.86233Z" fill="black"/>
<path d="M41.3278 6.33822L44.1231 7.88259L43.578 8.86093L41.9637 7.97344L41.5584 8.70719L42.991 9.49685L42.4459 10.4822L41.0134 9.69252L40.5312 10.5311L42.1454 11.4256L41.6143 12.3899L38.8191 10.8456L41.3278 6.33822Z" fill="black"/>
<path d="M43.0957 13.2774L48.4067 11.2718L48.8469 11.6981L46.9811 17.072L46.0167 16.1286L46.2613 15.4298L44.7239 13.9762L44.0251 14.2418L43.0957 13.2774ZM45.891 13.508L46.6387 14.2418L47.058 13.0678L45.891 13.508Z" fill="black"/>
<path d="M52.4109 16.0238L53.1097 17.2048L49.8113 19.0706L50.7198 20.6778L49.5388 21.3767L47.9595 18.5814L52.4109 16.0238Z" fill="black"/>
<path d="M43.6059 7.21873L42.7883 6.79944C42.8288 6.71087 42.8874 6.63174 42.9602 6.56712C43.0331 6.50251 43.1187 6.45384 43.2114 6.42423C43.3042 6.39462 43.4021 6.38473 43.499 6.39519C43.5958 6.40565 43.6893 6.43623 43.7737 6.48497L44.5913 6.90426C44.5508 6.99283 44.4922 7.07196 44.4194 7.13658C44.3465 7.20119 44.2609 7.24986 44.1682 7.27947C44.0754 7.30908 43.9775 7.31897 43.8806 7.30851C43.7838 7.29805 43.6903 7.26747 43.6059 7.21873Z" fill="black"/>
<path d="M24.3048 42.2851L25.6605 41.0971H26.0449L25.982 44.3676H25.1224V42.6904L24.2559 43.4521L23.4383 42.6275V44.3047H22.5718L22.6347 41.0342H23.026L24.3048 42.2851Z" fill="black"/>
<path d="M28.4487 42.362L29.7974 41.174H30.1888L30.1259 44.4444H29.2593L29.2943 42.7603L28.4208 43.529L27.5822 42.7324V44.4095H26.7227L26.7855 41.1391H27.1699L28.4487 42.362Z" fill="black"/>
<path d="M34.0392 41.2299L32.4529 44.4724H32.0616L30.6011 41.174L31.4466 41.2299L32.2712 43.1097L33.1867 41.2299H34.0392Z" fill="black"/>
<path d="M34.4516 41.2648H35.3111L35.2482 44.5353H34.3887L34.4516 41.2648Z" fill="black"/>
<path d="M36.0099 41.2928H36.8695L36.8066 44.5562H35.947L36.0099 41.2928Z" fill="black"/>
<path d="M4.82178 39.2593L8.38572 37.7358L9.08453 39.3012C9.20011 39.5816 9.20201 39.8959 9.08984 40.1776C8.97766 40.4594 8.76021 40.6864 8.48355 40.8106C8.26198 40.9018 8.01686 40.919 7.78474 40.8595C7.74185 41.0267 7.66176 41.182 7.55043 41.3139C7.43911 41.4458 7.29943 41.5509 7.14183 41.6212C7.00041 41.6857 6.84748 41.7211 6.69211 41.7253C6.53675 41.7295 6.38212 41.7025 6.23742 41.6458C6.09271 41.589 5.96087 41.5038 5.84974 41.3952C5.7386 41.2865 5.65044 41.1567 5.59047 41.0133L4.82178 39.2593ZM6.28928 40.4822C6.30601 40.5231 6.33083 40.5603 6.36226 40.5914C6.39369 40.6225 6.43109 40.647 6.4722 40.6633C6.51332 40.6796 6.5573 40.6874 6.60152 40.6863C6.64574 40.6852 6.68928 40.6752 6.72953 40.6569C6.81099 40.6216 6.87512 40.5554 6.90787 40.4729C6.94062 40.3903 6.93931 40.2982 6.90424 40.2166L6.6317 39.5877L5.99578 39.8323L6.28928 40.4822ZM7.61004 39.6995C7.64677 39.7797 7.71306 39.8427 7.79508 39.8753C7.87711 39.9078 7.96853 39.9074 8.05029 39.8742C8.13175 39.8389 8.19588 39.7727 8.22862 39.6902C8.26137 39.6077 8.26007 39.5155 8.22499 39.434L8.02932 38.9797L7.41437 39.2523L7.61004 39.6995Z" fill="black"/>
<path d="M10.2655 41.6073L10.8105 42.4668L7.52612 44.5283L6.98804 43.6688L10.2655 41.6073Z" fill="black"/>
<path d="M14.06 46.492L11.5653 46.3382L11.3836 49.3012L10.4332 48.218L10.545 46.2753H10.2026L9.35702 47.0161L8.6582 46.2544L11.5583 43.6897L12.2571 44.4514L11.2787 45.318L13.1166 45.4298L14.06 46.492Z" fill="black"/>
<path d="M15.0665 47.3305L16.9743 48.798L16.4571 49.4969L15.374 48.6164L14.9896 49.1125L15.961 49.8672L15.4369 50.566L14.4655 49.8113L14.0323 50.3774L15.1294 51.2299L14.6193 51.8868L12.7185 50.4193L15.0665 47.3305Z" fill="black"/>
<path d="M20.8177 50.9434L22.3481 51.5024C22.7021 51.6347 22.9899 51.9008 23.1494 52.2433C23.3089 52.5858 23.3273 52.9773 23.2007 53.3333C23.1398 53.5095 23.0442 53.6717 22.9196 53.8105C22.7951 53.9492 22.644 54.0615 22.4754 54.141C22.3067 54.2204 22.1239 54.2653 21.9376 54.273C21.7513 54.2807 21.5654 54.2511 21.3908 54.1859L20.7968 53.9693L20.4474 54.9336L19.49 54.5842L20.8177 50.9434ZM21.0973 53.1447L21.6912 53.3613C21.7616 53.3936 21.8379 53.4109 21.9153 53.4122C21.9927 53.4135 22.0695 53.3987 22.1409 53.3687C22.2123 53.3387 22.2766 53.2943 22.3299 53.2382C22.3832 53.182 22.4243 53.1154 22.4505 53.0426C22.4767 52.9698 22.4876 52.8923 22.4823 52.815C22.477 52.7378 22.4557 52.6625 22.4198 52.5939C22.3839 52.5254 22.3341 52.465 22.2737 52.4166C22.2132 52.3683 22.1434 52.333 22.0686 52.3131L21.4746 52.1034L21.0973 53.1447Z" fill="black"/>
<path d="M26.6319 52.5646C27.0123 52.6159 27.369 52.7791 27.6565 53.0336C27.9439 53.288 28.1492 53.6222 28.2463 53.9937C28.3433 54.3651 28.3278 54.757 28.2015 55.1196C28.0752 55.4821 27.844 55.799 27.5373 56.0298C27.2305 56.2606 26.862 56.395 26.4787 56.4159C26.0953 56.4367 25.7144 56.3431 25.3844 56.147C25.0544 55.9508 24.7902 55.661 24.6253 55.3143C24.4604 54.9675 24.4024 54.5796 24.4586 54.1999C24.5347 53.6971 24.805 53.2442 25.2113 52.9385C25.6177 52.6328 26.1277 52.4985 26.6319 52.5646ZM26.4851 53.5639C26.3649 53.5462 26.2423 53.5523 26.1244 53.5821C26.0065 53.6118 25.8957 53.6646 25.7983 53.7373C25.7009 53.8101 25.6188 53.9013 25.5568 54.0059C25.4948 54.1105 25.454 54.2262 25.4369 54.3466C25.4046 54.5879 25.4675 54.8323 25.6123 55.0279C25.7571 55.2236 25.9724 55.3552 26.2126 55.3948C26.4554 55.431 26.7026 55.3692 26.8998 55.2231C27.097 55.0769 27.2282 54.8584 27.2643 54.6157C27.3004 54.3729 27.2387 54.1257 27.0925 53.9284C26.9464 53.7312 26.7279 53.6001 26.4851 53.5639Z" fill="black"/>
<path d="M29.8743 52.8372L30.8945 52.7952L31.0203 55.6394L32.4179 55.5765L32.4599 56.6038L30.049 56.7086L29.8743 52.8372Z" fill="black"/>
<path d="M35.283 52.2013C35.6565 52.1121 36.0481 52.1361 36.4079 52.2701C36.7678 52.4041 37.0796 52.6421 37.3038 52.9539C37.528 53.2656 37.6545 53.637 37.667 54.0208C37.6796 54.4046 37.5777 54.7834 37.3744 55.1091C37.171 55.4349 36.8754 55.6928 36.5251 55.85C36.1748 56.0073 35.7857 56.0568 35.4071 55.9923C35.0286 55.9278 34.6778 55.7521 34.3994 55.4877C34.1209 55.2233 33.9274 54.882 33.8435 54.5073C33.7322 54.0109 33.8209 53.4906 34.0903 53.0591C34.3597 52.6275 34.7882 52.3193 35.283 52.2013ZM35.5136 53.1866C35.3365 53.2281 35.1756 53.3211 35.0511 53.4538C34.9267 53.5866 34.8443 53.7532 34.8143 53.9326C34.7843 54.1121 34.808 54.2964 34.8825 54.4624C34.9571 54.6284 35.079 54.7687 35.233 54.8655C35.387 54.9624 35.5663 55.0115 35.7481 55.0068C35.93 55.0021 36.1065 54.9436 36.2552 54.8389C36.404 54.7341 36.5184 54.5877 36.5842 54.418C36.6499 54.2484 36.6641 54.0631 36.6247 53.8854C36.5984 53.7662 36.5486 53.6534 36.4783 53.5536C36.408 53.4537 36.3186 53.3689 36.2152 53.3038C36.1118 53.2388 35.9966 53.195 35.8762 53.1749C35.7557 53.1547 35.6325 53.1587 35.5136 53.1866Z" fill="black"/>
<path d="M43.9203 49.7205C43.8004 49.6955 43.6767 49.695 43.5566 49.719C43.4366 49.743 43.3226 49.791 43.2215 49.8602C43.121 49.9249 43.0343 50.0088 42.9662 50.107C42.8981 50.2052 42.85 50.3159 42.8247 50.4327C42.7994 50.5495 42.7974 50.6702 42.8187 50.7878C42.84 50.9054 42.8843 51.0176 42.949 51.1181C43.0137 51.2186 43.0975 51.3053 43.1958 51.3734C43.294 51.4415 43.4047 51.4896 43.5215 51.5149C43.6383 51.5402 43.7589 51.5422 43.8765 51.5209C43.9941 51.4996 44.1063 51.4553 44.2068 51.3906C44.3098 51.3277 44.3989 51.2444 44.4685 51.1459C44.5382 51.0474 44.5871 50.9357 44.6121 50.8176L45.6045 51.0203C45.5546 51.2712 45.4547 51.5094 45.3106 51.7207C45.1665 51.9321 44.9812 52.1121 44.7659 52.2502C44.4999 52.4293 44.1936 52.5396 43.8745 52.5711C43.5554 52.6025 43.2335 52.5543 42.9376 52.4305C42.6418 52.3068 42.3813 52.1115 42.1797 51.8623C41.978 51.613 41.8414 51.3175 41.7821 51.0023C41.7229 50.6872 41.7428 50.3623 41.8402 50.0568C41.9376 49.7513 42.1094 49.4747 42.3401 49.252C42.5708 49.0293 42.8532 48.8674 43.162 48.7809C43.4707 48.6943 43.7961 48.6858 44.109 48.7561L43.9203 49.7205Z" fill="black"/>
<path d="M44.9126 47.3515L45.6114 46.6527L47.5681 48.7491L48.5814 47.7918L49.2802 48.5325L47.5262 50.1887L44.9126 47.3515Z" fill="black"/>
<path d="M50.0069 45.3389C50.1144 45.4186 50.2492 45.4523 50.3815 45.4327C50.5139 45.413 50.633 45.3416 50.7127 45.2341C50.7924 45.1266 50.8261 44.9918 50.8065 44.8595C50.7868 44.7271 50.7154 44.608 50.6079 44.5283L48.7421 43.1307L49.35 42.3131L51.2298 43.7107C51.4027 43.8258 51.5504 43.9748 51.6639 44.1488C51.7773 44.3228 51.8542 44.518 51.8897 44.7226C51.9253 44.9273 51.9188 45.137 51.8708 45.3391C51.8227 45.5411 51.734 45.7313 51.61 45.8979C51.4861 46.0646 51.3295 46.2043 51.1499 46.3085C50.9702 46.4127 50.7712 46.4793 50.565 46.5041C50.3588 46.529 50.1497 46.5116 49.9504 46.453C49.7512 46.3945 49.5659 46.296 49.4059 46.1635L47.5261 44.7659L48.1341 43.9483L50.0069 45.3389Z" fill="black"/>
<path d="M53.557 42.8022L50.063 41.1181L50.8037 39.5807C50.9405 39.3095 51.1776 39.1024 51.4647 39.0032C51.7517 38.904 52.0661 38.9207 52.3411 39.0496C52.5684 39.16 52.7509 39.345 52.8582 39.5737C53.0136 39.5013 53.183 39.4637 53.3544 39.4637C53.5258 39.4637 53.6952 39.5013 53.8505 39.5737C54.1189 39.7077 54.3246 39.9411 54.4237 40.2242C54.5229 40.5073 54.5078 40.818 54.3816 41.0901L53.557 42.8022ZM52.0826 40.4193C52.1136 40.3408 52.1138 40.2534 52.0833 40.1747C52.0528 40.096 51.9937 40.0317 51.9178 39.9946C51.8419 39.9576 51.7549 39.9505 51.674 39.9748C51.5931 39.9991 51.5244 40.053 51.4816 40.1258L51.2649 40.566L51.8729 40.8595L52.0826 40.4193ZM53.5431 40.9085C53.5794 40.8276 53.5829 40.7358 53.5529 40.6524C53.523 40.569 53.4618 40.5005 53.3823 40.4612C53.3021 40.4261 53.2116 40.4224 53.1288 40.4509C53.0459 40.4794 52.9768 40.5379 52.9351 40.6149L52.6416 41.2299L53.2426 41.5234L53.5431 40.9085Z" fill="black"/>
</g>
<defs>
<clipPath id="clip0_17_3">
<rect width="60" height="60" fill="white"/>
</clipPath>
</defs>
</svg>
