<svg width="350" height="193" viewBox="0 0 350 193" fill="none" xmlns="http://www.w3.org/2000/svg">
<path d="M0 192.5H350M0 119.5H350" stroke="#E0B967"/>
<path d="M12.3828 29C12.0117 27.125 11.8359 24.7812 11.8359 21.9688V9H12.3047L27.1094 29H32.3438V7.71094C32.3438 4.91797 32.5391 2.67188 32.9102 0.992188H26.2695C26.6406 2.82812 26.8359 5.05469 26.8359 7.67188V20.6797H26.3477L11.7969 1.03125L5.74219 0.992188C6.15234 2.78906 6.34766 5.03516 6.34766 7.71094V22.2812C6.34766 24.957 6.15234 27.2031 5.74219 29H12.3828Z" fill="#E0B967"/>
<path d="M57.6758 28.5117C59.4531 27.8477 60.9961 26.9102 62.3047 25.6797C64.9219 23.2383 66.4844 19.4492 66.4844 14.9961C66.4844 11.4609 65.4688 8.29688 63.7305 5.97266C61.0938 2.47656 56.8945 0.484375 51.9531 0.484375C49.2188 0.484375 46.7578 1.05078 44.5898 2.20312C42.4023 3.35547 40.6641 5.03516 39.375 7.24219C38.0859 9.46875 37.4414 12.0469 37.4414 14.9961C37.4414 19.4492 39.043 23.2383 41.6406 25.6797C42.9492 26.9102 44.4727 27.8477 46.25 28.5117C48.0078 29.1953 49.9023 29.5273 51.9531 29.5273C54.0039 29.5273 55.8984 29.1953 57.6758 28.5117ZM51.9531 25.0742C49.3945 25.0742 47.2852 24.1562 45.625 22.3008C43.9648 20.4453 43.125 18.0234 43.125 14.9961C43.125 11.9688 43.9648 9.54688 45.625 7.69141C47.2852 5.83594 49.3945 4.91797 51.9531 4.91797C54.5312 4.91797 56.6602 5.83594 58.3398 7.69141C60 9.54688 60.8398 11.9688 60.8398 14.9961C60.8398 18.0234 60 20.4453 58.3398 22.3008C56.6602 24.1562 54.5312 25.0742 51.9531 25.0742Z" fill="#E0B967"/>
<path d="M105.293 29.6055C106.836 29.6055 108.32 28.9023 109.102 27.8867L108.691 20.8359C108.008 22.418 107.285 23.2383 105.625 23.2383C104.141 23.2383 103.359 21.8906 102.461 20.3477C101.855 19.332 101.094 18.2383 100.156 17.3594C99.1992 16.5 97.6562 15.9141 95.7812 15.9141H95.6641V15.6797H96.4258C99.1406 15.6797 101.406 14.957 103.203 13.5117C105 12.0859 105.898 10.2891 105.898 8.12109C105.898 5.97266 104.98 4.25391 103.164 2.94531C101.328 1.63672 99.0039 0.992188 96.1719 0.992188H81.3281C81.6797 2.75 81.8555 4.99609 81.8555 7.71094V22.2812C81.8555 24.957 81.6797 27.2031 81.3281 29H87.9297C87.5586 27.3398 87.3828 25.0938 87.3828 22.2812V17.9258C87.793 17.7305 89.0039 17.6328 91.0156 17.6328C93.1836 17.6328 94.8633 18.2188 95.8984 19.1367C96.9141 20.0742 97.6758 21.3047 98.2227 22.6133C99.6094 25.8945 100.332 29.6055 105.293 29.6055ZM87.3828 6.28516H95.293C96.7383 6.28516 97.9297 6.61719 98.8867 7.30078C99.8242 7.98438 100.293 8.82422 100.293 9.80078C100.293 12.0469 98.1641 13.3945 94.7852 13.3945H87.3828V6.28516Z" fill="#E0B967"/>
<path d="M115.195 29C115.254 28.043 115.781 26.4805 116.758 24.3125L117.48 22.6328H130.488L131.211 24.3125C132.148 26.5195 132.676 28.082 132.773 29H139.453C138.613 27.4375 137.578 25.1914 136.328 22.2812L130.117 7.71094C129.512 6.28516 129.062 4.05859 128.73 0.992188H119.277C119.004 3.76562 118.516 6.01172 117.812 7.71094L111.641 22.2812C110.547 24.8789 109.492 27.1055 108.477 29H115.195ZM122.363 10.5234C122.695 9.68359 123.164 8.21875 123.809 6.12891H124.16C124.746 8.10156 125.215 9.54688 125.566 10.4844L128.926 18.1602H119.043L122.363 10.5234Z" fill="#E0B967"/>
<path d="M148.398 29C148.027 27.3789 147.852 25.1523 147.852 22.2812V7.71094C147.852 4.83984 148.027 2.61328 148.398 0.992188H141.758C142.129 2.67188 142.324 4.91797 142.324 7.71094V22.2812C142.324 25.0742 142.129 27.3203 141.758 29H148.398Z" fill="#E0B967"/>
<path d="M160.664 29C160.293 27.125 160.117 24.7812 160.117 21.9688V9H160.586L175.391 29H180.625V7.71094C180.625 4.91797 180.82 2.67188 181.191 0.992188H174.551C174.922 2.82812 175.117 5.05469 175.117 7.67188V20.6797H174.629L160.078 1.03125L154.023 0.992188C154.434 2.78906 154.629 5.03516 154.629 7.71094V22.2812C154.629 24.957 154.434 27.2031 154.023 29H160.664Z" fill="#E0B967"/>
<path d="M208.438 29.5273C212.051 29.5273 214.98 28.7461 217.227 27.2031C219.473 25.6602 220.586 23.5898 220.586 20.9922C220.586 18.707 219.688 16.8711 218.281 15.7773C216.855 14.6836 214.961 13.8633 212.93 13.3945C207.891 12.125 202.207 12.0469 202.227 8.88281C202.227 6.91016 204.668 5.83594 208.672 5.83594C210.586 5.83594 212.441 6.08984 214.219 6.57812C215.996 7.08594 217.441 7.71094 218.555 8.43359V2.39844C217.324 1.87109 215.82 1.40234 214.023 1.03125C212.227 0.660156 210.391 0.484375 208.516 0.484375C205.098 0.484375 202.266 1.28516 200.02 2.88672C197.773 4.50781 196.641 6.55859 196.641 9.03906C196.641 11.3828 197.539 13.2188 198.945 14.3516C200.352 15.4844 202.246 16.3242 204.277 16.793C209.277 18.0039 214.922 18.1602 214.922 21.1289C214.922 22.2031 214.316 23.0039 213.125 23.5312C211.914 24.0586 210.293 24.3125 208.281 24.3125C206.191 24.3125 204.023 24 201.777 23.3555C199.531 22.7305 197.617 21.832 196.035 20.6406L195.84 26.9297C197.5 27.6523 199.551 28.2773 202.012 28.7656C204.453 29.2734 206.602 29.5273 208.438 29.5273Z" fill="#E0B967"/>
<path d="M238.848 29C238.457 27.4375 238.262 25.1914 238.262 22.2812V6.48047H243.496C245.234 6.48047 246.699 6.73438 247.852 7.24219L246.895 0.992188H224.023L223.047 7.24219C224.199 6.73438 225.645 6.48047 227.422 6.48047H232.773V22.2812C232.773 24.8789 232.578 27.1055 232.207 29H238.848Z" fill="#E0B967"/>
<path d="M270.176 28.5117C271.953 27.8477 273.496 26.9102 274.805 25.6797C277.422 23.2383 278.984 19.4492 278.984 14.9961C278.984 11.4609 277.969 8.29688 276.23 5.97266C273.594 2.47656 269.395 0.484375 264.453 0.484375C261.719 0.484375 259.258 1.05078 257.09 2.20312C254.902 3.35547 253.164 5.03516 251.875 7.24219C250.586 9.46875 249.941 12.0469 249.941 14.9961C249.941 19.4492 251.543 23.2383 254.141 25.6797C255.449 26.9102 256.973 27.8477 258.75 28.5117C260.508 29.1953 262.402 29.5273 264.453 29.5273C266.504 29.5273 268.398 29.1953 270.176 28.5117ZM264.453 25.0742C261.895 25.0742 259.785 24.1562 258.125 22.3008C256.465 20.4453 255.625 18.0234 255.625 14.9961C255.625 11.9688 256.465 9.54688 258.125 7.69141C259.785 5.83594 261.895 4.91797 264.453 4.91797C267.031 4.91797 269.16 5.83594 270.84 7.69141C272.5 9.54688 273.34 11.9688 273.34 14.9961C273.34 18.0234 272.5 20.4453 270.84 22.3008C269.16 24.1562 267.031 25.0742 264.453 25.0742Z" fill="#E0B967"/>
<path d="M290 29C289.629 27.418 289.453 25.2305 289.453 22.4375L289.492 14.1562H289.805C290.371 18.7852 294.531 21.5781 299.199 21.4805C301.875 21.4805 304.258 20.543 305.977 18.8242C307.695 17.125 308.73 14.4492 308.73 11.2461C308.73 8.02344 307.383 5.28906 305.156 3.60938C302.93 1.92969 299.902 0.992188 296.523 0.992188H283.359C283.77 2.78906 283.965 5.03516 283.965 7.71094V22.2812C283.965 24.957 283.77 27.2031 283.359 29H290ZM297.129 16.5195C295.41 16.5195 293.574 15.8359 292.09 14.6445C290.586 13.4727 289.512 11.4805 289.492 9.19531V6.32422C291.172 6.10938 293.281 5.99219 295.84 5.99219C298.105 5.99219 299.883 6.48047 301.191 7.45703C302.48 8.45312 303.125 9.74219 303.125 11.3242C303.125 12.8281 302.559 14.0781 301.406 15.0547C300.254 16.0312 298.828 16.5195 297.129 16.5195Z" fill="#E0B967"/>
<path d="M323.789 29.5273C327.402 29.5273 330.332 28.7461 332.578 27.2031C334.824 25.6602 335.938 23.5898 335.938 20.9922C335.938 18.707 335.039 16.8711 333.633 15.7773C332.207 14.6836 330.312 13.8633 328.281 13.3945C323.242 12.125 317.559 12.0469 317.578 8.88281C317.578 6.91016 320.02 5.83594 324.023 5.83594C325.938 5.83594 327.793 6.08984 329.57 6.57812C331.348 7.08594 332.793 7.71094 333.906 8.43359V2.39844C332.676 1.87109 331.172 1.40234 329.375 1.03125C327.578 0.660156 325.742 0.484375 323.867 0.484375C320.449 0.484375 317.617 1.28516 315.371 2.88672C313.125 4.50781 311.992 6.55859 311.992 9.03906C311.992 11.3828 312.891 13.2188 314.297 14.3516C315.703 15.4844 317.598 16.3242 319.629 16.793C324.629 18.0039 330.273 18.1602 330.273 21.1289C330.273 22.2031 329.668 23.0039 328.477 23.5312C327.266 24.0586 325.645 24.3125 323.633 24.3125C321.543 24.3125 319.375 24 317.129 23.3555C314.883 22.7305 312.969 21.832 311.387 20.6406L311.191 26.9297C312.852 27.6523 314.902 28.2773 317.363 28.7656C319.805 29.2734 321.953 29.5273 323.789 29.5273Z" fill="#E0B967"/>
<path d="M341.562 34.1953C343.652 32.6914 345.039 30.2891 345.039 27.7695C345.039 25.7188 343.809 24.4492 342.246 24.4492C340.859 24.4492 339.805 25.5234 339.805 26.8711C339.805 28.1797 340.762 29.1562 341.953 29.1562C342.129 29.1562 342.5 29.0781 342.559 29.0781C342.461 29.7227 342.168 30.4062 341.641 31.1289C341.113 31.8516 340.508 32.3984 339.844 32.8086L341.562 34.1953Z" fill="#E0B967"/>
<path d="M13.2812 72C12.6953 69.4805 12.4023 66.1602 12.4023 62.0391V59.2461H12.7539C13.0273 60.8672 13.7109 62.1367 14.8242 63.0156C15.918 63.9141 17.2656 64.3633 18.8477 64.3633C20.8594 64.3633 22.5195 63.4844 23.8281 61.707C25.1172 59.9297 25.7617 57.4688 25.7617 54.2852C25.7617 47.7031 21.3281 43.9922 15.5664 43.9922H4.88281C5.17578 45.2031 5.41016 46.7461 5.58594 48.6016C5.76172 50.4766 5.83984 52.3125 5.83984 54.1289V61.8828C5.83984 66.0039 5.52734 69.3828 4.88281 72H13.2812ZM13.5156 58.1328C12.832 57.293 12.4609 56.2578 12.4023 55.0078V50.3203C13.418 50.1641 14.2969 50.0859 15.0391 50.0859C16.2305 50.0859 17.207 50.5156 17.9688 51.3945C18.7109 52.2734 19.082 53.4062 19.082 54.832C19.082 56.2578 18.7891 57.3906 18.2031 58.1914C17.5977 58.9922 16.8359 59.4023 15.918 59.4023C15 59.4023 14.1992 58.9727 13.5156 58.1328Z" fill="#181E1E"/>
<path d="M46.1719 72.6055C47.7539 72.6055 49.2188 71.7461 49.8438 70.6328L49.7656 62.3906C49.0234 64.0117 47.9102 64.832 46.4453 64.832C43.5742 64.832 45.0391 58.2891 39.8438 58.2891H39.5703V57.9961H39.7656C42.3242 57.9961 44.375 57.4102 45.9375 56.2383C47.4805 55.0664 48.2617 53.3672 48.2617 51.1211C48.2617 48.7969 47.4023 47.0391 45.6641 45.8086C43.9258 44.5977 41.6406 43.9922 38.7695 43.9922H27.7344C28.1836 46.082 28.418 49.5 28.418 54.2461V61.7656C28.418 65.9844 28.1836 69.4023 27.7344 72H35.7812C35.2734 69.6953 35.0195 66.4727 35.0195 62.3516V59.9297C35.2539 59.8125 35.6836 59.7539 36.2891 59.7539C38.7891 59.7539 39.5117 62.1367 40.0781 64.8125C40.4492 66.6289 40.8984 68.543 41.6602 70.0469C42.4219 71.5508 43.9648 72.6055 46.1719 72.6055ZM35.0195 50.2812H37.9297C40.0586 50.2812 41.5234 51.3555 41.5234 53.2891C41.5234 55.418 40.0977 56.5117 37.8125 56.5117H35.0195V50.2812Z" fill="#181E1E"/>
<path d="M69.7852 72L70.957 64.4414C70.4297 64.7734 69.707 65.0273 68.7891 65.2031C67.8711 65.3789 66.5039 65.4766 64.668 65.4766H59.6289V59.5195H63.8672C65.5859 59.5195 66.9922 59.5781 68.1055 59.7148V55.4375C66.9922 55.5742 65.5859 55.6328 63.8672 55.6328H59.6289V50.5156H65.0391C67.7148 50.5156 69.4141 50.7891 70.1562 51.3555L69.1406 43.9922H52.1094C52.4023 45.2227 52.6367 46.7852 52.8125 48.6602C52.9883 50.5547 53.0664 52.3711 53.0664 54.1289V61.8828C53.0664 63.6406 52.9883 65.457 52.8125 67.332C52.6367 69.207 52.4023 70.7695 52.1094 72H69.7852Z" fill="#181E1E"/>
<path d="M82.0312 72C81.4258 69.3242 81.1133 65.9453 81.1133 61.8828V54.9688H81.4258L86.6797 68.6016H88.5547L93.7891 54.9688H94.1602V61.8828C94.1602 65.9453 93.8477 69.3242 93.2422 72H101.641C101.035 69.3242 100.723 65.9453 100.723 61.8828V54.1289C100.723 50.0469 101.035 46.668 101.641 43.9922H92.793L89.3164 52.8008C88.5938 54.832 88.1055 56.4922 87.8711 57.8008H87.5195C87.1875 56.0625 86.6797 54.3828 86.0352 52.8008L82.5586 43.9922H73.6328C74.2383 46.668 74.5508 50.0469 74.5508 54.1289V61.8828C74.5508 65.9453 74.2383 69.3242 73.6328 72H82.0312Z" fill="#181E1E"/>
<path d="M113.477 72C112.871 69.3242 112.559 65.9453 112.559 61.8828V54.1289C112.559 50.0469 112.871 46.668 113.477 43.9922H105.078C105.684 46.668 105.996 50.0469 105.996 54.1289V61.8828C105.996 65.9453 105.684 69.3242 105.078 72H113.477Z" fill="#181E1E"/>
<path d="M127.988 72.4883C131.211 72.4883 133.73 71.6094 135.547 69.832C137.344 68.0547 138.242 65.4961 138.242 62.1172V54.1289C138.242 50.0469 138.555 46.668 139.16 43.9922H130.762C131.367 46.668 131.68 50.0469 131.68 54.1289V61.043C131.68 64.168 130.352 65.9258 128.027 65.9258C125.684 65.9258 124.395 64.1875 124.395 61.043V54.1289C124.395 50.125 124.688 46.7461 125.273 43.9922H116.875C117.168 45.2031 117.402 46.7461 117.578 48.6016C117.754 50.4766 117.832 52.3125 117.832 54.1289V62.1172C117.832 65.6328 118.887 68.3672 120.723 70.0078C122.559 71.668 125 72.4883 127.988 72.4883Z" fill="#181E1E"/>
<path d="M150.859 72C150.254 69.3242 149.941 65.9453 149.941 61.8828V54.9688H150.254L155.508 68.6016H157.383L162.617 54.9688H162.988V61.8828C162.988 65.9453 162.676 69.3242 162.07 72H170.469C169.863 69.3242 169.551 65.9453 169.551 61.8828V54.1289C169.551 50.0469 169.863 46.668 170.469 43.9922H161.621L158.145 52.8008C157.422 54.832 156.934 56.4922 156.699 57.8008H156.348C156.016 56.0625 155.508 54.3828 154.863 52.8008L151.387 43.9922H142.461C143.066 46.668 143.379 50.0469 143.379 54.1289V61.8828C143.379 65.9453 143.066 69.3242 142.461 72H150.859Z" fill="#181E1E"/>
<path d="M190.82 72.4883C192.793 72.4883 194.57 72.2148 196.113 71.6289C199.219 70.4961 201.23 68.0547 201.23 64.7539C201.23 62.6641 200.43 60.8672 199.199 59.7344C197.969 58.6016 196.348 57.5859 194.727 56.9414C191.484 55.5352 188.203 54.6758 188.223 52.5273C188.223 51.7852 188.594 51.1992 189.355 50.75C190.117 50.3008 191.074 50.0859 192.227 50.0859C193.574 50.0859 194.902 50.3008 196.211 50.75C197.52 51.1992 198.594 51.8047 199.473 52.5664V45.1641C198.535 44.7148 197.363 44.3242 195.977 43.9922C194.59 43.6797 193.164 43.5234 191.738 43.5234C188.75 43.5234 186.289 44.2266 184.395 45.6133C182.5 47.0195 181.543 48.9531 181.543 51.3945C181.543 53.4453 182.363 55.2031 183.574 56.3359C184.785 57.4688 186.367 58.4844 187.988 59.1094C191.211 60.5547 194.434 61.4141 194.434 63.5234C194.434 64.3242 194.043 64.9297 193.281 65.3789C192.52 65.8281 191.543 66.043 190.391 66.043C188.867 66.043 187.305 65.75 185.684 65.1836C184.062 64.6172 182.695 63.8164 181.582 62.7617L181.387 70.3594C182.598 70.9648 184.102 71.4727 185.898 71.8828C187.695 72.293 189.336 72.4883 190.82 72.4883Z" fill="#181E1E"/>
<path d="M214.629 72.4883C217.852 72.4883 220.371 71.6094 222.188 69.832C223.984 68.0547 224.883 65.4961 224.883 62.1172V54.1289C224.883 50.0469 225.195 46.668 225.801 43.9922H217.402C218.008 46.668 218.32 50.0469 218.32 54.1289V61.043C218.32 64.168 216.992 65.9258 214.668 65.9258C212.324 65.9258 211.035 64.1875 211.035 61.043V54.1289C211.035 50.125 211.328 46.7461 211.914 43.9922H203.516C203.809 45.2031 204.043 46.7461 204.219 48.6016C204.395 50.4766 204.473 52.3125 204.473 54.1289V62.1172C204.473 65.6328 205.527 68.3672 207.363 70.0078C209.199 71.668 211.641 72.4883 214.629 72.4883Z" fill="#181E1E"/>
<path d="M247.461 72.6055C249.043 72.6055 250.508 71.7461 251.133 70.6328L251.055 62.3906C250.312 64.0117 249.199 64.832 247.734 64.832C244.863 64.832 246.328 58.2891 241.133 58.2891H240.859V57.9961H241.055C243.613 57.9961 245.664 57.4102 247.227 56.2383C248.77 55.0664 249.551 53.3672 249.551 51.1211C249.551 48.7969 248.691 47.0391 246.953 45.8086C245.215 44.5977 242.93 43.9922 240.059 43.9922H229.023C229.473 46.082 229.707 49.5 229.707 54.2461V61.7656C229.707 65.9844 229.473 69.4023 229.023 72H237.07C236.562 69.6953 236.309 66.4727 236.309 62.3516V59.9297C236.543 59.8125 236.973 59.7539 237.578 59.7539C240.078 59.7539 240.801 62.1367 241.367 64.8125C241.738 66.6289 242.188 68.543 242.949 70.0469C243.711 71.5508 245.254 72.6055 247.461 72.6055ZM236.309 50.2812H239.219C241.348 50.2812 242.812 51.3555 242.812 53.2891C242.812 55.418 241.387 56.5117 239.102 56.5117H236.309V50.2812Z" fill="#181E1E"/>
<path d="M261.836 72C261.191 69.4219 260.879 66.1406 260.879 62.1562V60.2422H264.434C266.27 60.2422 267.734 60.3008 268.848 60.4375V56.043C268.008 56.1797 266.582 56.2383 264.551 56.2383H260.879V50.5156H266.484C269.121 50.5156 270.84 50.8086 271.641 51.3945L270.605 43.9922H253.398C254.004 46.668 254.316 50.0469 254.316 54.1289V61.8828C254.316 65.9453 254.004 69.3242 253.398 72H261.836Z" fill="#181E1E"/>
<path d="M278.828 72C278.789 70.1836 279.023 67.8789 279.531 65.0859L279.824 64.0703H285.82L286.055 65.0859C286.602 67.8398 286.855 70.1445 286.816 72H295.215C294.023 69.2461 292.969 65.8867 292.051 61.8828L289.902 54.1289C289.531 52.4297 289.238 50.6133 289.023 48.7188C288.789 46.8242 288.672 45.2617 288.691 43.9922H276.973C276.973 45.2812 276.855 46.8633 276.641 48.7383C276.406 50.6328 276.094 52.4297 275.703 54.1289L273.574 61.8828C273.164 63.6406 272.676 65.457 272.09 67.332C271.504 69.207 270.938 70.7695 270.41 72H278.828ZM281.777 56.3945C281.992 55.5156 282.168 54.4414 282.266 53.7773C282.344 53.2109 282.52 51.6875 282.617 51.1211H283.027C283.359 53.6406 283.633 55.3984 283.867 56.3945L285.059 60.3984H280.586L281.777 56.3945Z" fill="#181E1E"/>
<path d="M306.777 72.4883C309.551 72.4883 312.129 72 314.512 71.043V63.4062C312.832 64.9102 310.703 65.6719 308.145 65.6719C306.172 65.6719 304.59 65.0469 303.359 63.7969C302.129 62.5664 301.504 60.6328 301.504 58.0352C301.504 55.3984 302.09 53.4648 303.281 52.1953C304.473 50.9453 306.055 50.3203 308.027 50.3203C310.059 50.3203 312.168 51.1016 313.418 52.2734L313.457 44.832C311.836 43.9531 309.668 43.5234 306.953 43.5234C304.395 43.5234 302.012 44.207 299.922 45.75C296.816 47.957 294.668 52.0586 294.668 57.9961C294.668 62.8203 296.113 66.7266 298.398 69.0117C300.684 71.2969 303.574 72.4883 306.777 72.4883Z" fill="#181E1E"/>
<path d="M334.785 72L335.957 64.4414C335.43 64.7734 334.707 65.0273 333.789 65.2031C332.871 65.3789 331.504 65.4766 329.668 65.4766H324.629V59.5195H328.867C330.586 59.5195 331.992 59.5781 333.105 59.7148V55.4375C331.992 55.5742 330.586 55.6328 328.867 55.6328H324.629V50.5156H330.039C332.715 50.5156 334.414 50.7891 335.156 51.3555L334.141 43.9922H317.109C317.402 45.2227 317.637 46.7852 317.812 48.6602C317.988 50.5547 318.066 52.3711 318.066 54.1289V61.8828C318.066 63.6406 317.988 65.457 317.812 67.332C317.637 69.207 317.402 70.7695 317.109 72H334.785Z" fill="#181E1E"/>
<path d="M341.23 77.4883C343.75 75.6719 345.312 73.0156 345.312 70.125C345.312 68.875 344.961 67.8789 344.277 67.1367C343.594 66.4141 342.754 66.043 341.797 66.043C340.938 66.043 340.195 66.3555 339.59 66.9805C338.984 67.6055 338.672 68.3477 338.672 69.207C338.672 70.0078 338.926 70.6914 339.453 71.2188C339.961 71.7656 340.586 72.0391 341.348 72.0391C341.621 72.0391 341.875 72 342.109 71.9219C341.953 72.6055 341.562 73.3086 340.957 74.0508C340.352 74.7734 339.707 75.3398 339.023 75.7109L341.23 77.4883Z" fill="#181E1E"/>
<path d="M140.352 94.2109C140.992 94.2109 141.555 94.1016 142.031 93.8906V92.6875C141.617 92.8906 141.133 92.9922 140.586 92.9922C139.297 92.9922 138.703 92.3906 138.703 90.9609V87.0391H141.992V86H138.703V82.7969L137.344 83.1719V86H135.359V87.0391H137.344V91.3438C137.344 93.2578 138.344 94.2109 140.352 94.2109Z" fill="#181E1E"/>
<path d="M145.266 94C145.156 93.6641 145.102 93.0625 145.102 92.1797L145.086 89.8906C145.086 89.4219 145.211 88.9688 145.461 88.5234C145.711 88.0859 146.07 87.7188 146.531 87.4297C146.992 87.1406 147.5 86.9922 148.047 86.9922C149.648 86.9922 150.594 87.875 150.594 89.5547V92.1562C150.594 92.8672 150.539 93.4766 150.43 94H152.18C152.07 93.4766 152.016 92.8359 152.016 92.0625V89.2969C152.016 87.0234 150.742 85.7891 148.562 85.7891C146.961 85.7891 145.766 86.5859 145.234 88.0312H145.102V84.7969C145.102 83.9141 145.156 83.2422 145.266 82.7969H143.508C143.609 83.2188 143.664 83.8828 143.664 84.7969V91.9844C143.664 92.9062 143.609 93.5781 143.508 94H145.266Z" fill="#181E1E"/>
<path d="M157.625 94.2109C158.414 94.2109 159.078 94.0625 159.625 93.7578C160.164 93.4609 160.531 93.0859 160.727 92.625H160.852V92.75C160.852 93.2812 160.797 93.6953 160.695 94H162.391C162.281 93.6328 162.227 92.9844 162.227 92.0469V88.8125C162.227 86.7969 160.922 85.7891 158.312 85.7891C157.766 85.7891 157.188 85.8516 156.578 85.9688C155.969 86.0859 155.508 86.2109 155.188 86.3359V87.4219C155.391 87.2891 155.781 87.1484 156.359 87C156.93 86.8516 157.508 86.7812 158.086 86.7812C159.93 86.7812 160.852 87.5156 160.852 88.9922V90.3203H160.695C160.5 89.8828 160.133 89.5 159.594 89.1797C159.047 88.8594 158.398 88.7031 157.641 88.7031C156.586 88.7031 155.758 88.9531 155.156 89.4609C154.555 89.9688 154.25 90.6328 154.25 91.4531C154.25 92.2656 154.555 92.9297 155.156 93.4375C155.758 93.9531 156.578 94.2109 157.625 94.2109ZM158.164 93.2188C157.375 93.2188 156.75 93.0547 156.305 92.7266C155.852 92.3984 155.625 91.9688 155.625 91.4375C155.625 90.8984 155.852 90.4688 156.297 90.1406C156.742 89.8125 157.367 89.6484 158.164 89.6484C158.93 89.6484 159.57 89.8359 160.078 90.2109C160.586 90.5859 160.836 90.9922 160.836 91.4375C160.836 92.0078 160.594 92.4453 160.117 92.75C159.641 93.0625 158.984 93.2188 158.164 93.2188Z" fill="#181E1E"/>
<path d="M166.547 94C166.43 93.6328 166.367 93.0312 166.367 92.1797V89.8906C166.367 89.4219 166.492 88.9688 166.742 88.5234C166.992 88.0859 167.352 87.7188 167.812 87.4297C168.273 87.1406 168.781 86.9922 169.328 86.9922C170.93 86.9922 171.875 87.875 171.875 89.5547V92.1562C171.875 92.8672 171.82 93.4766 171.711 94H173.461C173.352 93.4766 173.297 92.8359 173.297 92.0625V89.2969C173.297 88.1641 172.992 87.2891 172.383 86.6875C171.766 86.0859 170.922 85.7891 169.844 85.7891C168.242 85.7891 167.047 86.5859 166.516 88.0312H166.367V87.4375C166.367 86.8281 166.43 86.3516 166.562 86H164.789C164.891 86.4219 164.945 87.0469 164.945 87.875V92.2109C164.945 92.9844 164.891 93.5781 164.789 94H166.547Z" fill="#181E1E"/>
<path d="M183.109 94.2422C183.719 94.2422 184.148 94.0312 184.406 93.6016L184.297 92.0938C184.078 92.5938 183.812 92.8672 183.352 92.8672C182.109 92.8672 182.328 90.0625 180.391 90.0625V89.9375H180.469C182.242 89.9375 183.305 89.1953 183.305 87.875C183.305 86.5859 182.43 85.8047 180.836 85.8047C180.016 85.8047 179.312 86.0312 178.742 86.4844C178.172 86.9453 177.789 87.5312 177.594 88.2422H177.492V84.7969C177.492 83.9844 177.547 83.3203 177.656 82.7969H175.914C176.016 83.2891 176.07 83.9609 176.07 84.7969V91.9844C176.07 92.8359 176.016 93.5078 175.914 94H177.656C177.555 93.5156 177.508 92.9375 177.508 92.2578V90.4766C177.609 90.4375 177.797 90.4062 178.086 90.375C178.367 90.3516 178.609 90.3359 178.805 90.3359C179.516 90.3359 180.078 90.5781 180.398 90.9453C180.711 91.3125 181 91.7969 181.172 92.2891C181.578 93.2734 181.898 94.2422 183.109 94.2422ZM177.531 89.5234C177.508 88.2109 179.023 86.9141 180.359 86.9609C181.273 86.9609 181.812 87.4062 181.812 88.0938C181.812 89.0078 181.055 89.5234 179.812 89.5234H177.531Z" fill="#181E1E"/>
<path d="M188.906 94.2109C189.914 94.2109 190.727 93.9844 191.328 93.5312C191.93 93.0859 192.234 92.5078 192.234 91.8047C192.234 91.375 192.133 91.0156 191.938 90.7109C191.539 90.1172 190.883 89.8594 190.125 89.6562C188.625 89.2578 186.875 89.25 186.875 88.125C186.875 87.4062 187.633 86.8984 188.844 86.8984C189.375 86.8984 189.898 86.9688 190.422 87.1016C190.938 87.2422 191.359 87.3984 191.688 87.5703V86.3984C191.312 86.2266 190.859 86.0781 190.328 85.9609C189.797 85.8438 189.281 85.7891 188.789 85.7891C187.797 85.7891 187.016 86.0078 186.438 86.4531C185.852 86.8984 185.562 87.4453 185.562 88.0938C185.562 88.8203 185.898 89.3672 186.398 89.6484C186.898 89.9375 187.57 90.1797 188.234 90.2812C189.57 90.5547 190.906 90.7344 190.906 91.8047C190.906 92.6094 190.133 93.0859 188.844 93.0859C188.258 93.0859 187.625 92.9922 186.953 92.7969C186.273 92.6094 185.719 92.375 185.273 92.0938V93.3906C185.719 93.6172 186.289 93.8125 186.992 93.9688C187.695 94.1328 188.336 94.2109 188.906 94.2109Z" fill="#181E1E"/>
<path d="M202.352 94.2109C202.992 94.2109 203.555 94.1016 204.031 93.8906V92.6875C203.617 92.8906 203.133 92.9922 202.586 92.9922C201.297 92.9922 200.703 92.3906 200.703 90.9609V87.0391H203.992V86H200.703V82.7969L199.344 83.1719V86H197.359V87.0391H199.344V91.3438C199.344 93.2578 200.344 94.2109 202.352 94.2109Z" fill="#181E1E"/>
<path d="M209.555 94.2109C210.867 94.2109 211.938 93.8125 212.773 93.0234C213.602 92.2344 214.016 91.2266 214.016 90C214.016 88.7734 213.602 87.7656 212.781 86.9766C211.953 86.1875 210.883 85.7891 209.57 85.7891C208.242 85.7891 207.164 86.1875 206.336 86.9766C205.5 87.7656 205.086 88.7734 205.086 90C205.086 91.2266 205.5 92.2344 206.336 93.0234C207.164 93.8125 208.234 94.2109 209.555 94.2109ZM207.344 92.2422C206.75 91.6562 206.453 90.9141 206.453 90C206.453 89.0859 206.75 88.3438 207.344 87.7578C207.938 87.1719 208.672 86.8828 209.555 86.8828C210.438 86.8828 211.172 87.1719 211.766 87.7578C212.359 88.3438 212.656 89.0859 212.656 90C212.656 90.9141 212.359 91.6562 211.766 92.2422C211.172 92.8281 210.438 93.1172 209.555 93.1172C208.672 93.1172 207.938 92.8281 207.344 92.2422Z" fill="#181E1E"/>
<path d="M32.6621 176.821C33.5967 176.821 34.5596 176.736 35.4941 176.538C36.4287 176.34 37.3066 176.085 38.0996 175.802C38.8926 175.519 39.3457 175.377 39.459 175.349L39.6855 163.766C37.3633 165.097 33.9932 165.748 29.6035 165.748H16.3779V147.51C16.3779 142.44 16.7178 138.419 17.3975 135.389H4.65332C5.38965 138.391 5.75781 142.44 5.75781 147.566V163.822C5.75781 169.43 5.38965 173.763 4.65332 176.821C8.02344 175.462 11.7051 174.782 15.6699 174.782C18.0771 174.782 21.0225 175.122 24.4492 175.802C27.876 176.481 30.623 176.821 32.6621 176.821Z" fill="#E0B967"/>
<path d="M79.4473 176L81.0615 163.879C80.2402 164.417 79.0791 164.813 77.5215 165.097C75.9639 165.408 73.5 165.55 70.1016 165.55H56.5928V159.064H68.459C71.5459 159.064 73.7266 159.149 75.0293 159.348V152.466C73.3018 152.664 71.0928 152.749 68.459 152.749H56.5928V145.839H70.8945C73.415 145.839 75.3125 145.924 76.5869 146.122C77.8613 146.32 78.8525 146.688 79.5039 147.17L77.8047 135.389H44.8682C45.6045 138.391 45.9727 142.44 45.9727 147.566V163.822C45.9727 168.948 45.6045 172.998 44.8682 176H79.4473Z" fill="#E0B967"/>
<path d="M137.221 176.878C138.552 176.878 139.798 176.566 140.987 175.943C142.148 175.349 143.026 174.556 143.593 173.621L143.196 159.829C141.979 162.746 140.223 164.502 137.051 164.502C134.7 164.502 133.539 162.604 131.953 160.707C131.358 160.056 130.792 159.433 130.197 158.866C129.036 157.762 127.054 156.912 124.703 156.912H124.59V156.572H125.326C133.567 156.686 140.109 152.268 140.024 145.782C140.053 139.212 133.397 135.275 125.043 135.389H101.962C102.613 138.306 102.953 142.384 102.953 147.566V163.822C102.953 168.948 102.613 173.026 101.962 176H114.678C113.97 173.083 113.63 169.033 113.63 163.822V159.461C114.055 159.234 115.329 159.121 117.453 159.121C122.976 159.121 124.93 162.604 126.459 166.541C128.328 171.384 129.857 176.878 137.221 176.878ZM113.63 145.499H123.202C124.958 145.499 126.402 145.896 127.535 146.688C128.668 147.481 129.234 148.501 129.234 149.719C129.234 152.353 126.657 154.023 122.721 154.023H113.63V145.499Z" fill="#E0B967"/>
<path d="M160.132 176C159.452 172.97 159.112 168.92 159.112 163.822V147.566C159.112 142.469 159.452 138.419 160.132 135.389H147.388C148.124 138.391 148.492 142.44 148.492 147.566V163.822C148.492 168.948 148.124 172.998 147.388 176H160.132Z" fill="#E0B967"/>
<path d="M180.013 176C179.758 174.669 179.503 172.743 179.305 170.223C179.106 167.702 178.993 165.323 178.993 163.114V150.313H179.729L197.939 176H207.993V147.566C207.993 142.469 208.333 138.419 209.013 135.389H196.269C196.523 136.663 196.778 138.476 197.005 140.826C197.203 143.177 197.316 145.414 197.316 147.51V160.339H196.552L178.88 135.445L167.269 135.389C168.005 138.391 168.373 142.44 168.373 147.566V163.822C168.373 168.948 168.005 172.998 167.269 176H180.013Z" fill="#E0B967"/>
<path d="M247.245 184.468C249.964 184.468 252.371 183.59 254.495 181.806L252.286 177.444C251.012 178.832 249.284 179.54 247.075 179.54C245.942 179.54 244.385 179.257 243.394 179.03C243.11 178.945 242.686 178.832 242.119 178.634C241.553 178.436 241.185 178.294 241.015 178.237C240.845 178.181 240.42 178.039 239.769 177.784C239.089 177.529 238.692 177.359 238.607 177.331V176.708C243.932 176.17 248.548 173.989 251.918 170.478C255.288 166.994 257.271 161.783 257.271 155.694C257.271 149.096 254.892 143.545 251.012 140.033C247.132 136.55 241.808 134.596 235.804 134.596C229.828 134.596 224.504 136.55 220.652 140.033C216.772 143.545 214.394 149.096 214.394 155.694C214.394 160.792 215.64 165.068 218.132 168.495C220.596 171.95 223.938 174.329 228.101 175.604V176.34C225.637 177.274 223.768 178.775 222.465 180.871L225.665 184.128C227.053 181.947 228.865 180.645 231.924 180.645C233.113 180.645 234.416 180.843 235.804 181.239C237.191 181.636 238.438 182.089 239.514 182.57C241.609 183.477 244.838 184.468 247.245 184.468ZM235.804 168.41C232.773 168.41 230.281 167.249 228.327 164.955C226.373 162.661 225.382 159.574 225.382 155.694C225.382 151.814 226.373 148.728 228.327 146.434C230.281 144.14 232.773 143.007 235.804 143.007C238.862 143.007 241.383 144.14 243.365 146.434C245.319 148.728 246.311 151.814 246.311 155.694C246.311 159.574 245.319 162.661 243.365 164.955C241.383 167.249 238.862 168.41 235.804 168.41Z" fill="#E0B967"/>
<path d="M282.787 176.821C288.876 176.821 293.634 175.292 297.032 172.262C300.402 169.231 302.102 164.927 302.102 159.348V147.566C302.102 142.44 302.47 138.391 303.206 135.389H290.434C291.142 138.476 291.481 142.554 291.481 147.566V156.572C291.481 159.546 290.717 161.896 289.216 163.624C287.687 165.352 285.562 166.201 282.844 166.201C280.153 166.201 278.086 165.352 276.585 163.624C275.084 161.896 274.319 159.546 274.319 156.572V147.566C274.319 142.299 274.631 138.249 275.282 135.389H262.538C263.274 138.164 263.643 142.214 263.643 147.566V159.348C263.643 165.21 265.682 169.77 269.137 172.573C272.592 175.405 277.236 176.821 282.787 176.821Z" fill="#E0B967"/>
<path d="M344.922 176L346.536 163.879C345.715 164.417 344.554 164.813 342.996 165.097C341.438 165.408 338.975 165.55 335.576 165.55H322.067V159.064H333.934C337.021 159.064 339.201 159.149 340.504 159.348V152.466C338.776 152.664 336.567 152.749 333.934 152.749H322.067V145.839H336.369C338.89 145.839 340.787 145.924 342.062 146.122C343.336 146.32 344.327 146.688 344.979 147.17L343.279 135.389H310.343C311.079 138.391 311.447 142.44 311.447 147.566V163.822C311.447 168.948 311.079 172.998 310.343 176H344.922Z" fill="#E0B967"/>
</svg>
