<svg width="53" height="10" viewBox="0 0 53 10" fill="none" xmlns="http://www.w3.org/2000/svg">
<path d="M2.7168 9C2.57031 8.36133 2.5 7.5293 2.5 6.51562V4.95703H2.59375C2.66992 5.49023 2.88672 5.90039 3.23242 6.1875C3.57812 6.47461 4.00586 6.62109 4.50391 6.62109C5.125 6.62109 5.63477 6.35742 6.0332 5.83594C6.42578 5.31445 6.625 4.58789 6.625 3.65039C6.625 2.70703 6.34375 1.96289 5.77539 1.41797C5.20703 0.873047 4.48047 0.597656 3.58984 0.597656H0.660156C0.8125 1.27148 0.888672 2.11523 0.888672 3.11719V6.48047C0.888672 7.4707 0.8125 8.31445 0.660156 9H2.7168ZM2.92188 4.78711C2.65234 4.4707 2.51172 4.07812 2.5 3.60938V2.17383C2.85742 2.11523 3.17969 2.08594 3.46094 2.08594C3.91797 2.08594 4.28711 2.23828 4.56836 2.53711C4.84375 2.83594 4.98438 3.23438 4.98438 3.7207C4.98438 4.20117 4.87891 4.57617 4.67383 4.85156C4.46289 5.12695 4.1875 5.26758 3.8418 5.26758C3.49609 5.26758 3.19141 5.10938 2.92188 4.78711Z" fill="#E0B967"/>
<path d="M12.8359 9.16992C13.2578 9.16992 13.6445 8.97656 13.832 8.67773L13.7734 6.66211C13.5801 7.06641 13.3105 7.27148 12.959 7.27148C12.0391 7.27148 12.5547 4.86914 10.7266 4.86914H10.6504V4.78711H10.75C11.4941 4.78711 12.0918 4.60547 12.543 4.23633C12.9941 3.86719 13.2227 3.36328 13.2227 2.72461C13.2227 2.03906 12.9707 1.51758 12.4668 1.14844C11.957 0.779297 11.2891 0.597656 10.4629 0.597656H7.36328C7.47461 1.1543 7.5332 2.00391 7.5332 3.1582V6.44531C7.5332 7.48242 7.47461 8.33789 7.36328 9H9.34375C9.22656 8.46094 9.16797 7.65234 9.16797 6.57422V5.39062C9.25586 5.34961 9.44336 5.32617 9.73047 5.32617C11.7871 5.32617 10.4805 9.16992 12.8359 9.16992ZM9.16797 2.15039H10.2695C11.0488 2.15039 11.5645 2.52539 11.5645 3.18164C11.5645 3.89062 11.0547 4.2832 10.2109 4.2832H9.16797V2.15039Z" fill="#E0B967"/>
<path d="M19.6855 9L19.9727 7.1543C19.6855 7.32422 19.1289 7.40625 18.3145 7.40625H16.3867V5.26758H17.9922C18.5605 5.26758 18.9648 5.28516 19.2051 5.32617V4.03125C18.8828 4.07227 18.4785 4.08984 17.9922 4.08984H16.3867V2.19727H18.3438C19.0527 2.19727 19.5215 2.26758 19.7441 2.40234L19.4922 0.597656H14.5469C14.6992 1.27148 14.7754 2.11523 14.7754 3.11719V6.48047C14.7754 7.4707 14.6992 8.31445 14.5469 9H19.6855Z" fill="#E0B967"/>
<path d="M23.3828 9.14648C24.2441 9.14648 24.9531 8.94141 25.498 8.53125C26.043 8.12695 26.3125 7.56445 26.3125 6.84961C26.3125 6.49219 26.2422 6.16406 26.0957 5.87109C25.8086 5.29102 25.3281 4.95117 24.7715 4.64062C23.6641 4.03711 22.3867 3.73242 22.3867 2.91797C22.3867 2.6543 22.5098 2.44922 22.7559 2.29102C22.9961 2.13867 23.3125 2.0625 23.7051 2.0625C24.502 2.0625 25.3105 2.33789 25.8438 2.75977V0.949219C25.1699 0.621094 24.4258 0.457031 23.6113 0.457031C21.9824 0.433594 20.7109 1.35938 20.7344 2.75977C20.7344 3.86719 21.4551 4.51172 22.2754 4.93945C23.3711 5.53711 24.6426 5.85938 24.6426 6.67383C24.6426 6.95508 24.5195 7.17188 24.2676 7.32422C24.0156 7.48242 23.6875 7.55859 23.2891 7.55859C22.8496 7.55859 22.3984 7.48242 21.9238 7.32422C21.4492 7.16602 21.0391 6.94336 20.6934 6.65039L20.6465 8.49609C21.0098 8.68945 21.4492 8.8418 21.9648 8.96484C22.4805 9.08789 22.9551 9.14648 23.3828 9.14648Z" fill="#E0B967"/>
<path d="M32.2949 9L32.582 7.1543C32.2949 7.32422 31.7383 7.40625 30.9238 7.40625H28.9961V5.26758H30.6016C31.1699 5.26758 31.5742 5.28516 31.8145 5.32617V4.03125C31.4922 4.07227 31.0879 4.08984 30.6016 4.08984H28.9961V2.19727H30.9531C31.6621 2.19727 32.1309 2.26758 32.3535 2.40234L32.1016 0.597656H27.1562C27.3086 1.27148 27.3848 2.11523 27.3848 3.11719V6.48047C27.3848 7.4707 27.3086 8.31445 27.1562 9H32.2949Z" fill="#E0B967"/>
<path d="M35.6113 9C35.5469 8.71875 35.4883 8.33203 35.4473 7.8457C35.4062 7.35938 35.3828 6.88477 35.3828 6.41016V3.73242H35.5L38.3066 9H39.8242V3.11719C39.8242 2.04492 39.9004 1.20117 40.0469 0.597656H37.9844C38.1074 1.13672 38.1836 1.9043 38.2129 2.90625V5.74805H38.0957L35.3477 0.609375L33.543 0.597656C33.6953 1.27148 33.7715 2.11523 33.7715 3.11719V6.48047C33.7715 7.4707 33.6953 8.31445 33.543 9H35.6113Z" fill="#E0B967"/>
<path d="M44.7344 9C44.582 8.36719 44.5059 7.5293 44.5059 6.48047V2.20898H45.2793C45.7832 2.20898 46.2051 2.28516 46.5391 2.4375L46.2578 0.597656H41.1016L40.8379 2.4375C41.1719 2.28516 41.5938 2.20898 42.0977 2.20898H42.9004V6.48047C42.9004 7.4707 42.8242 8.31445 42.6719 9H44.7344Z" fill="#E0B967"/>
<path d="M49.7031 9.14648C50.5645 9.14648 51.2734 8.94141 51.8184 8.53125C52.3633 8.12695 52.6328 7.56445 52.6328 6.84961C52.6328 6.49219 52.5625 6.16406 52.416 5.87109C52.1289 5.29102 51.6484 4.95117 51.0918 4.64062C49.9844 4.03711 48.707 3.73242 48.707 2.91797C48.707 2.6543 48.8301 2.44922 49.0762 2.29102C49.3164 2.13867 49.6328 2.0625 50.0254 2.0625C50.8223 2.0625 51.6309 2.33789 52.1641 2.75977V0.949219C51.4902 0.621094 50.7461 0.457031 49.9316 0.457031C48.3027 0.433594 47.0312 1.35938 47.0547 2.75977C47.0547 3.86719 47.7754 4.51172 48.5957 4.93945C49.6914 5.53711 50.9629 5.85938 50.9629 6.67383C50.9629 6.95508 50.8398 7.17188 50.5879 7.32422C50.3359 7.48242 50.0078 7.55859 49.6094 7.55859C49.1699 7.55859 48.7188 7.48242 48.2441 7.32422C47.7695 7.16602 47.3594 6.94336 47.0137 6.65039L46.9668 8.49609C47.3301 8.68945 47.7695 8.8418 48.2852 8.96484C48.8008 9.08789 49.2754 9.14648 49.7031 9.14648Z" fill="#E0B967"/>
</svg>
