<svg width="350" height="60" viewBox="0 0 350 60" fill="none" xmlns="http://www.w3.org/2000/svg">
<path d="M0 0H350V60H0V0Z" fill="#181E1E"/>
<path fill-rule="evenodd" clip-rule="evenodd" d="M316.634 43.5415L330 29.7319L316.634 16C314.511 16 312.467 16 310.344 16.0772L322.924 29.7324L310.344 43.4643C312.467 43.5415 314.511 43.4642 316.634 43.5415Z" fill="#F4F1E1"/>
<path fill-rule="evenodd" clip-rule="evenodd" d="M304.368 43.5415L317.735 29.7319L304.368 16C302.246 16 300.201 16 298 16.0772L310.658 29.7324L298 43.4643C300.201 43.5415 302.246 43.4642 304.368 43.5415Z" fill="#F4F1E1"/>
<path d="M36.125 42.4531C37.25 42.4531 38.2812 41.9375 38.7812 41.1406L38.625 35.7656C38.1094 36.8438 37.3906 37.3906 36.4531 37.3906C34 37.3906 35.375 30.9844 30.5 30.9844H30.2969V30.7656H30.5625C32.5469 30.7656 34.1406 30.2812 35.3438 29.2969C36.5469 28.3125 37.1562 26.9688 37.1562 25.2656C37.1562 23.4375 36.4844 22.0469 35.1406 21.0625C33.7812 20.0781 32 19.5938 29.7969 19.5938H21.5312C21.8281 21.0781 21.9844 23.3438 21.9844 26.4219V35.1875C21.9844 37.9531 21.8281 40.2344 21.5312 42H26.8125C26.5 40.5625 26.3438 38.4062 26.3438 35.5312V32.375C26.5781 32.2656 27.0781 32.2031 27.8438 32.2031C33.3281 32.2031 29.8438 42.4531 36.125 42.4531ZM26.3438 23.7344H29.2812C31.3594 23.7344 32.7344 24.7344 32.7344 26.4844C32.7344 28.375 31.375 29.4219 29.125 29.4219H26.3438V23.7344Z" fill="#F4F1E1"/>
<path d="M54.3906 42L55.1562 37.0781C54.3906 37.5312 52.9062 37.75 50.7344 37.75H45.5938V32.0469H49.875C51.3906 32.0469 52.4688 32.0938 53.1094 32.2031V28.75C52.25 28.8594 51.1719 28.9062 49.875 28.9062H45.5938V23.8594H50.8125C52.7031 23.8594 53.9531 24.0469 54.5469 24.4062L53.875 19.5938H40.6875C41.0938 21.3906 41.2969 23.6406 41.2969 26.3125V35.2812C41.2969 37.9219 41.0938 40.1719 40.6875 42H54.3906Z" fill="#F4F1E1"/>
<path d="M66.6875 42.3906C69.4375 42.3906 72.0156 41.5781 73.8281 40.0156V29.0156H65.8281L65.5938 32.2969C66.1719 32.125 66.9531 32.0469 67.9375 32.0469H69.5625V37.4219C68.9219 37.8906 68.0312 38.125 66.9062 38.125C65.25 38.125 63.9219 37.5 62.9062 36.25C61.8906 35 61.375 33.2031 61.375 30.8594C61.375 28.5625 61.9531 26.75 63.1094 25.4375C64.2656 24.125 65.8125 23.4688 67.7344 23.4688C69.4375 23.4688 71.2344 24 72.3125 24.9375L72.375 20.4688C70.9062 19.6406 69.0781 19.2188 66.9062 19.2188C64.1094 19.2188 61.6406 20.3438 59.8594 22.2969C58.0781 24.25 56.9844 27.2812 56.9844 30.8281C56.9844 33.75 57.6562 36.2969 58.8281 38.125C60.5938 40.8906 63.3906 42.3906 66.6875 42.3906Z" fill="#F4F1E1"/>
<path d="M82.1406 42C81.75 40.2969 81.5625 38.0469 81.5625 35.2812V26.3125C81.5625 23.5469 81.75 21.2969 82.1406 19.5938H76.6562C77.0469 21.2969 77.2344 23.5469 77.2344 26.3125V35.2812C77.2344 38.0469 77.0469 40.2969 76.6562 42H82.1406Z" fill="#F4F1E1"/>
<path d="M91.9375 42.3906C94.2344 42.3906 96.125 41.8438 97.5781 40.75C99.0312 39.6719 99.75 38.1719 99.75 36.2656C99.75 35.3125 99.5625 34.4375 99.1719 33.6562C98.4062 32.1094 97.125 31.2031 95.6406 30.375C92.6875 28.7656 89.2812 27.9531 89.2812 25.7812C89.2812 25.0781 89.6094 24.5312 90.2656 24.1094C90.9062 23.7031 91.75 23.5 92.7969 23.5C94.9219 23.5 97.0781 24.2344 98.5 25.3594V20.5312C96.7031 19.6562 94.7188 19.2188 92.5469 19.2188C88.2031 19.1562 84.8125 21.625 84.875 25.3594C84.875 28.3125 86.7969 30.0312 88.9844 31.1719C91.9062 32.7656 95.2969 33.625 95.2969 35.7969C95.2969 36.5469 94.9688 37.125 94.2969 37.5312C93.625 37.9531 92.75 38.1562 91.6875 38.1562C90.5156 38.1562 89.3125 37.9531 88.0469 37.5312C86.7812 37.1094 85.6875 36.5156 84.7656 35.7344L84.6406 40.6562C85.6094 41.1719 86.7812 41.5781 88.1562 41.9062C89.5312 42.2344 90.7969 42.3906 91.9375 42.3906Z" fill="#F4F1E1"/>
<path d="M111.062 42C110.656 40.3125 110.453 38.0781 110.453 35.2812V23.8906H112.516C113.859 23.8906 114.984 24.0938 115.875 24.5L115.125 19.5938H101.375L100.672 24.5C101.562 24.0938 102.688 23.8906 104.031 23.8906H106.172V35.2812C106.172 37.9219 105.969 40.1719 105.562 42H111.062Z" fill="#F4F1E1"/>
<path d="M131.672 42L132.438 37.0781C131.672 37.5312 130.188 37.75 128.016 37.75H122.875V32.0469H127.156C128.672 32.0469 129.75 32.0938 130.391 32.2031V28.75C129.531 28.8594 128.453 28.9062 127.156 28.9062H122.875V23.8594H128.094C129.984 23.8594 131.234 24.0469 131.828 24.4062L131.156 19.5938H117.969C118.375 21.3906 118.578 23.6406 118.578 26.3125V35.2812C118.578 37.9219 118.375 40.1719 117.969 42H131.672Z" fill="#F4F1E1"/>
<path d="M149.531 42.4531C150.656 42.4531 151.688 41.9375 152.188 41.1406L152.031 35.7656C151.516 36.8438 150.797 37.3906 149.859 37.3906C147.406 37.3906 148.781 30.9844 143.906 30.9844H143.703V30.7656H143.969C145.953 30.7656 147.547 30.2812 148.75 29.2969C149.953 28.3125 150.562 26.9688 150.562 25.2656C150.562 23.4375 149.891 22.0469 148.547 21.0625C147.188 20.0781 145.406 19.5938 143.203 19.5938H134.938C135.234 21.0781 135.391 23.3438 135.391 26.4219V35.1875C135.391 37.9531 135.234 40.2344 134.938 42H140.219C139.906 40.5625 139.75 38.4062 139.75 35.5312V32.375C139.984 32.2656 140.484 32.2031 141.25 32.2031C146.734 32.2031 143.25 42.4531 149.531 42.4531ZM139.75 23.7344H142.688C144.766 23.7344 146.141 24.7344 146.141 26.4844C146.141 28.375 144.781 29.4219 142.531 29.4219H139.75V23.7344Z" fill="#F4F1E1"/>
<path d="M167.344 42.3906C169.641 42.3906 171.531 41.8438 172.984 40.75C174.438 39.6719 175.156 38.1719 175.156 36.2656C175.156 35.3125 174.969 34.4375 174.578 33.6562C173.812 32.1094 172.531 31.2031 171.047 30.375C168.094 28.7656 164.688 27.9531 164.688 25.7812C164.688 25.0781 165.016 24.5312 165.672 24.1094C166.312 23.7031 167.156 23.5 168.203 23.5C170.328 23.5 172.484 24.2344 173.906 25.3594V20.5312C172.109 19.6562 170.125 19.2188 167.953 19.2188C163.609 19.1562 160.219 21.625 160.281 25.3594C160.281 28.3125 162.203 30.0312 164.391 31.1719C167.312 32.7656 170.703 33.625 170.703 35.7969C170.703 36.5469 170.375 37.125 169.703 37.5312C169.031 37.9531 168.156 38.1562 167.094 38.1562C165.922 38.1562 164.719 37.9531 163.453 37.5312C162.188 37.1094 161.094 36.5156 160.172 35.7344L160.047 40.6562C161.016 41.1719 162.188 41.5781 163.562 41.9062C164.938 42.2344 166.203 42.3906 167.344 42.3906Z" fill="#F4F1E1"/>
<path d="M189.016 41.6719C191.141 40.625 192.75 38.7188 193.641 35.7656C194.094 34.2812 194.312 32.625 194.312 30.7969C194.312 28.9688 194.094 27.2969 193.641 25.8125C192.75 22.8438 191.141 20.9531 189.016 19.9219C187.953 19.4062 186.797 19.1562 185.562 19.1562C184.328 19.1562 183.172 19.4062 182.125 19.9219C180 20.9531 178.391 22.8438 177.5 25.8125C177.047 27.2969 176.828 28.9688 176.828 30.7969C176.828 32.625 177.047 34.2812 177.5 35.7656C178.391 38.7188 180 40.625 182.125 41.6719C183.172 42.1875 184.328 42.4531 185.562 42.4531C186.797 42.4531 187.953 42.1875 189.016 41.6719ZM182.5 36.6875C181.703 35.2969 181.312 33.3438 181.312 30.7969C181.312 28.2344 181.703 26.2656 182.484 24.8906C183.266 23.5156 184.297 22.8281 185.562 22.8281C186.828 22.8281 187.859 23.5156 188.656 24.8906C189.438 26.2812 189.828 28.25 189.828 30.7969C189.828 33.3438 189.438 35.2969 188.641 36.6875C187.844 38.0781 186.828 38.7656 185.562 38.7656C184.297 38.7656 183.281 38.0781 182.5 36.6875Z" fill="#F4F1E1"/>
<path d="M208.453 41.6719C210.578 40.625 212.188 38.7188 213.078 35.7656C213.531 34.2812 213.75 32.625 213.75 30.7969C213.75 28.9688 213.531 27.2969 213.078 25.8125C212.188 22.8438 210.578 20.9531 208.453 19.9219C207.391 19.4062 206.234 19.1562 205 19.1562C203.766 19.1562 202.609 19.4062 201.562 19.9219C199.438 20.9531 197.828 22.8438 196.938 25.8125C196.484 27.2969 196.266 28.9688 196.266 30.7969C196.266 32.625 196.484 34.2812 196.938 35.7656C197.828 38.7188 199.438 40.625 201.562 41.6719C202.609 42.1875 203.766 42.4531 205 42.4531C206.234 42.4531 207.391 42.1875 208.453 41.6719ZM201.938 36.6875C201.141 35.2969 200.75 33.3438 200.75 30.7969C200.75 28.2344 201.141 26.2656 201.922 24.8906C202.703 23.5156 203.734 22.8281 205 22.8281C206.266 22.8281 207.297 23.5156 208.094 24.8906C208.875 26.2812 209.266 28.25 209.266 30.7969C209.266 33.3438 208.875 35.2969 208.078 36.6875C207.281 38.0781 206.266 38.7656 205 38.7656C203.734 38.7656 202.719 38.0781 201.938 36.6875Z" fill="#F4F1E1"/>
<path d="M221.547 42C221.375 41.25 221.219 40.2188 221.109 38.9219C221 37.625 220.938 36.3594 220.938 35.0938V27.9531H221.25L228.734 42H232.781V26.3125C232.781 23.4531 232.984 21.2031 233.375 19.5938H227.875C228.203 21.0312 228.406 23.0781 228.484 25.75V33.3281H228.172L220.844 19.625L216.031 19.5938C216.438 21.3906 216.641 23.6406 216.641 26.3125V35.2812C216.641 37.9219 216.438 40.1719 216.031 42H221.547Z" fill="#F4F1E1"/>
<path d="M240.734 35.1875L241.531 19.5938H236.625L237.438 35.1875H240.734ZM239.062 42.4531C239.781 42.4531 240.375 42.2344 240.828 41.7812C241.281 41.3438 241.5 40.7969 241.5 40.1406C241.5 38.8125 240.5 37.8125 239.062 37.8125C237.641 37.8125 236.672 38.8125 236.672 40.1406C236.672 40.7969 236.891 41.3438 237.344 41.7812C237.781 42.2344 238.359 42.4531 239.062 42.4531Z" fill="#F4F1E1"/>
</svg>
