<svg width="350" height="60" viewBox="0 0 350 60" fill="none" xmlns="http://www.w3.org/2000/svg">
<path d="M0 0H350V60H0V0Z" fill="#181E1E"/>
<path fill-rule="evenodd" clip-rule="evenodd" d="M316.634 43.5415L330 29.7319L316.634 16C314.511 16 312.467 16 310.344 16.0772L322.924 29.7324L310.344 43.4643C312.467 43.5415 314.511 43.4643 316.634 43.5415L316.634 43.5415Z" fill="#F4F1E1"/>
<path fill-rule="evenodd" clip-rule="evenodd" d="M304.369 43.5415L317.735 29.7319L304.369 16C302.246 16 300.202 16 298 16.0772L310.658 29.7324L298 43.4643C300.201 43.5415 302.246 43.4643 304.369 43.5415L304.369 43.5415Z" fill="#F4F1E1"/>
<path d="M36.125 42.4531C37.25 42.4531 38.2812 41.9375 38.7812 41.1406L38.625 35.7656C38.1094 36.8438 37.3906 37.3906 36.4531 37.3906C34 37.3906 35.375 30.9844 30.5 30.9844H30.2969V30.7656H30.5625C32.5469 30.7656 34.1406 30.2812 35.3438 29.2969C36.5469 28.3125 37.1562 26.9688 37.1562 25.2656C37.1562 23.4375 36.4844 22.0469 35.1406 21.0625C33.7812 20.0781 32 19.5938 29.7969 19.5938H21.5312C21.8281 21.0781 21.9844 23.3438 21.9844 26.4219V35.1875C21.9844 37.9531 21.8281 40.2344 21.5312 42H26.8125C26.5 40.5625 26.3438 38.4062 26.3438 35.5312V32.375C26.5781 32.2656 27.0781 32.2031 27.8438 32.2031C33.3281 32.2031 29.8438 42.4531 36.125 42.4531ZM26.3438 23.7344H29.2812C31.3594 23.7344 32.7344 24.7344 32.7344 26.4844C32.7344 28.375 31.375 29.4219 29.125 29.4219H26.3438V23.7344ZM54.3906 42L55.1562 37.0781C54.3906 37.5312 52.9062 37.75 50.7344 37.75H45.5938V32.0469H49.875C51.3906 32.0469 52.4688 32.0938 53.1094 32.2031V28.75C52.25 28.8594 51.1719 28.9062 49.875 28.9062H45.5938V23.8594H50.8125C52.7031 23.8594 53.9531 24.0469 54.5469 24.4062L53.875 19.5938H40.6875C41.0938 21.3906 41.2969 23.6406 41.2969 26.3125V35.2812C41.2969 37.9219 41.0938 40.1719 40.6875 42H54.3906ZM66.6875 42.3906C69.4375 42.3906 72.0156 41.5781 73.8281 40.0156V29.0156H65.8281L65.5938 32.2969C66.1719 32.125 66.9531 32.0469 67.9375 32.0469H69.5625V37.4219C68.9219 37.8906 68.0312 38.125 66.9062 38.125C65.25 38.125 63.9219 37.5 62.9062 36.25C61.8906 35 61.375 33.2031 61.375 30.8594C61.375 28.5625 61.9531 26.75 63.1094 25.4375C64.2656 24.125 65.8125 23.4688 67.7344 23.4688C69.4375 23.4688 71.2344 24 72.3125 24.9375L72.375 20.4688C70.9062 19.6406 69.0781 19.2188 66.9062 19.2188C64.1094 19.2188 61.6406 20.3438 59.8594 22.2969C58.0781 24.25 56.9844 27.2812 56.9844 30.8281C56.9844 33.75 57.6562 36.2969 58.8281 38.125C60.5938 40.8906 63.3906 42.3906 66.6875 42.3906ZM82.1406 42C81.75 40.2969 81.5625 38.0469 81.5625 35.2812V26.3125C81.5625 23.5469 81.75 21.2969 82.1406 19.5938H76.6562C77.0469 21.2969 77.2344 23.5469 77.2344 26.3125V35.2812C77.2344 38.0469 77.0469 40.2969 76.6562 42H82.1406ZM91.9375 42.3906C94.2344 42.3906 96.125 41.8438 97.5781 40.75C99.0312 39.6719 99.75 38.1719 99.75 36.2656C99.75 35.3125 99.5625 34.4375 99.1719 33.6562C98.4062 32.1094 97.125 31.2031 95.6406 30.375C92.6875 28.7656 89.2812 27.9531 89.2812 25.7812C89.2812 25.0781 89.6094 24.5312 90.2656 24.1094C90.9062 23.7031 91.75 23.5 92.7969 23.5C94.9219 23.5 97.0781 24.2344 98.5 25.3594V20.5312C96.7031 19.6562 94.7188 19.2188 92.5469 19.2188C88.2031 19.1562 84.8125 21.625 84.875 25.3594C84.875 28.3125 86.7969 30.0312 88.9844 31.1719C91.9062 32.7656 95.2969 33.625 95.2969 35.7969C95.2969 36.5469 94.9688 37.125 94.2969 37.5312C93.625 37.9531 92.75 38.1562 91.6875 38.1562C90.5156 38.1562 89.3125 37.9531 88.0469 37.5312C86.7812 37.1094 85.6875 36.5156 84.7656 35.7344L84.6406 40.6562C85.6094 41.1719 86.7812 41.5781 88.1562 41.9062C89.5312 42.2344 90.7969 42.3906 91.9375 42.3906ZM111.062 42C110.656 40.3125 110.453 38.0781 110.453 35.2812V23.8906H112.516C113.859 23.8906 114.984 24.0938 115.875 24.5L115.125 19.5938H101.375L100.672 24.5C101.562 24.0938 102.688 23.8906 104.031 23.8906H106.172V35.2812C106.172 37.9219 105.969 40.1719 105.562 42H111.062ZM131.672 42L132.438 37.0781C131.672 37.5312 130.188 37.75 128.016 37.75H122.875V32.0469H127.156C128.672 32.0469 129.75 32.0938 130.391 32.2031V28.75C129.531 28.8594 128.453 28.9062 127.156 28.9062H122.875V23.8594H128.094C129.984 23.8594 131.234 24.0469 131.828 24.4062L131.156 19.5938H117.969C118.375 21.3906 118.578 23.6406 118.578 26.3125V35.2812C118.578 37.9219 118.375 40.1719 117.969 42H131.672ZM149.531 42.4531C150.656 42.4531 151.688 41.9375 152.188 41.1406L152.031 35.7656C151.516 36.8438 150.797 37.3906 149.859 37.3906C147.406 37.3906 148.781 30.9844 143.906 30.9844H143.703V30.7656H143.969C145.953 30.7656 147.547 30.2812 148.75 29.2969C149.953 28.3125 150.562 26.9688 150.562 25.2656C150.562 23.4375 149.891 22.0469 148.547 21.0625C147.188 20.0781 145.406 19.5938 143.203 19.5938H134.938C135.234 21.0781 135.391 23.3438 135.391 26.4219V35.1875C135.391 37.9531 135.234 40.2344 134.938 42H140.219C139.906 40.5625 139.75 38.4062 139.75 35.5312V32.375C139.984 32.2656 140.484 32.2031 141.25 32.2031C146.734 32.2031 143.25 42.4531 149.531 42.4531ZM139.75 23.7344H142.688C144.766 23.7344 146.141 24.7344 146.141 26.4844C146.141 28.375 144.781 29.4219 142.531 29.4219H139.75V23.7344ZM166.328 42C166.156 41.25 166 40.2188 165.891 38.9219C165.781 37.625 165.719 36.3594 165.719 35.0938V27.9531H166.031L173.516 42H177.562V26.3125C177.562 23.4531 177.766 21.2031 178.156 19.5938H172.656C172.984 21.0312 173.188 23.0781 173.266 25.75V33.3281H172.953L165.625 19.625L160.812 19.5938C161.219 21.3906 161.422 23.6406 161.422 26.3125V35.2812C161.422 37.9219 161.219 40.1719 160.812 42H166.328ZM192.797 41.6719C194.922 40.625 196.531 38.7188 197.422 35.7656C197.875 34.2812 198.094 32.625 198.094 30.7969C198.094 28.9688 197.875 27.2969 197.422 25.8125C196.531 22.8438 194.922 20.9531 192.797 19.9219C191.734 19.4062 190.578 19.1562 189.344 19.1562C188.109 19.1562 186.953 19.4062 185.906 19.9219C183.781 20.9531 182.172 22.8438 181.281 25.8125C180.828 27.2969 180.609 28.9688 180.609 30.7969C180.609 32.625 180.828 34.2812 181.281 35.7656C182.172 38.7188 183.781 40.625 185.906 41.6719C186.953 42.1875 188.109 42.4531 189.344 42.4531C190.578 42.4531 191.734 42.1875 192.797 41.6719ZM186.281 36.6875C185.484 35.2969 185.094 33.3438 185.094 30.7969C185.094 28.2344 185.484 26.2656 186.266 24.8906C187.047 23.5156 188.078 22.8281 189.344 22.8281C190.609 22.8281 191.641 23.5156 192.438 24.8906C193.219 26.2812 193.609 28.25 193.609 30.7969C193.609 33.3438 193.219 35.2969 192.422 36.6875C191.625 38.0781 190.609 38.7656 189.344 38.7656C188.078 38.7656 187.062 38.0781 186.281 36.6875ZM208.578 42L211.688 27.375H211.969L215.109 42H221C220.906 40.1562 221.078 37.8594 221.516 35.0938L223.422 26.3125C223.891 23.5156 224.453 21.2656 225.094 19.5938H219.625C219.719 20.875 219.594 22.7344 219.234 25.1719L217.672 32.0781C217.422 33.6562 217.281 34.5625 217.25 34.7969H216.969L213.672 19.5938H210.078L206.719 34.7969H206.406C206.375 34.5625 206.234 33.6562 205.984 32.0781L204.453 25.1719C204.094 22.7344 203.969 20.875 204.062 19.5938H198.562C199.219 21.2188 199.781 23.4531 200.266 26.3125L202.188 35.0938C202.609 37.7969 202.781 40.1094 202.688 42H208.578ZM230.984 35.1875L231.781 19.5938H226.875L227.688 35.1875H230.984ZM229.312 42.4531C230.031 42.4531 230.625 42.2344 231.078 41.7812C231.531 41.3438 231.75 40.7969 231.75 40.1406C231.75 38.8125 230.75 37.8125 229.312 37.8125C227.891 37.8125 226.922 38.8125 226.922 40.1406C226.922 40.7969 227.141 41.3438 227.594 41.7812C228.031 42.2344 228.609 42.4531 229.312 42.4531Z" fill="#F4F1E1"/>
</svg>
