<svg width="78" height="78" viewBox="0 0 78 78" fill="none" xmlns="http://www.w3.org/2000/svg">
<path d="M39 0L44.381 5.02549L51.0517 1.90879L54.6164 8.35116L61.9236 7.44834L63.3231 14.6769L70.5517 16.0764L69.6488 23.3836L76.0912 26.9483L72.9745 33.619L78 39L72.9745 44.381L76.0912 51.0517L69.6488 54.6164L70.5517 61.9236L63.3231 63.3231L61.9236 70.5517L54.6164 69.6488L51.0517 76.0912L44.381 72.9745L39 78L33.619 72.9745L26.9483 76.0912L23.3836 69.6488L16.0764 70.5517L14.6769 63.3231L7.44834 61.9236L8.35116 54.6164L1.90879 51.0517L5.02549 44.381L0 39L5.02549 33.619L1.90879 26.9483L8.35116 23.3836L7.44834 16.0764L14.6769 14.6769L16.0764 7.44834L23.3836 8.35116L26.9483 1.90879L33.619 5.02549L39 0Z" fill="#181E1E"/>
<path d="M16.896 50.5469C17.6662 50.3757 18.2492 49.974 18.6432 49.3342C19.0372 48.6944 19.1346 47.9445 18.9431 47.0827C18.7007 45.9921 18.0287 45.0931 17.3135 44.5398C16.2729 43.7467 15.0424 43.1078 14.8594 42.2841C14.7916 41.9791 14.8348 41.7054 14.9873 41.4554C15.1339 41.2147 15.3559 41.0613 15.638 40.9986C16.1643 40.8816 16.6964 41.0435 17.2252 41.4782L16.7642 39.4038C16.2413 39.1038 15.6329 39.031 14.9541 39.1818C14.1839 39.353 13.6161 39.7513 13.2433 40.3784C12.8629 41.0072 12.7748 41.7631 12.9697 42.6401C13.2197 43.801 13.9527 44.5424 14.6985 45.089C15.7052 45.8736 16.7992 46.3667 17.0195 47.3582C17.1687 48.0293 16.8281 48.5852 16.2561 48.7123C15.9892 48.7717 15.679 48.7446 15.3104 48.6344C14.9435 48.5319 14.624 48.3548 14.3401 48.1218L14.8012 50.1962C15.3139 50.5944 16.1409 50.7147 16.896 50.5469Z" fill="#F4F1E1"/>
<path d="M22.8022 49.3222C23.664 49.1306 24.2385 48.4747 24.5316 47.3452C24.8265 46.2232 24.7739 44.7623 24.3755 42.9701C23.9755 41.1703 23.406 39.8323 22.6653 38.9485C21.9264 38.0723 21.1298 37.7292 20.268 37.9207C19.3986 38.114 18.8148 38.7639 18.5242 39.8689C18.2277 40.9833 18.2786 42.4365 18.6786 44.2363C19.0786 46.0362 19.6498 47.3818 20.3922 48.2732C21.1345 49.1646 21.9404 49.5137 22.8022 49.3222ZM22.4055 47.5376C21.7725 47.6783 21.1683 46.4361 20.5852 43.8126C20.0038 41.1967 20.0266 39.8231 20.6596 39.6824C21.2926 39.5417 21.9028 40.7746 22.4842 43.3905C23.0673 46.014 23.0385 47.3969 22.4055 47.5376Z" fill="#F4F1E1"/>
<path d="M32.0572 47.1771C32.8961 46.9906 33.4935 46.5457 33.8401 45.8364L32.5162 39.8802L30.0224 40.4345L30.2657 42.2852C30.4783 42.1259 30.7334 42.0132 31.0156 41.9504L31.1681 41.9165L31.919 45.295C31.8597 45.3162 31.8004 45.3374 31.7394 45.351C31.4114 45.4239 31.0988 45.3493 30.7411 45.0366C30.2158 44.6172 29.6886 43.6139 29.2945 41.8768C28.7589 39.4669 29.1596 37.9932 30.3875 37.7203C30.8603 37.6152 31.3205 37.7771 31.7662 38.1982L31.3051 36.1238C30.9043 35.8688 30.3061 35.7697 29.7493 35.8934C28.6511 36.1375 27.8843 36.8281 27.4395 37.9594C26.9946 39.0907 26.9659 40.5456 27.3608 42.3226C27.7829 44.2216 28.4981 45.6392 29.3354 46.3815C30.1726 47.1238 31.0887 47.3923 32.0572 47.1771Z" fill="#F4F1E1"/>
<path d="M39.4506 45.6218C39.9082 45.5201 40.2081 45.2854 40.3446 44.9269L39.9038 42.9441C39.7937 43.1686 39.7073 43.2839 39.4937 43.3313C38.4336 43.567 39.2114 39.7206 36.4811 40.3275L36.2523 40.3783L36.2252 40.2563L36.2557 40.2495C37.7429 39.919 38.4614 38.9029 38.0732 37.1565C37.6596 35.2957 36.2733 34.6034 34.3209 35.0373L32.2008 35.5086C32.4957 36.2594 32.9076 37.8245 33.4365 40.2039L34.1586 43.4527C34.2306 43.8129 34.3205 44.2891 34.4264 44.8738C34.5247 45.4602 34.5925 45.9813 34.6315 46.4448L36.9118 45.938C36.5457 45.083 36.155 43.7213 35.7364 41.8376L35.6126 41.2808C35.6609 41.2461 35.7338 41.2139 35.8406 41.1901C36.5117 41.041 36.7761 41.9426 37.0465 42.9789C37.227 43.6831 37.4694 44.4135 37.7965 44.9491C38.1253 45.4922 38.6956 45.7896 39.4506 45.6218ZM34.6227 36.827L34.6837 36.8135C35.4768 36.6372 36.0954 36.9719 36.2938 37.8641C36.5243 38.9013 36.1235 39.5106 35.3075 39.692L35.2617 39.7022L34.6227 36.827Z" fill="#F4F1E1"/>
<path d="M43.7375 44.4209C43.4841 43.893 43.229 43.2134 42.9612 42.3686C42.6934 41.5237 42.4722 40.7086 42.2942 39.9078L41.9128 38.1919C41.7348 37.3911 41.5882 36.5513 41.4729 35.6726C41.3576 34.7939 41.3008 34.0702 41.3067 33.4847L38.668 34.0712C38.9214 34.5991 39.1858 35.2846 39.4536 36.1294C39.7214 36.9742 39.9443 37.797 40.1206 38.5902L40.502 40.3061C40.6783 41.0993 40.8232 41.9314 40.9385 42.8101C41.0538 43.6889 41.1046 44.4219 41.0987 45.0074L43.7375 44.4209Z" fill="#F4F1E1"/>
<path d="M47.2151 43.6479C46.9676 43.1107 46.7092 42.4159 46.4413 41.571C46.1659 40.7279 45.9447 39.9127 45.7718 39.1348L45.7057 38.8374L45.843 38.8069C46.1379 39.9178 46.6981 40.3855 47.5141 40.2042C47.9945 40.0974 48.3453 39.6593 48.5741 38.8881C48.8029 38.117 48.7867 37.1442 48.5274 35.9774C48.2545 34.7495 47.774 33.8479 47.0799 33.2819C46.3859 32.7159 45.5546 32.5405 44.5708 32.7592L42.1456 33.2982C42.4007 33.8337 42.6668 34.5269 42.9422 35.37C43.2194 36.2208 43.4406 37.036 43.6135 37.8138L43.9949 39.5298C44.1678 40.3077 44.3127 41.1398 44.4204 42.0202C44.528 42.9007 44.5806 43.6413 44.5764 44.2344L47.2151 43.6479ZM46.2955 38.6103C46.1048 38.6527 45.9311 38.5552 45.776 38.3256C45.6209 38.0959 45.4921 37.8045 45.3972 37.4494L44.7785 34.6658C44.826 34.5912 44.9183 34.5387 45.0556 34.5081C45.353 34.442 45.653 34.5674 45.9648 34.8903C46.2691 35.2148 46.4936 35.6851 46.6309 36.3028C46.9361 37.6756 46.7912 38.5001 46.2955 38.6103Z" fill="#F4F1E1"/>
<path d="M53.1942 42.319C52.9467 41.7818 52.6882 41.0869 52.4204 40.2421C52.145 39.399 51.9238 38.5838 51.7509 37.8059L51.6848 37.5085L51.8221 37.478C52.117 38.5889 52.6772 39.0566 53.4932 38.8752C53.9736 38.7684 54.3244 38.3303 54.5532 37.5592C54.782 36.7881 54.7658 35.8153 54.5065 34.6484C54.2336 33.4206 53.7531 32.519 53.059 31.953C52.365 31.3869 51.5337 31.2116 50.5499 31.4302L48.1247 31.9693C48.3798 32.5048 48.6459 33.1979 48.9213 34.0411C49.1985 34.8918 49.4197 35.707 49.5926 36.4849L49.974 38.2008C50.1469 38.9787 50.2918 39.8109 50.3994 40.6913C50.5071 41.5717 50.5597 42.3123 50.5555 42.9055L53.1942 42.319ZM52.2746 37.2813C52.0839 37.3237 51.9102 37.2263 51.7551 36.9966C51.6 36.767 51.4712 36.4755 51.3763 36.1205L50.7576 33.3368C50.805 33.2623 50.8974 33.2097 51.0347 33.1792C51.3321 33.1131 51.6321 33.2385 51.9439 33.5613C52.2482 33.8859 52.4727 34.3562 52.61 34.9739C52.9152 36.3466 52.7703 37.1712 52.2746 37.2813Z" fill="#F4F1E1"/>
<path d="M60.2562 40.7494C59.7511 39.7012 59.3655 38.5784 59.096 37.3658L59.0553 37.1828L59.14 34.3949C59.1637 33.5653 59.2229 32.6798 59.3288 31.7519C59.4271 30.8257 59.5423 30.0478 59.6778 29.4334L57.1764 29.9894C57.3603 30.9969 57.4612 32.279 57.4621 33.8314L57.4545 34.0492L57.3325 34.0763L57.241 33.8806C56.5715 32.4528 56.1121 31.2503 55.8647 30.2809L53.3708 30.8352C53.7539 31.3343 54.1844 31.9749 54.6657 32.7723C55.1394 33.5714 55.5682 34.3484 55.9521 35.1034L57.2131 37.6082L57.2538 37.7913C57.5149 38.9657 57.6335 40.1478 57.6175 41.3359L60.2562 40.7494Z" fill="#F4F1E1"/>
<path d="M63.5575 36.4462L62.3098 28.8164L60.1363 29.2995L62.2305 36.7412L63.5575 36.4462ZM63.6949 40.2332C63.9694 40.1721 64.1745 40.0145 64.3177 39.7586C64.455 39.512 64.4888 39.2324 64.4227 38.9349C64.3583 38.6451 64.2109 38.4138 63.9821 38.2486C63.7456 38.085 63.4931 38.0291 63.2186 38.0901C62.9364 38.1529 62.7296 38.3029 62.5924 38.5495C62.4551 38.796 62.4195 39.0681 62.4856 39.3655C62.5517 39.6629 62.7009 39.9019 62.9297 40.0671C63.1602 40.24 63.4127 40.2959 63.6949 40.2332Z" fill="#F4F1E1"/>
</svg>
